G04 #@! TF.GenerationSoftware,KiCad,Pcbnew,10.0.3*
G04 #@! TF.CreationDate,2026-08-19T11:11:17+01:00*
G04 #@! TF.ProjectId,Ogham Panel Graphics (JLCPCB) v2,4f676861-6d20-4506-916e-656c20477261,2.0*
G04 #@! TF.SameCoordinates,Original*
G04 #@! TF.FileFunction,Profile,NP*
%FSLAX46Y46*%
G04 Gerber Fmt 4.6, Leading zero omitted, Abs format (unit mm)*
G04 Created by KiCad (PCBNEW 10.0.3) date 2026-08-19 11:11:17*
%MOMM*%
%LPD*%
G01*
G04 APERTURE LIST*
G04 #@! TA.AperFunction,Profile*
%ADD10C,0.100000*%
G04 #@! TD*
G04 APERTURE END LIST*
D10*
X70227000Y-50830600D02*
X70246392Y-50634600D01*
X70227000Y-177330600D02*
X70227000Y-50830600D01*
X70246392Y-50634600D02*
X70303121Y-50447600D01*
X70246392Y-177526601D02*
X70227000Y-177330600D01*
X70303121Y-50447600D02*
X70395012Y-50275600D01*
X70303121Y-177713283D02*
X70246392Y-177526601D01*
X70395012Y-50275600D02*
X70519893Y-50123600D01*
X70395012Y-177885401D02*
X70303121Y-177713283D01*
X70519893Y-50123600D02*
X70672199Y-49998600D01*
X70519893Y-178037707D02*
X70395012Y-177885401D01*
X70672199Y-49998600D02*
X70844317Y-49906600D01*
X70672199Y-178162588D02*
X70519893Y-178037707D01*
X70844317Y-49906600D02*
X71030999Y-49849600D01*
X70844317Y-178254479D02*
X70672199Y-178162588D01*
X71030999Y-49849600D02*
X71227000Y-49830600D01*
X71030999Y-178311208D02*
X70844317Y-178254479D01*
X71227000Y-49830600D02*
X119727000Y-49830600D01*
X71227000Y-178330600D02*
X71030999Y-178311208D01*
X72977160Y-147102200D02*
X72999500Y-147502700D01*
X72977160Y-163602600D02*
X72999500Y-164003600D01*
X72991250Y-146809800D02*
X72977160Y-147102200D01*
X72991250Y-163310600D02*
X72977160Y-163602600D01*
X72999500Y-147502700D02*
X73073770Y-147891300D01*
X72999500Y-164003600D02*
X73073770Y-164391600D01*
X73032700Y-146525100D02*
X72991250Y-146809800D01*
X73032700Y-163025600D02*
X72991250Y-163310600D01*
X73073770Y-147891300D02*
X73197430Y-148264300D01*
X73073770Y-164391600D02*
X73197430Y-164764600D01*
X73100240Y-146249400D02*
X73032700Y-146525100D01*
X73100240Y-162749600D02*
X73032700Y-163025600D01*
X73192580Y-145984200D02*
X73100240Y-146249400D01*
X73192580Y-162484600D02*
X73100240Y-162749600D01*
X73197430Y-148264300D02*
X73367920Y-148616300D01*
X73197430Y-164764600D02*
X73367920Y-165116600D01*
X73308460Y-145730700D02*
X73192580Y-145984200D01*
X73308460Y-162231600D02*
X73192580Y-162484600D01*
X73367920Y-148616300D02*
X73582710Y-148943600D01*
X73367920Y-165116600D02*
X73582710Y-165443600D01*
X73446600Y-145490300D02*
X73308460Y-145730700D01*
X73446600Y-161990600D02*
X73308460Y-162231600D01*
X73582710Y-148943600D02*
X73839260Y-149240600D01*
X73582710Y-165443600D02*
X73839260Y-165740600D01*
X73605740Y-145264500D02*
X73446600Y-145490300D01*
X73605740Y-161764600D02*
X73446600Y-161990600D01*
X73784580Y-145054500D02*
X73605740Y-145264500D01*
X73784580Y-161554600D02*
X73605740Y-161764600D01*
X73839260Y-149240600D02*
X74135010Y-149503600D01*
X73839260Y-165740600D02*
X74135010Y-166003600D01*
X73977100Y-115522200D02*
X73995270Y-115880000D01*
X73981880Y-144861700D02*
X73784580Y-145054500D01*
X73981880Y-161362600D02*
X73784580Y-161554600D01*
X73993560Y-115181100D02*
X73977100Y-115522200D01*
X73995270Y-115880000D02*
X74048390Y-116227400D01*
X74041940Y-114848900D02*
X73993560Y-115181100D01*
X74048390Y-116227400D02*
X74134700Y-116562700D01*
X74120750Y-114527300D02*
X74041940Y-114848900D01*
X74134700Y-116562700D02*
X74252440Y-116884200D01*
X74135010Y-149503600D02*
X74467420Y-149728600D01*
X74135010Y-166003600D02*
X74467420Y-166228600D01*
X74177090Y-95022100D02*
X74184840Y-95255400D01*
X74184840Y-95255400D02*
X74207870Y-95485700D01*
X74193550Y-94681000D02*
X74177090Y-95022100D01*
X74196340Y-144687500D02*
X73981880Y-144861700D01*
X74196340Y-161187600D02*
X73981880Y-161362600D01*
X74207870Y-95485700D02*
X74245790Y-95712600D01*
X74228500Y-114217800D02*
X74120750Y-114527300D01*
X74241920Y-94348900D02*
X74193550Y-94681000D01*
X74245790Y-95712600D02*
X74298240Y-95935400D01*
X74252440Y-116884200D02*
X74399870Y-117190100D01*
X74298240Y-95935400D02*
X74445270Y-96365900D01*
X74320730Y-94027300D02*
X74241920Y-94348900D01*
X74363710Y-113922100D02*
X74228500Y-114217800D01*
X74399870Y-117190100D02*
X74575200Y-117478600D01*
X74426690Y-144533300D02*
X74196340Y-144687500D01*
X74426690Y-161033600D02*
X74196340Y-161187600D01*
X74428490Y-93717800D02*
X74320730Y-94027300D01*
X74445270Y-96365900D02*
X74646000Y-96772200D01*
X74467420Y-149728600D02*
X74826760Y-149906600D01*
X74467420Y-166228600D02*
X74826760Y-166406600D01*
X74524900Y-113641700D02*
X74363710Y-113922100D01*
X74563700Y-93422100D02*
X74428490Y-93717800D01*
X74575200Y-117478600D02*
X74776700Y-117747900D01*
X74646000Y-96772200D02*
X74897500Y-97149100D01*
X74671670Y-144400300D02*
X74426690Y-144533300D01*
X74671670Y-160900600D02*
X74426690Y-161033600D01*
X74710570Y-113378200D02*
X74524900Y-113641700D01*
X74724890Y-93141700D02*
X74563700Y-93422100D01*
X74776700Y-117747900D02*
X75002600Y-117996400D01*
X74826760Y-149906600D02*
X75201570Y-150033600D01*
X74826760Y-166406600D02*
X75201570Y-166533600D01*
X74897500Y-97149100D02*
X75196810Y-97491700D01*
X74910560Y-92878200D02*
X74724890Y-93141700D01*
X74919250Y-113133200D02*
X74710570Y-113378200D01*
X74930000Y-144290100D02*
X74671670Y-144400300D01*
X74930000Y-160790600D02*
X74671670Y-160900600D01*
X75002600Y-117996400D02*
X75251140Y-118222200D01*
X75119240Y-92633200D02*
X74910560Y-92878200D01*
X75149440Y-112908300D02*
X74919250Y-113133200D01*
X75196810Y-97491700D02*
X75363480Y-97648500D01*
X75200400Y-144203900D02*
X74930000Y-144290100D01*
X75200400Y-160704600D02*
X74930000Y-160790600D01*
X75201570Y-150033600D02*
X75586700Y-150110600D01*
X75201570Y-166533600D02*
X75586700Y-166610600D01*
X75251140Y-118222200D02*
X75520560Y-118423700D01*
X75349430Y-92408300D02*
X75119240Y-92633200D01*
X75363480Y-97648500D02*
X75541000Y-97794800D01*
X75399660Y-112705100D02*
X75149440Y-112908300D01*
X75481600Y-144143100D02*
X75200400Y-144203900D01*
X75481600Y-160643600D02*
X75200400Y-160704600D01*
X75520560Y-118423700D02*
X75809100Y-118598900D01*
X75541000Y-97794800D02*
X75728990Y-97929900D01*
X75586700Y-150110600D02*
X75976980Y-150135600D01*
X75586700Y-166610600D02*
X75976980Y-166635600D01*
X75599650Y-92205100D02*
X75349430Y-92408300D01*
X75668420Y-112525200D02*
X75399660Y-112705100D01*
X75728990Y-97929900D02*
X75927110Y-98053300D01*
X75772340Y-144109100D02*
X75481600Y-144143100D01*
X75772340Y-160609600D02*
X75481600Y-160643600D01*
X75809100Y-118598900D02*
X76115020Y-118746200D01*
X75868410Y-92025200D02*
X75599650Y-92205100D01*
X75927110Y-98053300D02*
X76132980Y-98163200D01*
X75954250Y-112370100D02*
X75668420Y-112525200D01*
X75976980Y-150135600D02*
X76367250Y-150110600D01*
X75976980Y-166635600D02*
X76367250Y-166610600D01*
X76082280Y-144103900D02*
X75772340Y-144109100D01*
X76082280Y-160604600D02*
X75772340Y-160609600D01*
X76115020Y-118746200D02*
X76436530Y-118863900D01*
X76132980Y-98163200D02*
X76344000Y-98258400D01*
X76154230Y-91870100D02*
X75868410Y-92025200D01*
X76255640Y-112241500D02*
X75954250Y-112370100D01*
X76344000Y-98258400D02*
X76559440Y-98339000D01*
X76367250Y-150110600D02*
X76752380Y-150033600D01*
X76367250Y-166610600D02*
X76752380Y-166533600D01*
X76388670Y-144130500D02*
X76082280Y-144103900D01*
X76388670Y-160630600D02*
X76082280Y-160604600D01*
X76436530Y-118863900D02*
X76771900Y-118950100D01*
X76455630Y-91741500D02*
X76154230Y-91870100D01*
X76559440Y-98339000D02*
X76778560Y-98404900D01*
X76571120Y-112141000D02*
X76255640Y-112241500D01*
X76689210Y-144187900D02*
X76388670Y-144130500D01*
X76689210Y-160688600D02*
X76388670Y-160630600D01*
X76752380Y-150033600D02*
X77127190Y-149906600D01*
X76752380Y-166533600D02*
X77127190Y-166406600D01*
X76771110Y-91640900D02*
X76455630Y-91741500D01*
X76771900Y-118950100D02*
X77119360Y-119003100D01*
X76778560Y-98404900D02*
X77224900Y-98492900D01*
X76899200Y-112070100D02*
X76571120Y-112141000D01*
X76981640Y-144275400D02*
X76689210Y-144187900D01*
X76981640Y-160775600D02*
X76689210Y-160688600D01*
X77099190Y-91570000D02*
X76771110Y-91640900D01*
X77119360Y-119003100D02*
X77477140Y-119021200D01*
X77127190Y-149906600D02*
X77486530Y-149728600D01*
X77127190Y-166406600D02*
X77486530Y-166228600D01*
X77224900Y-98492900D02*
X77677130Y-98522200D01*
X77238400Y-112030400D02*
X76899200Y-112070100D01*
X77263670Y-144392100D02*
X76981640Y-144275400D01*
X77263670Y-160892600D02*
X76981640Y-160775600D01*
X77438390Y-91530400D02*
X77099190Y-91570000D01*
X77477140Y-119021200D02*
X77834930Y-119003100D01*
X77486530Y-149728600D02*
X77818940Y-149503600D01*
X77486530Y-166228600D02*
X77818940Y-166003600D01*
X77533020Y-144537300D02*
X77263670Y-144392100D01*
X77533020Y-161037600D02*
X77263670Y-160892600D01*
X77600010Y-112024400D02*
X77238400Y-112030400D01*
X77677130Y-98522200D02*
X78129360Y-98492900D01*
X77787420Y-144710100D02*
X77533020Y-144537300D01*
X77787420Y-161210600D02*
X77533020Y-161037600D01*
X77799990Y-91524300D02*
X77438390Y-91530400D01*
X77818940Y-149503600D02*
X78114690Y-149240600D01*
X77818940Y-166003600D02*
X78114690Y-165740600D01*
X77834930Y-119003100D02*
X78182390Y-118950100D01*
X77957470Y-112055300D02*
X77600010Y-112024400D01*
X78024580Y-144909700D02*
X77787420Y-144710100D01*
X78024580Y-161410600D02*
X77787420Y-161210600D01*
X78114690Y-149240600D02*
X78371240Y-148943600D01*
X78114690Y-165740600D02*
X78371240Y-165443600D01*
X78129360Y-98492900D02*
X78575700Y-98404900D01*
X78157450Y-91555300D02*
X77799990Y-91524300D01*
X78182390Y-118950100D02*
X78517750Y-118863900D01*
X78239890Y-145132700D02*
X78024580Y-144909700D01*
X78239890Y-161633600D02*
X78024580Y-161410600D01*
X78308110Y-112122300D02*
X77957470Y-112055300D01*
X78371240Y-148943600D02*
X78586030Y-148616300D01*
X78371240Y-165443600D02*
X78586030Y-165116600D01*
X78429620Y-145374700D02*
X78239890Y-145132700D01*
X78429620Y-161875600D02*
X78239890Y-161633600D01*
X78508100Y-91622300D02*
X78157450Y-91555300D01*
X78517750Y-118863900D02*
X78839270Y-118746200D01*
X78575700Y-98404900D02*
X78794820Y-98339000D01*
X78586030Y-148616300D02*
X78756530Y-148264300D01*
X78586030Y-165116600D02*
X78756530Y-164764600D01*
X78592800Y-145633600D02*
X78429620Y-145374700D01*
X78592800Y-162134600D02*
X78429620Y-161875600D01*
X78649290Y-112224300D02*
X78308110Y-112122300D01*
X78728480Y-145907000D02*
X78592800Y-145633600D01*
X78728480Y-162407600D02*
X78592800Y-162134600D01*
X78756530Y-148264300D02*
X78880180Y-147891300D01*
X78756530Y-164764600D02*
X78880180Y-164391600D01*
X78794820Y-98339000D02*
X79010260Y-98258400D01*
X78835670Y-146192800D02*
X78728480Y-145907000D01*
X78835670Y-162693600D02*
X78728480Y-162407600D01*
X78839270Y-118746200D02*
X79145180Y-118598900D01*
X78849280Y-91724300D02*
X78508100Y-91622300D01*
X78880180Y-147891300D02*
X78954450Y-147502700D01*
X78880180Y-164391600D02*
X78954450Y-164003600D01*
X78913440Y-146488700D02*
X78835670Y-146192800D01*
X78913440Y-162989600D02*
X78835670Y-162693600D01*
X78954450Y-147502700D02*
X78976790Y-147102200D01*
X78954450Y-164003600D02*
X78976790Y-163602600D01*
X78960800Y-146792600D02*
X78913440Y-146488700D01*
X78960800Y-163293600D02*
X78913440Y-162989600D01*
X78976790Y-147102200D02*
X78960800Y-146792600D01*
X78976790Y-163602600D02*
X78960800Y-163293600D01*
X78978340Y-112360500D02*
X78649290Y-112224300D01*
X79010260Y-98258400D02*
X79221280Y-98163200D01*
X79145180Y-118598900D02*
X79433700Y-118423700D01*
X79178330Y-91860500D02*
X78849280Y-91724300D01*
X79221280Y-98163200D02*
X79427200Y-98053300D01*
X79292600Y-112529800D02*
X78978340Y-112360500D01*
X79427200Y-98053300D02*
X79625300Y-97929900D01*
X79433700Y-118423700D02*
X79703100Y-118222200D01*
X79492600Y-92029800D02*
X79178330Y-91860500D01*
X79589400Y-112731400D02*
X79292600Y-112529800D01*
X79625300Y-97929900D02*
X79813300Y-97794800D01*
X79703100Y-118222200D02*
X79951700Y-117996400D01*
X79789400Y-92231400D02*
X79492600Y-92029800D01*
X79813300Y-97794800D02*
X79990800Y-97648500D01*
X79866100Y-112964300D02*
X79589400Y-112731400D01*
X79951700Y-117996400D02*
X80177600Y-117747900D01*
X79990800Y-97648500D02*
X80157400Y-97491700D01*
X80066100Y-92464300D02*
X79789400Y-92231400D01*
X80117300Y-113224500D02*
X79866100Y-112964300D01*
X80157400Y-97491700D02*
X80456800Y-97149100D01*
X80177600Y-117747900D02*
X80379100Y-117478600D01*
X80317300Y-92724400D02*
X80066100Y-92464300D01*
X80338700Y-113506800D02*
X80117300Y-113224500D01*
X80379100Y-117478600D02*
X80554400Y-117190100D01*
X80456800Y-97149100D02*
X80708300Y-96772200D01*
X80529100Y-113808800D02*
X80338700Y-113506800D01*
X80538700Y-93006800D02*
X80317300Y-92724400D01*
X80554400Y-117190100D02*
X80701800Y-116884200D01*
X80687400Y-114127800D02*
X80529100Y-113808800D01*
X80701800Y-116884200D02*
X80819600Y-116562700D01*
X80708300Y-96772200D02*
X80909000Y-96365900D01*
X80729100Y-93308800D02*
X80538700Y-93006800D01*
X80812500Y-114461200D02*
X80687400Y-114127800D01*
X80819600Y-116562700D02*
X80905900Y-116227400D01*
X80887400Y-93627800D02*
X80729100Y-93308800D01*
X80903200Y-114806500D02*
X80812500Y-114461200D01*
X80905900Y-116227400D02*
X80959000Y-115880000D01*
X80909000Y-96365900D02*
X81056000Y-95935400D01*
X80958500Y-115161000D02*
X80903200Y-114806500D01*
X80959000Y-115880000D02*
X80977200Y-115522200D01*
X80977200Y-115522200D02*
X80958500Y-115161000D01*
X81012500Y-93961200D02*
X80887400Y-93627800D01*
X81056000Y-95935400D02*
X81108500Y-95712600D01*
X81103200Y-94306400D02*
X81012500Y-93961200D01*
X81108500Y-95712600D02*
X81146400Y-95485700D01*
X81146400Y-95485700D02*
X81169400Y-95255400D01*
X81158500Y-94661000D02*
X81103200Y-94306400D01*
X81169400Y-95255400D02*
X81177200Y-95022100D01*
X81177200Y-95022100D02*
X81158500Y-94661000D01*
X82600000Y-62450000D02*
X112100000Y-62450000D01*
X82600000Y-74950000D02*
X82600000Y-62450000D01*
X85976900Y-147102200D02*
X85992400Y-147408900D01*
X85976900Y-163602600D02*
X86003300Y-164000600D01*
X85991000Y-146809800D02*
X85976900Y-147102200D01*
X85991000Y-163310600D02*
X85976900Y-163602600D01*
X85992400Y-147408900D02*
X86037800Y-147706800D01*
X86003300Y-164000600D02*
X86080700Y-164385600D01*
X86032400Y-146525100D02*
X85991000Y-146809800D01*
X86032400Y-163025600D02*
X85991000Y-163310600D01*
X86037800Y-147706800D02*
X86111800Y-147994300D01*
X86080700Y-164385600D02*
X86206800Y-164754600D01*
X86100000Y-146249400D02*
X86032400Y-146525100D01*
X86100000Y-162749600D02*
X86032400Y-163025600D01*
X86111800Y-147994300D02*
X86212600Y-148270300D01*
X86192300Y-145984200D02*
X86100000Y-146249400D01*
X86192300Y-162484600D02*
X86100000Y-162749600D01*
X86206800Y-164754600D02*
X86378800Y-165102600D01*
X86212600Y-148270300D02*
X86339000Y-148532300D01*
X86308200Y-145730700D02*
X86192300Y-145984200D01*
X86308200Y-162231600D02*
X86192300Y-162484600D01*
X86339000Y-148532300D02*
X86489200Y-148779300D01*
X86378800Y-165102600D02*
X86594400Y-165425600D01*
X86446300Y-145490300D02*
X86308200Y-145730700D01*
X86446300Y-161990600D02*
X86308200Y-162231600D01*
X86489200Y-148779300D02*
X86662000Y-149010600D01*
X86594400Y-165425600D02*
X86850900Y-165719600D01*
X86605500Y-145264500D02*
X86446300Y-145490300D01*
X86605500Y-161764600D02*
X86446300Y-161990600D01*
X86662000Y-149010600D02*
X86855600Y-149223600D01*
X86784300Y-145054500D02*
X86605500Y-145264500D01*
X86784300Y-161554600D02*
X86605500Y-161764600D01*
X86850900Y-165719600D02*
X87146000Y-165979600D01*
X86855600Y-149223600D02*
X87068600Y-149417600D01*
X86981600Y-144861700D02*
X86784300Y-145054500D01*
X86981600Y-161362600D02*
X86784300Y-161554600D01*
X87068600Y-149417600D02*
X87299600Y-149590600D01*
X87146000Y-165979600D02*
X87476900Y-166200600D01*
X87196100Y-144687500D02*
X86981600Y-144861700D01*
X87196100Y-161187600D02*
X86981600Y-161362600D01*
X87299600Y-149590600D02*
X87546900Y-149740600D01*
X87426400Y-144533300D02*
X87196100Y-144687500D01*
X87426400Y-161033600D02*
X87196100Y-161187600D01*
X87476900Y-166200600D02*
X87834300Y-166376600D01*
X87546900Y-149740600D02*
X87809200Y-149866600D01*
X87671400Y-144400300D02*
X87426400Y-144533300D01*
X87671400Y-160900600D02*
X87426400Y-161033600D01*
X87809200Y-149866600D02*
X88084800Y-149967600D01*
X87834300Y-166376600D02*
X88206700Y-166502600D01*
X87929700Y-144290100D02*
X87671400Y-144400300D01*
X87929700Y-160790600D02*
X87671400Y-160900600D01*
X88084800Y-149967600D02*
X88372300Y-150041600D01*
X88200100Y-144203900D02*
X87929700Y-144290100D01*
X88200100Y-160704600D02*
X87929700Y-160790600D01*
X88206700Y-166502600D02*
X88589300Y-166577600D01*
X88372300Y-150041600D02*
X88670200Y-150086600D01*
X88481300Y-144143100D02*
X88200100Y-144203900D01*
X88481300Y-160643600D02*
X88200100Y-160704600D01*
X88589300Y-166577600D02*
X88977000Y-166602600D01*
X88670200Y-150086600D02*
X88977000Y-150102600D01*
X88772100Y-144109100D02*
X88481300Y-144143100D01*
X88772100Y-160609600D02*
X88481300Y-160643600D01*
X88977000Y-150102600D02*
X89283700Y-150086600D01*
X88977000Y-166602600D02*
X89364600Y-166577600D01*
X89082000Y-144103900D02*
X88772100Y-144109100D01*
X89082000Y-160604600D02*
X88772100Y-160609600D01*
X89283700Y-150086600D02*
X89581600Y-150041600D01*
X89364600Y-166577600D02*
X89747200Y-166502600D01*
X89388500Y-144130400D02*
X89082000Y-144103900D01*
X89388500Y-160630600D02*
X89082000Y-160604600D01*
X89581600Y-150041600D02*
X89869100Y-149967600D01*
X89689100Y-144187800D02*
X89388500Y-144130400D01*
X89689100Y-160688600D02*
X89388500Y-160630600D01*
X89747200Y-166502600D02*
X90119700Y-166376600D01*
X89869100Y-149967600D02*
X90144700Y-149866600D01*
X89981500Y-144275200D02*
X89689100Y-144187800D01*
X89981500Y-160775600D02*
X89689100Y-160688600D01*
X90119700Y-166376600D02*
X90477000Y-166200600D01*
X90144700Y-149866600D02*
X90407000Y-149740600D01*
X90263600Y-144391900D02*
X89981500Y-144275200D01*
X90263600Y-160892600D02*
X89981500Y-160775600D01*
X90407000Y-149740600D02*
X90654300Y-149590600D01*
X90477000Y-166200600D02*
X90808000Y-165979600D01*
X90533000Y-144537100D02*
X90263600Y-144391900D01*
X90533000Y-161037600D02*
X90263600Y-160892600D01*
X90654300Y-149590600D02*
X90885300Y-149417600D01*
X90787400Y-144709900D02*
X90533000Y-144537100D01*
X90787400Y-161210600D02*
X90533000Y-161037600D01*
X90808000Y-165979600D02*
X91103000Y-165719600D01*
X90885300Y-149417600D02*
X91098300Y-149223600D01*
X91024600Y-144909500D02*
X90787400Y-144709900D01*
X91024600Y-161409600D02*
X90787400Y-161210600D01*
X91098300Y-149223600D02*
X91292000Y-149010600D01*
X91103000Y-165719600D02*
X91359500Y-165425600D01*
X91240000Y-145132500D02*
X91024600Y-144909500D01*
X91240000Y-161632600D02*
X91024600Y-161409600D01*
X91292000Y-149010600D02*
X91464700Y-148779300D01*
X91359500Y-165425600D02*
X91575100Y-165102600D01*
X91429800Y-145374600D02*
X91240000Y-145132500D01*
X91429800Y-161875600D02*
X91240000Y-161632600D01*
X91464700Y-148779300D02*
X91614900Y-148532300D01*
X91575100Y-165102600D02*
X91747200Y-164754600D01*
X91593000Y-145633400D02*
X91429800Y-145374600D01*
X91593000Y-162133600D02*
X91429800Y-161875600D01*
X91614900Y-148532300D02*
X91741300Y-148270300D01*
X91728700Y-145906900D02*
X91593000Y-145633400D01*
X91728700Y-162407600D02*
X91593000Y-162133600D01*
X91741300Y-148270300D02*
X91842200Y-147994300D01*
X91747200Y-164754600D02*
X91873200Y-164385600D01*
X91835900Y-146192700D02*
X91728700Y-145906900D01*
X91835900Y-162693600D02*
X91728700Y-162407600D01*
X91842200Y-147994300D02*
X91916100Y-147706800D01*
X91873200Y-164385600D02*
X91950700Y-164000600D01*
X91913700Y-146488600D02*
X91835900Y-146192700D01*
X91913700Y-162989600D02*
X91835900Y-162693600D01*
X91916100Y-147706800D02*
X91961500Y-147408900D01*
X91950700Y-164000600D02*
X91977000Y-163602600D01*
X91961000Y-146792500D02*
X91913700Y-146488600D01*
X91961000Y-163293600D02*
X91913700Y-162989600D01*
X91961500Y-147408900D02*
X91977000Y-147102200D01*
X91977000Y-115522200D02*
X91995200Y-115879900D01*
X91977000Y-147102200D02*
X91961000Y-146792500D01*
X91977000Y-163602600D02*
X91961000Y-163293600D01*
X91993500Y-115181100D02*
X91977000Y-115522200D01*
X91995200Y-115879900D02*
X92048400Y-116227300D01*
X92041900Y-114848900D02*
X91993500Y-115181100D01*
X92048400Y-116227300D02*
X92134700Y-116562600D01*
X92120700Y-114527300D02*
X92041900Y-114848900D01*
X92134700Y-116562600D02*
X92252500Y-116884100D01*
X92228400Y-114217800D02*
X92120700Y-114527300D01*
X92252500Y-116884100D02*
X92399900Y-117189900D01*
X92363600Y-113922100D02*
X92228400Y-114217800D01*
X92399900Y-117189900D02*
X92575300Y-117478400D01*
X92524800Y-113641700D02*
X92363600Y-113922100D01*
X92575300Y-117478400D02*
X92776800Y-117747700D01*
X92710500Y-113378200D02*
X92524800Y-113641700D01*
X92776800Y-117747700D02*
X93002700Y-117996100D01*
X92919200Y-113133200D02*
X92710500Y-113378200D01*
X92977000Y-95022100D02*
X92990000Y-95277700D01*
X92988800Y-94778500D02*
X92977000Y-95022100D01*
X92990000Y-95277700D02*
X93028000Y-95525800D01*
X93002700Y-117996100D02*
X93251200Y-118221900D01*
X93023300Y-94541300D02*
X92988800Y-94778500D01*
X93028000Y-95525800D02*
X93089700Y-95765300D01*
X93079600Y-94311500D02*
X93023300Y-94541300D01*
X93089700Y-95765300D02*
X93173800Y-95994900D01*
X93149400Y-112908300D02*
X92919200Y-113133200D01*
X93156600Y-94090500D02*
X93079600Y-94311500D01*
X93173800Y-95994900D02*
X93279100Y-96213300D01*
X93251200Y-118221900D02*
X93520600Y-118423300D01*
X93253200Y-93879300D02*
X93156600Y-94090500D01*
X93279100Y-96213300D02*
X93404400Y-96419400D01*
X93368300Y-93679000D02*
X93253200Y-93879300D01*
X93399600Y-112705100D02*
X93149400Y-112908300D01*
X93404400Y-96419400D02*
X93548300Y-96611700D01*
X93501000Y-93490800D02*
X93368300Y-93679000D01*
X93520600Y-118423300D02*
X93809200Y-118598600D01*
X93548300Y-96611700D02*
X93709700Y-96789200D01*
X93650000Y-93315900D02*
X93501000Y-93490800D01*
X93668400Y-112525200D02*
X93399600Y-112705100D01*
X93709700Y-96789200D02*
X93887200Y-96950500D01*
X93809200Y-118598600D02*
X94115100Y-118745900D01*
X93814500Y-93155200D02*
X93650000Y-93315900D01*
X93887200Y-96950500D02*
X94079600Y-97094300D01*
X93954200Y-112370100D02*
X93668400Y-112525200D01*
X93993200Y-93010100D02*
X93814500Y-93155200D01*
X94079600Y-97094300D02*
X94285700Y-97219400D01*
X94115100Y-118745900D02*
X94436500Y-118863500D01*
X94185200Y-92881600D02*
X93993200Y-93010100D01*
X94255600Y-112241500D02*
X93954200Y-112370100D01*
X94285700Y-97219400D02*
X94504200Y-97324700D01*
X94389300Y-92770900D02*
X94185200Y-92881600D01*
X94436500Y-118863500D02*
X94771900Y-118949700D01*
X94504200Y-97324700D02*
X94733900Y-97408700D01*
X94571100Y-112141000D02*
X94255600Y-112241500D01*
X94604600Y-92679000D02*
X94389300Y-92770900D01*
X94733900Y-97408700D02*
X94973400Y-97470200D01*
X94771900Y-118949700D02*
X95119300Y-119002700D01*
X94829900Y-92607200D02*
X94604600Y-92679000D01*
X94899100Y-112070100D02*
X94571100Y-112141000D01*
X94973400Y-97470200D02*
X95221500Y-97508100D01*
X95064300Y-92556600D02*
X94829900Y-92607200D01*
X95119300Y-119002700D02*
X95477100Y-119020800D01*
X95221500Y-97508100D02*
X95477100Y-97521000D01*
X95238300Y-112030400D02*
X94899100Y-112070100D01*
X95306500Y-92528200D02*
X95064300Y-92556600D01*
X95477100Y-97521000D02*
X95732600Y-97508100D01*
X95477100Y-119020800D02*
X95834800Y-119002700D01*
X95564800Y-92523900D02*
X95306500Y-92528200D01*
X95599900Y-112024400D02*
X95238300Y-112030400D01*
X95732600Y-97508100D02*
X95980800Y-97470200D01*
X95820100Y-92546000D02*
X95564800Y-92523900D01*
X95834800Y-119002700D02*
X96182300Y-118949700D01*
X95957400Y-112055300D02*
X95599900Y-112024400D01*
X95980800Y-97470200D02*
X96220300Y-97408700D01*
X96070600Y-92593800D02*
X95820100Y-92546000D01*
X96182300Y-118949700D02*
X96517600Y-118863500D01*
X96220300Y-97408700D02*
X96449900Y-97324700D01*
X96308000Y-112122300D02*
X95957400Y-112055300D01*
X96314300Y-92666700D02*
X96070600Y-92593800D01*
X96449900Y-97324700D02*
X96668400Y-97219400D01*
X96517600Y-118863500D02*
X96839100Y-118745900D01*
X96549300Y-92764000D02*
X96314300Y-92666700D01*
X96649200Y-112224300D02*
X96308000Y-112122300D01*
X96668400Y-97219400D02*
X96874500Y-97094300D01*
X96773800Y-92884900D02*
X96549300Y-92764000D01*
X96839100Y-118745900D02*
X97145000Y-118598600D01*
X96874500Y-97094300D02*
X97067000Y-96950500D01*
X96978300Y-112360500D02*
X96649200Y-112224300D01*
X96985800Y-93028900D02*
X96773800Y-92884900D01*
X97067000Y-96950500D02*
X97244500Y-96789200D01*
X97145000Y-118598600D02*
X97433500Y-118423300D01*
X97183500Y-93195200D02*
X96985800Y-93028900D01*
X97244500Y-96789200D02*
X97405800Y-96611700D01*
X97292500Y-112529800D02*
X96978300Y-112360500D01*
X97362900Y-93381000D02*
X97183500Y-93195200D01*
X97405800Y-96611700D02*
X97549800Y-96419400D01*
X97433500Y-118423300D02*
X97702900Y-118221900D01*
X97521000Y-93582700D02*
X97362900Y-93381000D01*
X97549800Y-96419400D02*
X97675000Y-96213300D01*
X97589300Y-112731400D02*
X97292500Y-112529800D01*
X97657000Y-93798400D02*
X97521000Y-93582700D01*
X97675000Y-96213300D02*
X97780400Y-95994900D01*
X97702900Y-118221900D02*
X97951500Y-117996100D01*
X97770100Y-94026200D02*
X97657000Y-93798400D01*
X97780400Y-95994900D02*
X97864500Y-95765300D01*
X97859500Y-94264300D02*
X97770100Y-94026200D01*
X97864500Y-95765300D02*
X97926200Y-95525800D01*
X97866100Y-112964300D02*
X97589300Y-112731400D01*
X97924300Y-94510900D02*
X97859500Y-94264300D01*
X97926200Y-95525800D02*
X97964200Y-95277700D01*
X97951500Y-117996100D02*
X98177400Y-117747700D01*
X97963800Y-94764200D02*
X97924300Y-94510900D01*
X97964200Y-95277700D02*
X97977200Y-95022100D01*
X97977200Y-95022100D02*
X97963800Y-94764200D01*
X98117300Y-113224500D02*
X97866100Y-112964300D01*
X98177400Y-117747700D02*
X98378900Y-117478400D01*
X98338600Y-113506800D02*
X98117300Y-113224500D01*
X98378900Y-117478400D02*
X98554200Y-117189900D01*
X98529000Y-113808800D02*
X98338600Y-113506800D01*
X98554200Y-117189900D02*
X98701700Y-116884100D01*
X98687300Y-114127800D02*
X98529000Y-113808800D01*
X98701700Y-116884100D02*
X98819400Y-116562600D01*
X98812400Y-114461200D02*
X98687300Y-114127800D01*
X98819400Y-116562600D02*
X98905800Y-116227300D01*
X98903200Y-114806500D02*
X98812400Y-114461200D01*
X98905800Y-116227300D02*
X98958900Y-115879900D01*
X98958400Y-115161000D02*
X98903200Y-114806500D01*
X98958900Y-115879900D02*
X98977100Y-115522200D01*
X98977100Y-115522200D02*
X98958400Y-115161000D01*
X98977100Y-147102200D02*
X98995700Y-147406400D01*
X98977100Y-163602600D02*
X98995700Y-163906600D01*
X98991200Y-146809800D02*
X98977100Y-147102200D01*
X98991200Y-163310600D02*
X98977100Y-163602600D01*
X98995700Y-147406400D02*
X99043800Y-147701600D01*
X98995700Y-163906600D02*
X99043800Y-164202600D01*
X99032700Y-146525100D02*
X98991200Y-146809800D01*
X99032700Y-163025600D02*
X98991200Y-163310600D01*
X99043800Y-147701600D02*
X99119800Y-147986300D01*
X99043800Y-164202600D02*
X99119800Y-164486600D01*
X99100200Y-146249400D02*
X99032700Y-146525100D01*
X99100200Y-162749600D02*
X99032700Y-163025600D01*
X99119800Y-147986300D02*
X99222300Y-148259300D01*
X99119800Y-164486600D02*
X99222300Y-164759600D01*
X99192500Y-145984200D02*
X99100200Y-146249400D01*
X99192500Y-162484600D02*
X99100200Y-162749600D01*
X99222300Y-148259300D02*
X99349800Y-148518300D01*
X99222300Y-164759600D02*
X99349800Y-165019600D01*
X99308400Y-145730700D02*
X99192500Y-145984200D01*
X99308400Y-162231600D02*
X99192500Y-162484600D01*
X99349800Y-148518300D02*
X99500800Y-148763300D01*
X99349800Y-165019600D02*
X99500800Y-165263600D01*
X99446600Y-145490300D02*
X99308400Y-145730700D01*
X99446600Y-161990600D02*
X99308400Y-162231600D01*
X99500800Y-148763300D02*
X99673800Y-148991600D01*
X99500800Y-165263600D02*
X99673800Y-165492600D01*
X99605700Y-145264500D02*
X99446600Y-145490300D01*
X99605700Y-161764600D02*
X99446600Y-161990600D01*
X99673800Y-148991600D02*
X99867400Y-149202600D01*
X99673800Y-165492600D02*
X99867400Y-165702600D01*
X99784500Y-145054500D02*
X99605700Y-145264500D01*
X99784500Y-161554600D02*
X99605700Y-161764600D01*
X99867400Y-149202600D02*
X100080000Y-149393600D01*
X99867400Y-165702600D02*
X100080000Y-165893600D01*
X99981800Y-144861700D02*
X99784500Y-145054500D01*
X99981800Y-161362600D02*
X99784500Y-161554600D01*
X100080000Y-149393600D02*
X100310100Y-149563600D01*
X100080000Y-165893600D02*
X100310100Y-166064600D01*
X100196300Y-144687500D02*
X99981800Y-144861700D01*
X100196300Y-161187600D02*
X99981800Y-161362600D01*
X100310100Y-149563600D02*
X100556400Y-149712600D01*
X100310100Y-166064600D02*
X100556400Y-166212600D01*
X100426700Y-144533300D02*
X100196300Y-144687500D01*
X100426700Y-161033600D02*
X100196300Y-161187600D01*
X100556400Y-149712600D02*
X100817200Y-149836600D01*
X100556400Y-166212600D02*
X100817200Y-166337600D01*
X100671600Y-144400300D02*
X100426700Y-144533300D01*
X100671600Y-160900600D02*
X100426700Y-161033600D01*
X100817200Y-149836600D02*
X101091200Y-149936600D01*
X100817200Y-166337600D02*
X101091200Y-166436600D01*
X100930000Y-144290100D02*
X100671600Y-144400300D01*
X100930000Y-160790600D02*
X100671600Y-160900600D01*
X101091200Y-149936600D02*
X101376800Y-150009600D01*
X101091200Y-166436600D02*
X101376800Y-166509600D01*
X101200400Y-144203900D02*
X100930000Y-144290100D01*
X101200400Y-160704600D02*
X100930000Y-160790600D01*
X101376800Y-150009600D02*
X101672500Y-150053600D01*
X101376800Y-166509600D02*
X101672500Y-166554600D01*
X101481600Y-144143100D02*
X101200400Y-144203900D01*
X101481600Y-160643600D02*
X101200400Y-160704600D01*
X101672500Y-150053600D02*
X101976900Y-150069600D01*
X101672500Y-166554600D02*
X101976900Y-166569600D01*
X101772300Y-144109100D02*
X101481600Y-144143100D01*
X101772300Y-160609600D02*
X101481600Y-160643600D01*
X101976900Y-150069600D02*
X102281300Y-150053600D01*
X101976900Y-166569600D02*
X102281300Y-166554600D01*
X102082200Y-144103900D02*
X101772300Y-144109100D01*
X102082200Y-160604600D02*
X101772300Y-160609600D01*
X102281300Y-150053600D02*
X102577100Y-150009600D01*
X102281300Y-166554600D02*
X102577100Y-166509600D01*
X102388600Y-144130500D02*
X102082200Y-144103900D01*
X102388600Y-160630600D02*
X102082200Y-160604600D01*
X102577100Y-150009600D02*
X102862700Y-149936600D01*
X102577100Y-166509600D02*
X102862700Y-166436600D01*
X102689200Y-144187900D02*
X102388600Y-144130500D01*
X102689200Y-160688600D02*
X102388600Y-160630600D01*
X102862700Y-149936600D02*
X103136600Y-149836600D01*
X102862700Y-166436600D02*
X103136600Y-166337600D01*
X102981600Y-144275400D02*
X102689200Y-144187900D01*
X102981600Y-160775600D02*
X102689200Y-160688600D01*
X103136600Y-149836600D02*
X103397500Y-149712600D01*
X103136600Y-166337600D02*
X103397500Y-166212600D01*
X103263600Y-144392100D02*
X102981600Y-144275400D01*
X103263600Y-160892600D02*
X102981600Y-160775600D01*
X103397500Y-149712600D02*
X103643700Y-149563600D01*
X103397500Y-166212600D02*
X103643700Y-166064600D01*
X103533000Y-144537300D02*
X103263600Y-144392100D01*
X103533000Y-161037600D02*
X103263600Y-160892600D01*
X103643700Y-149563600D02*
X103873900Y-149393600D01*
X103643700Y-166064600D02*
X103873900Y-165893600D01*
X103787400Y-144710100D02*
X103533000Y-144537300D01*
X103787400Y-161210600D02*
X103533000Y-161037600D01*
X103873900Y-149393600D02*
X104086500Y-149202600D01*
X103873900Y-165893600D02*
X104086500Y-165702600D01*
X104024500Y-144909700D02*
X103787400Y-144710100D01*
X104024500Y-161410600D02*
X103787400Y-161210600D01*
X104086500Y-149202600D02*
X104280100Y-148991600D01*
X104086500Y-165702600D02*
X104280100Y-165492600D01*
X104239900Y-145132700D02*
X104024500Y-144909700D01*
X104239900Y-161633600D02*
X104024500Y-161410600D01*
X104280100Y-148991600D02*
X104453100Y-148763300D01*
X104280100Y-165492600D02*
X104453100Y-165263600D01*
X104429600Y-145374700D02*
X104239900Y-145132700D01*
X104429600Y-161875600D02*
X104239900Y-161633600D01*
X104453100Y-148763300D02*
X104604100Y-148518300D01*
X104453100Y-165263600D02*
X104604100Y-165019600D01*
X104592800Y-145633600D02*
X104429600Y-145374700D01*
X104592800Y-162134600D02*
X104429600Y-161875600D01*
X104604100Y-148518300D02*
X104731600Y-148259300D01*
X104604100Y-165019600D02*
X104731600Y-164759600D01*
X104728400Y-145907000D02*
X104592800Y-145633600D01*
X104728400Y-162407600D02*
X104592800Y-162134600D01*
X104731600Y-148259300D02*
X104834000Y-147986300D01*
X104731600Y-164759600D02*
X104834000Y-164486600D01*
X104834000Y-147986300D02*
X104910100Y-147701600D01*
X104834000Y-164486600D02*
X104910100Y-164202600D01*
X104835600Y-146192800D02*
X104728400Y-145907000D01*
X104835600Y-162693600D02*
X104728400Y-162407600D01*
X104910100Y-147701600D02*
X104958100Y-147406400D01*
X104910100Y-164202600D02*
X104958100Y-163906600D01*
X104913400Y-146488700D02*
X104835600Y-146192800D01*
X104913400Y-162989600D02*
X104835600Y-162693600D01*
X104958100Y-147406400D02*
X104976800Y-147102200D01*
X104958100Y-163906600D02*
X104976800Y-163602600D01*
X104960800Y-146792600D02*
X104913400Y-146488700D01*
X104960800Y-163293600D02*
X104913400Y-162989600D01*
X104976800Y-147102200D02*
X104960800Y-146792600D01*
X104976800Y-163602600D02*
X104960800Y-163293600D01*
X109977000Y-95022100D02*
X109984700Y-95255400D01*
X109977000Y-115522200D02*
X109984700Y-115755400D01*
X109984700Y-95255400D02*
X110007700Y-95485700D01*
X109984700Y-115755400D02*
X110007700Y-115985800D01*
X109993400Y-94681000D02*
X109977000Y-95022100D01*
X109993400Y-115181100D02*
X109977000Y-115522200D01*
X110007700Y-95485700D02*
X110045700Y-95712600D01*
X110007700Y-115985800D02*
X110045700Y-116212700D01*
X110041800Y-94348900D02*
X109993400Y-94681000D01*
X110041800Y-114848900D02*
X109993400Y-115181100D01*
X110045700Y-95712600D02*
X110098100Y-95935400D01*
X110045700Y-116212700D02*
X110098100Y-116435400D01*
X110098100Y-95935400D02*
X110245200Y-96365900D01*
X110098100Y-116435400D02*
X110245200Y-116865900D01*
X110120600Y-94027300D02*
X110041800Y-94348900D01*
X110120600Y-114527300D02*
X110041800Y-114848900D01*
X110228400Y-93717800D02*
X110120600Y-94027300D01*
X110228400Y-114217800D02*
X110120600Y-114527300D01*
X110245200Y-96365900D02*
X110445900Y-96772200D01*
X110245200Y-116865900D02*
X110445900Y-117272200D01*
X110363600Y-93422100D02*
X110228400Y-93717800D01*
X110363600Y-113922100D02*
X110228400Y-114217800D01*
X110445900Y-96772200D02*
X110697400Y-97149100D01*
X110445900Y-117272200D02*
X110697400Y-117649200D01*
X110524800Y-93141700D02*
X110363600Y-93422100D01*
X110524800Y-113641700D02*
X110363600Y-113922100D01*
X110697400Y-97149100D02*
X110996700Y-97491700D01*
X110697400Y-117649200D02*
X110996700Y-117991800D01*
X110710400Y-92878200D02*
X110524800Y-93141700D01*
X110710400Y-113378200D02*
X110524800Y-113641700D01*
X110919100Y-92633200D02*
X110710400Y-92878200D01*
X110919100Y-113133200D02*
X110710400Y-113378200D01*
X110996700Y-97491700D02*
X111163400Y-97648500D01*
X110996700Y-117991800D02*
X111163400Y-118148600D01*
X111149300Y-92408300D02*
X110919100Y-92633200D01*
X111149300Y-112908300D02*
X110919100Y-113133200D01*
X111163400Y-97648500D02*
X111340900Y-97794800D01*
X111163400Y-118148600D02*
X111340900Y-118294800D01*
X111340900Y-97794800D02*
X111528900Y-97929900D01*
X111340900Y-118294800D02*
X111528900Y-118430000D01*
X111399500Y-92205100D02*
X111149300Y-92408300D01*
X111399500Y-112705100D02*
X111149300Y-112908300D01*
X111528900Y-97929900D02*
X111727000Y-98053300D01*
X111528900Y-118430000D02*
X111727000Y-118553300D01*
X111668300Y-92025200D02*
X111399500Y-92205100D01*
X111668300Y-112525200D02*
X111399500Y-112705100D01*
X111727000Y-98053300D02*
X111932900Y-98163200D01*
X111727000Y-118553300D02*
X111932900Y-118663200D01*
X111932900Y-98163200D02*
X112143900Y-98258400D01*
X111932900Y-118663200D02*
X112143900Y-118758400D01*
X111954100Y-91870100D02*
X111668300Y-92025200D01*
X111954100Y-112370100D02*
X111668300Y-112525200D01*
X111976800Y-147102200D02*
X112003200Y-147499500D01*
X111976800Y-163602600D02*
X112003200Y-164000600D01*
X111990900Y-146809800D02*
X111976800Y-147102200D01*
X111990900Y-163310600D02*
X111976800Y-163602600D01*
X112003200Y-147499500D02*
X112080700Y-147885300D01*
X112003200Y-164000600D02*
X112080700Y-164385600D01*
X112032400Y-146525100D02*
X111990900Y-146809800D01*
X112032400Y-163025600D02*
X111990900Y-163310600D01*
X112080700Y-147885300D02*
X112206700Y-148254300D01*
X112080700Y-164385600D02*
X112206700Y-164754600D01*
X112099900Y-146249400D02*
X112032400Y-146525100D01*
X112099900Y-162749600D02*
X112032400Y-163025600D01*
X112100000Y-62450000D02*
X112100000Y-74950000D01*
X112100000Y-74950000D02*
X82600000Y-74950000D01*
X112143900Y-98258400D02*
X112359300Y-98339000D01*
X112143900Y-118758400D02*
X112359300Y-118839000D01*
X112192300Y-145984200D02*
X112099900Y-146249400D01*
X112192300Y-162484600D02*
X112099900Y-162749600D01*
X112206700Y-148254300D02*
X112378800Y-148602300D01*
X112206700Y-164754600D02*
X112378800Y-165102600D01*
X112255500Y-91741500D02*
X111954100Y-91870100D01*
X112255500Y-112241500D02*
X111954100Y-112370100D01*
X112308100Y-145730700D02*
X112192300Y-145984200D01*
X112308100Y-162231600D02*
X112192300Y-162484600D01*
X112359300Y-98339000D02*
X112578400Y-98404900D01*
X112359300Y-118839000D02*
X112578400Y-118905000D01*
X112378800Y-148602300D02*
X112594300Y-148925600D01*
X112378800Y-165102600D02*
X112594300Y-165425600D01*
X112446300Y-145490300D02*
X112308100Y-145730700D01*
X112446300Y-161990600D02*
X112308100Y-162231600D01*
X112571000Y-91640900D02*
X112255500Y-91741500D01*
X112571000Y-112141000D02*
X112255500Y-112241500D01*
X112578400Y-98404900D02*
X113024800Y-98492900D01*
X112578400Y-118905000D02*
X113024800Y-118992900D01*
X112594300Y-148925600D02*
X112850900Y-149219600D01*
X112594300Y-165425600D02*
X112850900Y-165719600D01*
X112605400Y-145264500D02*
X112446300Y-145490300D01*
X112605400Y-161764600D02*
X112446300Y-161990600D01*
X112784300Y-145054500D02*
X112605400Y-145264500D01*
X112784300Y-161554600D02*
X112605400Y-161764600D01*
X112850900Y-149219600D02*
X113145900Y-149478600D01*
X112850900Y-165719600D02*
X113145900Y-165979600D01*
X112899100Y-91570000D02*
X112571000Y-91640900D01*
X112899100Y-112070100D02*
X112571000Y-112141000D01*
X112981600Y-144861700D02*
X112784300Y-145054500D01*
X112981600Y-161362600D02*
X112784300Y-161554600D01*
X113024800Y-98492900D02*
X113477000Y-98522200D01*
X113024800Y-118992900D02*
X113477000Y-119022200D01*
X113145900Y-149478600D02*
X113476900Y-149700600D01*
X113145900Y-165979600D02*
X113476900Y-166200600D01*
X113196000Y-144687500D02*
X112981600Y-144861700D01*
X113196000Y-161187600D02*
X112981600Y-161362600D01*
X113238300Y-91530400D02*
X112899100Y-91570000D01*
X113238300Y-112030400D02*
X112899100Y-112070100D01*
X113426400Y-144533300D02*
X113196000Y-144687500D01*
X113426400Y-161033600D02*
X113196000Y-161187600D01*
X113476900Y-149700600D02*
X113834200Y-149876600D01*
X113476900Y-166200600D02*
X113834200Y-166376600D01*
X113477000Y-98522200D02*
X113929200Y-98492900D01*
X113477000Y-119022200D02*
X113929200Y-118992900D01*
X113599900Y-91524300D02*
X113238300Y-91530400D01*
X113599900Y-112024400D02*
X113238300Y-112030400D01*
X113671400Y-144400300D02*
X113426400Y-144533300D01*
X113671400Y-160900600D02*
X113426400Y-161033600D01*
X113834200Y-149876600D02*
X114206700Y-150001600D01*
X113834200Y-166376600D02*
X114206700Y-166502600D01*
X113929200Y-98492900D02*
X114375600Y-98404900D01*
X113929200Y-118992900D02*
X114375600Y-118905000D01*
X113929700Y-144290100D02*
X113671400Y-144400300D01*
X113929700Y-160790600D02*
X113671400Y-160900600D01*
X113957300Y-91555300D02*
X113599900Y-91524300D01*
X113957300Y-112055300D02*
X113599900Y-112024400D01*
X114200100Y-144203900D02*
X113929700Y-144290100D01*
X114200100Y-160704600D02*
X113929700Y-160790600D01*
X114206700Y-150001600D02*
X114589300Y-150077600D01*
X114206700Y-166502600D02*
X114589300Y-166577600D01*
X114308000Y-91622300D02*
X113957300Y-91555300D01*
X114308000Y-112122300D02*
X113957300Y-112055300D01*
X114375600Y-98404900D02*
X114594700Y-98339000D01*
X114375600Y-118905000D02*
X114594700Y-118839000D01*
X114481300Y-144143100D02*
X114200100Y-144203900D01*
X114481300Y-160643600D02*
X114200100Y-160704600D01*
X114589300Y-150077600D02*
X114976900Y-150102600D01*
X114589300Y-166577600D02*
X114976900Y-166602600D01*
X114594700Y-98339000D02*
X114810100Y-98258400D01*
X114594700Y-118839000D02*
X114810100Y-118758400D01*
X114649200Y-91724300D02*
X114308000Y-91622300D01*
X114649200Y-112224300D02*
X114308000Y-112122300D01*
X114772000Y-144109100D02*
X114481300Y-144143100D01*
X114772000Y-160609600D02*
X114481300Y-160643600D01*
X114810100Y-98258400D02*
X115021200Y-98163200D01*
X114810100Y-118758400D02*
X115021200Y-118663200D01*
X114976900Y-150102600D02*
X115364600Y-150077600D01*
X114976900Y-166602600D02*
X115364600Y-166577600D01*
X114978200Y-91860500D02*
X114649200Y-91724300D01*
X114978200Y-112360500D02*
X114649200Y-112224300D01*
X115021200Y-98163200D02*
X115227000Y-98053300D01*
X115021200Y-118663200D02*
X115227000Y-118553300D01*
X115082000Y-144103900D02*
X114772000Y-144109100D01*
X115082000Y-160604600D02*
X114772000Y-160609600D01*
X115227000Y-98053300D02*
X115425100Y-97929900D01*
X115227000Y-118553300D02*
X115425100Y-118430000D01*
X115292500Y-92029800D02*
X114978200Y-91860500D01*
X115292500Y-112529800D02*
X114978200Y-112360500D01*
X115364600Y-150077600D02*
X115747100Y-150001600D01*
X115364600Y-166577600D02*
X115747100Y-166502600D01*
X115388400Y-144130400D02*
X115082000Y-144103900D01*
X115388400Y-160630600D02*
X115082000Y-160604600D01*
X115425100Y-97929900D02*
X115613100Y-97794800D01*
X115425100Y-118430000D02*
X115613100Y-118294800D01*
X115589300Y-92231400D02*
X115292500Y-92029800D01*
X115589300Y-112731400D02*
X115292500Y-112529800D01*
X115613100Y-97794800D02*
X115790700Y-97648500D01*
X115613100Y-118294800D02*
X115790700Y-118148600D01*
X115689000Y-144187800D02*
X115388400Y-144130400D01*
X115689000Y-160688600D02*
X115388400Y-160630600D01*
X115747100Y-150001600D02*
X116119600Y-149876600D01*
X115747100Y-166502600D02*
X116119600Y-166376600D01*
X115790700Y-97648500D02*
X115957300Y-97491700D01*
X115790700Y-118148600D02*
X115957300Y-117991800D01*
X115866000Y-92464300D02*
X115589300Y-92231400D01*
X115866000Y-112964300D02*
X115589300Y-112731400D01*
X115957300Y-97491700D02*
X116256600Y-97149100D01*
X115957300Y-117991800D02*
X116256600Y-117649200D01*
X115981500Y-144275200D02*
X115689000Y-144187800D01*
X115981500Y-160775600D02*
X115689000Y-160688600D01*
X116117200Y-92724400D02*
X115866000Y-92464300D01*
X116117200Y-113224500D02*
X115866000Y-112964300D01*
X116119600Y-149876600D02*
X116477000Y-149700600D01*
X116119600Y-166376600D02*
X116477000Y-166200600D01*
X116256600Y-97149100D02*
X116508100Y-96772200D01*
X116256600Y-117649200D02*
X116508100Y-117272200D01*
X116263600Y-144391900D02*
X115981500Y-144275200D01*
X116263600Y-160892600D02*
X115981500Y-160775600D01*
X116338600Y-93006800D02*
X116117200Y-92724400D01*
X116338600Y-113506800D02*
X116117200Y-113224500D01*
X116477000Y-149700600D02*
X116807900Y-149478600D01*
X116477000Y-166200600D02*
X116807900Y-165979600D01*
X116508100Y-96772200D02*
X116708900Y-96365900D01*
X116508100Y-117272200D02*
X116708900Y-116865900D01*
X116529000Y-93308800D02*
X116338600Y-93006800D01*
X116529000Y-113808800D02*
X116338600Y-113506800D01*
X116533000Y-144537100D02*
X116263600Y-144391900D01*
X116533000Y-161037600D02*
X116263600Y-160892600D01*
X116687300Y-93627800D02*
X116529000Y-93308800D01*
X116687300Y-114127800D02*
X116529000Y-113808800D01*
X116708900Y-96365900D02*
X116855900Y-95935400D01*
X116708900Y-116865900D02*
X116855900Y-116435400D01*
X116787400Y-144709900D02*
X116533000Y-144537100D01*
X116787400Y-161210600D02*
X116533000Y-161037600D01*
X116807900Y-149478600D02*
X117102900Y-149219600D01*
X116807900Y-165979600D02*
X117102900Y-165719600D01*
X116812400Y-93961200D02*
X116687300Y-93627800D01*
X116812400Y-114461200D02*
X116687300Y-114127800D01*
X116855900Y-95935400D02*
X116908400Y-95712600D01*
X116855900Y-116435400D02*
X116908400Y-116212700D01*
X116903100Y-94306400D02*
X116812400Y-93961200D01*
X116903100Y-114806500D02*
X116812400Y-114461200D01*
X116908400Y-95712600D02*
X116946300Y-95485700D01*
X116908400Y-116212700D02*
X116946300Y-115985800D01*
X116946300Y-95485700D02*
X116969300Y-95255400D01*
X116946300Y-115985800D02*
X116969300Y-115755400D01*
X116958400Y-94661000D02*
X116903100Y-94306400D01*
X116958400Y-115161000D02*
X116903100Y-114806500D01*
X116969300Y-95255400D02*
X116977100Y-95022100D01*
X116969300Y-115755400D02*
X116977100Y-115522200D01*
X116977100Y-95022100D02*
X116958400Y-94661000D01*
X116977100Y-115522200D02*
X116958400Y-115161000D01*
X117024600Y-144909500D02*
X116787400Y-144709900D01*
X117024600Y-161409600D02*
X116787400Y-161210600D01*
X117102900Y-149219600D02*
X117359500Y-148925600D01*
X117102900Y-165719600D02*
X117359500Y-165425600D01*
X117240000Y-145132500D02*
X117024600Y-144909500D01*
X117240000Y-161632600D02*
X117024600Y-161409600D01*
X117359500Y-148925600D02*
X117575100Y-148602300D01*
X117359500Y-165425600D02*
X117575100Y-165102600D01*
X117429700Y-145374600D02*
X117240000Y-145132500D01*
X117429700Y-161875600D02*
X117240000Y-161632600D01*
X117575100Y-148602300D02*
X117747100Y-148254300D01*
X117575100Y-165102600D02*
X117747100Y-164754600D01*
X117592900Y-145633400D02*
X117429700Y-145374600D01*
X117592900Y-162133600D02*
X117429700Y-161875600D01*
X117728600Y-145906900D02*
X117592900Y-145633400D01*
X117728600Y-162407600D02*
X117592900Y-162133600D01*
X117747100Y-148254300D02*
X117873100Y-147885300D01*
X117747100Y-164754600D02*
X117873100Y-164385600D01*
X117835900Y-146192700D02*
X117728600Y-145906900D01*
X117835900Y-162693600D02*
X117728600Y-162407600D01*
X117873100Y-147885300D02*
X117950600Y-147499500D01*
X117873100Y-164385600D02*
X117950600Y-164000600D01*
X117913600Y-146488600D02*
X117835900Y-146192700D01*
X117913600Y-162989600D02*
X117835900Y-162693600D01*
X117950600Y-147499500D02*
X117977000Y-147102200D01*
X117950600Y-164000600D02*
X117977000Y-163602600D01*
X117961000Y-146792500D02*
X117913600Y-146488600D01*
X117961000Y-163293600D02*
X117913600Y-162989600D01*
X117977000Y-147102200D02*
X117961000Y-146792500D01*
X117977000Y-163602600D02*
X117961000Y-163293600D01*
X119727000Y-49830600D02*
X119923000Y-49849600D01*
X119727000Y-178330600D02*
X71227000Y-178330600D01*
X119923000Y-49849600D02*
X120109700Y-49906600D01*
X119923000Y-178311208D02*
X119727000Y-178330600D01*
X120109700Y-49906600D02*
X120281800Y-49998600D01*
X120109700Y-178254479D02*
X119923000Y-178311208D01*
X120281800Y-49998600D02*
X120434100Y-50123600D01*
X120281800Y-178162588D02*
X120109700Y-178254479D01*
X120434100Y-50123600D02*
X120559000Y-50275600D01*
X120434100Y-178037707D02*
X120281800Y-178162588D01*
X120559000Y-50275600D02*
X120650900Y-50447600D01*
X120559000Y-177885401D02*
X120434100Y-178037707D01*
X120650900Y-50447600D02*
X120707600Y-50634600D01*
X120650900Y-177713283D02*
X120559000Y-177885401D01*
X120707600Y-50634600D02*
X120727000Y-50830600D01*
X120707600Y-177526601D02*
X120650900Y-177713283D01*
X120727000Y-50830600D02*
X120727000Y-177330600D01*
X120727000Y-177330600D02*
X120707600Y-177526601D01*
M02*
