G04 #@! TF.GenerationSoftware,KiCad,Pcbnew,10.0.3*
G04 #@! TF.CreationDate,2026-08-19T11:11:17+01:00*
G04 #@! TF.ProjectId,Ogham Panel Graphics (JLCPCB) v2,4f676861-6d20-4506-916e-656c20477261,2.0*
G04 #@! TF.SameCoordinates,Original*
G04 #@! TF.FileFunction,Copper,L1,Top*
G04 #@! TF.FilePolarity,Positive*
%FSLAX46Y46*%
G04 Gerber Fmt 4.6, Leading zero omitted, Abs format (unit mm)*
G04 Created by KiCad (PCBNEW 10.0.3) date 2026-08-19 11:11:17*
%MOMM*%
%LPD*%
G01*
G04 APERTURE LIST*
G04 #@! TA.AperFunction,EtchedComponent*
%ADD10C,0.010000*%
G04 #@! TD*
G04 APERTURE END LIST*
D10*
G04 #@! TO.C,G\u002A\u002A\u002A*
X89592746Y-174601392D02*
X89592786Y-174915550D01*
X89592918Y-175190158D01*
X89593205Y-175427998D01*
X89593710Y-175631853D01*
X89594497Y-175804506D01*
X89595627Y-175948739D01*
X89597163Y-176067336D01*
X89599170Y-176163079D01*
X89601709Y-176238750D01*
X89604844Y-176297134D01*
X89608638Y-176341011D01*
X89613153Y-176373166D01*
X89618453Y-176396381D01*
X89624600Y-176413438D01*
X89631658Y-176427121D01*
X89634143Y-176431281D01*
X89704577Y-176508169D01*
X89798719Y-176553958D01*
X89877366Y-176564600D01*
X89927918Y-176568424D01*
X89948806Y-176585721D01*
X89952500Y-176617517D01*
X89952500Y-176670434D01*
X88552556Y-176670434D01*
X88559320Y-176622809D01*
X88571318Y-176591568D01*
X88603547Y-176573818D01*
X88661334Y-176563629D01*
X88767397Y-176540404D01*
X88842808Y-176497925D01*
X88882498Y-176453893D01*
X88888609Y-176441462D01*
X88893924Y-176420951D01*
X88898497Y-176389580D01*
X88902383Y-176344570D01*
X88905636Y-176283142D01*
X88908308Y-176202516D01*
X88910456Y-176099913D01*
X88912132Y-175972553D01*
X88913390Y-175817657D01*
X88914284Y-175632446D01*
X88914869Y-175414139D01*
X88915199Y-175159958D01*
X88915326Y-174867123D01*
X88915334Y-174763578D01*
X88915334Y-173120143D01*
X88869446Y-173061806D01*
X88795213Y-172997560D01*
X88699105Y-172956156D01*
X88619680Y-172945100D01*
X88573986Y-172939547D01*
X88557126Y-172915844D01*
X88555500Y-172892184D01*
X88555500Y-172839267D01*
X89592667Y-172839267D01*
X89592746Y-174601392D01*
G04 #@! TA.AperFunction,EtchedComponent*
G36*
X89592746Y-174601392D02*
G01*
X89592786Y-174915550D01*
X89592918Y-175190158D01*
X89593205Y-175427998D01*
X89593710Y-175631853D01*
X89594497Y-175804506D01*
X89595627Y-175948739D01*
X89597163Y-176067336D01*
X89599170Y-176163079D01*
X89601709Y-176238750D01*
X89604844Y-176297134D01*
X89608638Y-176341011D01*
X89613153Y-176373166D01*
X89618453Y-176396381D01*
X89624600Y-176413438D01*
X89631658Y-176427121D01*
X89634143Y-176431281D01*
X89704577Y-176508169D01*
X89798719Y-176553958D01*
X89877366Y-176564600D01*
X89927918Y-176568424D01*
X89948806Y-176585721D01*
X89952500Y-176617517D01*
X89952500Y-176670434D01*
X88552556Y-176670434D01*
X88559320Y-176622809D01*
X88571318Y-176591568D01*
X88603547Y-176573818D01*
X88661334Y-176563629D01*
X88767397Y-176540404D01*
X88842808Y-176497925D01*
X88882498Y-176453893D01*
X88888609Y-176441462D01*
X88893924Y-176420951D01*
X88898497Y-176389580D01*
X88902383Y-176344570D01*
X88905636Y-176283142D01*
X88908308Y-176202516D01*
X88910456Y-176099913D01*
X88912132Y-175972553D01*
X88913390Y-175817657D01*
X88914284Y-175632446D01*
X88914869Y-175414139D01*
X88915199Y-175159958D01*
X88915326Y-174867123D01*
X88915334Y-174763578D01*
X88915334Y-173120143D01*
X88869446Y-173061806D01*
X88795213Y-172997560D01*
X88699105Y-172956156D01*
X88619680Y-172945100D01*
X88573986Y-172939547D01*
X88557126Y-172915844D01*
X88555500Y-172892184D01*
X88555500Y-172839267D01*
X89592667Y-172839267D01*
X89592746Y-174601392D01*
G37*
G04 #@! TD.AperFunction*
X91510804Y-173752539D02*
X91485351Y-173842659D01*
X91442042Y-173957055D01*
X91385929Y-174084405D01*
X91322065Y-174213386D01*
X91255501Y-174332675D01*
X91242233Y-174354495D01*
X91136879Y-174504048D01*
X91003799Y-174660905D01*
X90853552Y-174814304D01*
X90696699Y-174953485D01*
X90543800Y-175067688D01*
X90539722Y-175070392D01*
X90354360Y-175192874D01*
X90410817Y-175259612D01*
X90440481Y-175294912D01*
X90492555Y-175357125D01*
X90562352Y-175440642D01*
X90645186Y-175539853D01*
X90736368Y-175649146D01*
X90784900Y-175707350D01*
X90950852Y-175902833D01*
X91104258Y-176076361D01*
X91243079Y-176225877D01*
X91365279Y-176349324D01*
X91468821Y-176444643D01*
X91551666Y-176509778D01*
X91611777Y-176542671D01*
X91612187Y-176542807D01*
X91696145Y-176558581D01*
X91793755Y-176559448D01*
X91806719Y-176558287D01*
X91873109Y-176553310D01*
X91909358Y-176557950D01*
X91927125Y-176575140D01*
X91932937Y-176590033D01*
X91936884Y-176622170D01*
X91920566Y-176647197D01*
X91877299Y-176670061D01*
X91800402Y-176695710D01*
X91783417Y-176700729D01*
X91574433Y-176749059D01*
X91372778Y-176771119D01*
X91187226Y-176766406D01*
X91053883Y-176742387D01*
X90878134Y-176675476D01*
X90697754Y-176568795D01*
X90515321Y-176424291D01*
X90333417Y-176243906D01*
X90223274Y-176116419D01*
X90147649Y-176021831D01*
X90066717Y-175916976D01*
X89984407Y-175807353D01*
X89904647Y-175698462D01*
X89831367Y-175595805D01*
X89768495Y-175504881D01*
X89719961Y-175431191D01*
X89689694Y-175380234D01*
X89681439Y-175357886D01*
X89698812Y-175337997D01*
X89742037Y-175295736D01*
X89805192Y-175236705D01*
X89882356Y-175166505D01*
X89909320Y-175142347D01*
X90065988Y-174994832D01*
X90213901Y-174840846D01*
X90349777Y-174684904D01*
X90470334Y-174531520D01*
X90572290Y-174385209D01*
X90652363Y-174250485D01*
X90707271Y-174131862D01*
X90733733Y-174033856D01*
X90735667Y-174005639D01*
X90716164Y-173940224D01*
X90664156Y-173879266D01*
X90589394Y-173829772D01*
X90501631Y-173798745D01*
X90437956Y-173791767D01*
X90393212Y-173785767D01*
X90377136Y-173760481D01*
X90375834Y-173738850D01*
X90375834Y-173685934D01*
X91524125Y-173685934D01*
X91510804Y-173752539D01*
G04 #@! TA.AperFunction,EtchedComponent*
G36*
X91510804Y-173752539D02*
G01*
X91485351Y-173842659D01*
X91442042Y-173957055D01*
X91385929Y-174084405D01*
X91322065Y-174213386D01*
X91255501Y-174332675D01*
X91242233Y-174354495D01*
X91136879Y-174504048D01*
X91003799Y-174660905D01*
X90853552Y-174814304D01*
X90696699Y-174953485D01*
X90543800Y-175067688D01*
X90539722Y-175070392D01*
X90354360Y-175192874D01*
X90410817Y-175259612D01*
X90440481Y-175294912D01*
X90492555Y-175357125D01*
X90562352Y-175440642D01*
X90645186Y-175539853D01*
X90736368Y-175649146D01*
X90784900Y-175707350D01*
X90950852Y-175902833D01*
X91104258Y-176076361D01*
X91243079Y-176225877D01*
X91365279Y-176349324D01*
X91468821Y-176444643D01*
X91551666Y-176509778D01*
X91611777Y-176542671D01*
X91612187Y-176542807D01*
X91696145Y-176558581D01*
X91793755Y-176559448D01*
X91806719Y-176558287D01*
X91873109Y-176553310D01*
X91909358Y-176557950D01*
X91927125Y-176575140D01*
X91932937Y-176590033D01*
X91936884Y-176622170D01*
X91920566Y-176647197D01*
X91877299Y-176670061D01*
X91800402Y-176695710D01*
X91783417Y-176700729D01*
X91574433Y-176749059D01*
X91372778Y-176771119D01*
X91187226Y-176766406D01*
X91053883Y-176742387D01*
X90878134Y-176675476D01*
X90697754Y-176568795D01*
X90515321Y-176424291D01*
X90333417Y-176243906D01*
X90223274Y-176116419D01*
X90147649Y-176021831D01*
X90066717Y-175916976D01*
X89984407Y-175807353D01*
X89904647Y-175698462D01*
X89831367Y-175595805D01*
X89768495Y-175504881D01*
X89719961Y-175431191D01*
X89689694Y-175380234D01*
X89681439Y-175357886D01*
X89698812Y-175337997D01*
X89742037Y-175295736D01*
X89805192Y-175236705D01*
X89882356Y-175166505D01*
X89909320Y-175142347D01*
X90065988Y-174994832D01*
X90213901Y-174840846D01*
X90349777Y-174684904D01*
X90470334Y-174531520D01*
X90572290Y-174385209D01*
X90652363Y-174250485D01*
X90707271Y-174131862D01*
X90733733Y-174033856D01*
X90735667Y-174005639D01*
X90716164Y-173940224D01*
X90664156Y-173879266D01*
X90589394Y-173829772D01*
X90501631Y-173798745D01*
X90437956Y-173791767D01*
X90393212Y-173785767D01*
X90377136Y-173760481D01*
X90375834Y-173738850D01*
X90375834Y-173685934D01*
X91524125Y-173685934D01*
X91510804Y-173752539D01*
G37*
G04 #@! TD.AperFunction*
X98977109Y-174379854D02*
X99203136Y-174427974D01*
X99403825Y-174508561D01*
X99580741Y-174622185D01*
X99680538Y-174710828D01*
X99816241Y-174874852D01*
X99915526Y-175059916D01*
X99978567Y-175266474D01*
X100005539Y-175494980D01*
X100006667Y-175555778D01*
X99986752Y-175780123D01*
X99927792Y-175990345D01*
X99830961Y-176183532D01*
X99697435Y-176356776D01*
X99672883Y-176382309D01*
X99520943Y-176506851D01*
X99340439Y-176605635D01*
X99137519Y-176677140D01*
X98918331Y-176719843D01*
X98689020Y-176732220D01*
X98455736Y-176712749D01*
X98387417Y-176700771D01*
X98248907Y-176662062D01*
X98102519Y-176601860D01*
X97962687Y-176527371D01*
X97843842Y-176445803D01*
X97799434Y-176407160D01*
X97655322Y-176241430D01*
X97547077Y-176058350D01*
X97474748Y-175862877D01*
X97438386Y-175659970D01*
X97438231Y-175567248D01*
X98081239Y-175567248D01*
X98093423Y-175798305D01*
X98127482Y-176004037D01*
X98182313Y-176181742D01*
X98256816Y-176328721D01*
X98349889Y-176442274D01*
X98460431Y-176519700D01*
X98471902Y-176525125D01*
X98567619Y-176552847D01*
X98684228Y-176563961D01*
X98803827Y-176558472D01*
X98908516Y-176536386D01*
X98937750Y-176524997D01*
X99056261Y-176447841D01*
X99159286Y-176332399D01*
X99245792Y-176180175D01*
X99314744Y-175992673D01*
X99322408Y-175965623D01*
X99341907Y-175863419D01*
X99354590Y-175731913D01*
X99360469Y-175583428D01*
X99359555Y-175430288D01*
X99351857Y-175284818D01*
X99337386Y-175159341D01*
X99321663Y-175084203D01*
X99264209Y-174913532D01*
X99195531Y-174779239D01*
X99112148Y-174676080D01*
X99010575Y-174598814D01*
X98992208Y-174588398D01*
X98919942Y-174553879D01*
X98852336Y-174535685D01*
X98769451Y-174529213D01*
X98734403Y-174528865D01*
X98576736Y-174547236D01*
X98440119Y-174601960D01*
X98324920Y-174692457D01*
X98231504Y-174818145D01*
X98160237Y-174978443D01*
X98111483Y-175172769D01*
X98085610Y-175400541D01*
X98081239Y-175567248D01*
X97438231Y-175567248D01*
X97438041Y-175454589D01*
X97473763Y-175251691D01*
X97545602Y-175056237D01*
X97653609Y-174873185D01*
X97782390Y-174722535D01*
X97952014Y-174580738D01*
X98139259Y-174475215D01*
X98346678Y-174404994D01*
X98576823Y-174369103D01*
X98724178Y-174363634D01*
X98977109Y-174379854D01*
G04 #@! TA.AperFunction,EtchedComponent*
G36*
X98977109Y-174379854D02*
G01*
X99203136Y-174427974D01*
X99403825Y-174508561D01*
X99580741Y-174622185D01*
X99680538Y-174710828D01*
X99816241Y-174874852D01*
X99915526Y-175059916D01*
X99978567Y-175266474D01*
X100005539Y-175494980D01*
X100006667Y-175555778D01*
X99986752Y-175780123D01*
X99927792Y-175990345D01*
X99830961Y-176183532D01*
X99697435Y-176356776D01*
X99672883Y-176382309D01*
X99520943Y-176506851D01*
X99340439Y-176605635D01*
X99137519Y-176677140D01*
X98918331Y-176719843D01*
X98689020Y-176732220D01*
X98455736Y-176712749D01*
X98387417Y-176700771D01*
X98248907Y-176662062D01*
X98102519Y-176601860D01*
X97962687Y-176527371D01*
X97843842Y-176445803D01*
X97799434Y-176407160D01*
X97655322Y-176241430D01*
X97547077Y-176058350D01*
X97474748Y-175862877D01*
X97438386Y-175659970D01*
X97438231Y-175567248D01*
X98081239Y-175567248D01*
X98093423Y-175798305D01*
X98127482Y-176004037D01*
X98182313Y-176181742D01*
X98256816Y-176328721D01*
X98349889Y-176442274D01*
X98460431Y-176519700D01*
X98471902Y-176525125D01*
X98567619Y-176552847D01*
X98684228Y-176563961D01*
X98803827Y-176558472D01*
X98908516Y-176536386D01*
X98937750Y-176524997D01*
X99056261Y-176447841D01*
X99159286Y-176332399D01*
X99245792Y-176180175D01*
X99314744Y-175992673D01*
X99322408Y-175965623D01*
X99341907Y-175863419D01*
X99354590Y-175731913D01*
X99360469Y-175583428D01*
X99359555Y-175430288D01*
X99351857Y-175284818D01*
X99337386Y-175159341D01*
X99321663Y-175084203D01*
X99264209Y-174913532D01*
X99195531Y-174779239D01*
X99112148Y-174676080D01*
X99010575Y-174598814D01*
X98992208Y-174588398D01*
X98919942Y-174553879D01*
X98852336Y-174535685D01*
X98769451Y-174529213D01*
X98734403Y-174528865D01*
X98576736Y-174547236D01*
X98440119Y-174601960D01*
X98324920Y-174692457D01*
X98231504Y-174818145D01*
X98160237Y-174978443D01*
X98111483Y-175172769D01*
X98085610Y-175400541D01*
X98081239Y-175567248D01*
X97438231Y-175567248D01*
X97438041Y-175454589D01*
X97473763Y-175251691D01*
X97545602Y-175056237D01*
X97653609Y-174873185D01*
X97782390Y-174722535D01*
X97952014Y-174580738D01*
X98139259Y-174475215D01*
X98346678Y-174404994D01*
X98576823Y-174369103D01*
X98724178Y-174363634D01*
X98977109Y-174379854D01*
G37*
G04 #@! TD.AperFunction*
X77582392Y-159123282D02*
X77904432Y-159123551D01*
X78193660Y-159124051D01*
X78451981Y-159124846D01*
X78681298Y-159125997D01*
X78883516Y-159127567D01*
X79060539Y-159129619D01*
X79214270Y-159132215D01*
X79346616Y-159135418D01*
X79459479Y-159139291D01*
X79554764Y-159143896D01*
X79634376Y-159149295D01*
X79700218Y-159155552D01*
X79754194Y-159162728D01*
X79798210Y-159170887D01*
X79834169Y-159180092D01*
X79863975Y-159190403D01*
X79889533Y-159201885D01*
X79912747Y-159214600D01*
X79935521Y-159228610D01*
X79959760Y-159243978D01*
X79980081Y-159256455D01*
X80129253Y-159369763D01*
X80249887Y-159512577D01*
X80339632Y-159681144D01*
X80396141Y-159871708D01*
X80407103Y-159938849D01*
X80410353Y-159984055D01*
X80413265Y-160068089D01*
X80415840Y-160191237D01*
X80418081Y-160353787D01*
X80419986Y-160556024D01*
X80421559Y-160798236D01*
X80422801Y-161080710D01*
X80423711Y-161403732D01*
X80424293Y-161767590D01*
X80424546Y-162172569D01*
X80424473Y-162618958D01*
X80424073Y-163107042D01*
X80423350Y-163637109D01*
X80423148Y-163758767D01*
X80416917Y-167410017D01*
X80367869Y-167531463D01*
X80272980Y-167716214D01*
X80150383Y-167871616D01*
X80002645Y-167994994D01*
X79842108Y-168079796D01*
X79718417Y-168129684D01*
X75940167Y-168133956D01*
X75470350Y-168134474D01*
X75040979Y-168134907D01*
X74650170Y-168135237D01*
X74296034Y-168135450D01*
X73976685Y-168135527D01*
X73690238Y-168135451D01*
X73434805Y-168135207D01*
X73208500Y-168134777D01*
X73009438Y-168134145D01*
X72835730Y-168133293D01*
X72685491Y-168132205D01*
X72556835Y-168130865D01*
X72447875Y-168129254D01*
X72356724Y-168127358D01*
X72281496Y-168125158D01*
X72220305Y-168122639D01*
X72171264Y-168119782D01*
X72132487Y-168116573D01*
X72102087Y-168112993D01*
X72078178Y-168109026D01*
X72058873Y-168104655D01*
X72042287Y-168099864D01*
X72040461Y-168099283D01*
X71858334Y-168020096D01*
X71703066Y-167908252D01*
X71575476Y-167764469D01*
X71487509Y-167613712D01*
X71421084Y-167473517D01*
X71421084Y-159790017D01*
X71488999Y-159646637D01*
X71587109Y-159485882D01*
X71715088Y-159349174D01*
X71866566Y-159241520D01*
X72035173Y-159167926D01*
X72127764Y-159144730D01*
X72165609Y-159141687D01*
X72245353Y-159138867D01*
X72366560Y-159136273D01*
X72528796Y-159133907D01*
X72731627Y-159131772D01*
X72974618Y-159129869D01*
X73257335Y-159128202D01*
X73579342Y-159126773D01*
X73940206Y-159125583D01*
X74339492Y-159124637D01*
X74776765Y-159123936D01*
X75251591Y-159123482D01*
X75763535Y-159123279D01*
X75928025Y-159123267D01*
X76400356Y-159123236D01*
X76832258Y-159123187D01*
X77225635Y-159123181D01*
X77582392Y-159123282D01*
G04 #@! TA.AperFunction,EtchedComponent*
G36*
X77582392Y-159123282D02*
G01*
X77904432Y-159123551D01*
X78193660Y-159124051D01*
X78451981Y-159124846D01*
X78681298Y-159125997D01*
X78883516Y-159127567D01*
X79060539Y-159129619D01*
X79214270Y-159132215D01*
X79346616Y-159135418D01*
X79459479Y-159139291D01*
X79554764Y-159143896D01*
X79634376Y-159149295D01*
X79700218Y-159155552D01*
X79754194Y-159162728D01*
X79798210Y-159170887D01*
X79834169Y-159180092D01*
X79863975Y-159190403D01*
X79889533Y-159201885D01*
X79912747Y-159214600D01*
X79935521Y-159228610D01*
X79959760Y-159243978D01*
X79980081Y-159256455D01*
X80129253Y-159369763D01*
X80249887Y-159512577D01*
X80339632Y-159681144D01*
X80396141Y-159871708D01*
X80407103Y-159938849D01*
X80410353Y-159984055D01*
X80413265Y-160068089D01*
X80415840Y-160191237D01*
X80418081Y-160353787D01*
X80419986Y-160556024D01*
X80421559Y-160798236D01*
X80422801Y-161080710D01*
X80423711Y-161403732D01*
X80424293Y-161767590D01*
X80424546Y-162172569D01*
X80424473Y-162618958D01*
X80424073Y-163107042D01*
X80423350Y-163637109D01*
X80423148Y-163758767D01*
X80416917Y-167410017D01*
X80367869Y-167531463D01*
X80272980Y-167716214D01*
X80150383Y-167871616D01*
X80002645Y-167994994D01*
X79842108Y-168079796D01*
X79718417Y-168129684D01*
X75940167Y-168133956D01*
X75470350Y-168134474D01*
X75040979Y-168134907D01*
X74650170Y-168135237D01*
X74296034Y-168135450D01*
X73976685Y-168135527D01*
X73690238Y-168135451D01*
X73434805Y-168135207D01*
X73208500Y-168134777D01*
X73009438Y-168134145D01*
X72835730Y-168133293D01*
X72685491Y-168132205D01*
X72556835Y-168130865D01*
X72447875Y-168129254D01*
X72356724Y-168127358D01*
X72281496Y-168125158D01*
X72220305Y-168122639D01*
X72171264Y-168119782D01*
X72132487Y-168116573D01*
X72102087Y-168112993D01*
X72078178Y-168109026D01*
X72058873Y-168104655D01*
X72042287Y-168099864D01*
X72040461Y-168099283D01*
X71858334Y-168020096D01*
X71703066Y-167908252D01*
X71575476Y-167764469D01*
X71487509Y-167613712D01*
X71421084Y-167473517D01*
X71421084Y-159790017D01*
X71488999Y-159646637D01*
X71587109Y-159485882D01*
X71715088Y-159349174D01*
X71866566Y-159241520D01*
X72035173Y-159167926D01*
X72127764Y-159144730D01*
X72165609Y-159141687D01*
X72245353Y-159138867D01*
X72366560Y-159136273D01*
X72528796Y-159133907D01*
X72731627Y-159131772D01*
X72974618Y-159129869D01*
X73257335Y-159128202D01*
X73579342Y-159126773D01*
X73940206Y-159125583D01*
X74339492Y-159124637D01*
X74776765Y-159123936D01*
X75251591Y-159123482D01*
X75763535Y-159123279D01*
X75928025Y-159123267D01*
X76400356Y-159123236D01*
X76832258Y-159123187D01*
X77225635Y-159123181D01*
X77582392Y-159123282D01*
G37*
G04 #@! TD.AperFunction*
X103972195Y-159126167D02*
X104285563Y-159126651D01*
X104563931Y-159127404D01*
X104808522Y-159128430D01*
X105020558Y-159129735D01*
X105201260Y-159131326D01*
X105351852Y-159133208D01*
X105473555Y-159135386D01*
X105567591Y-159137866D01*
X105635183Y-159140655D01*
X105677552Y-159143757D01*
X105689917Y-159145475D01*
X105876241Y-159201742D01*
X106043027Y-159294275D01*
X106186154Y-159419915D01*
X106301503Y-159575502D01*
X106337209Y-159641850D01*
X106409584Y-159790017D01*
X106409584Y-167473517D01*
X106343748Y-167611100D01*
X106241531Y-167780971D01*
X106113038Y-167920297D01*
X105993914Y-168007079D01*
X105967460Y-168023434D01*
X105943908Y-168038397D01*
X105921365Y-168052030D01*
X105897937Y-168064395D01*
X105871731Y-168075551D01*
X105840854Y-168085561D01*
X105803413Y-168094485D01*
X105757515Y-168102384D01*
X105701266Y-168109320D01*
X105632773Y-168115354D01*
X105550142Y-168120546D01*
X105451482Y-168124958D01*
X105334898Y-168128651D01*
X105198496Y-168131686D01*
X105040385Y-168134124D01*
X104858671Y-168136026D01*
X104651460Y-168137453D01*
X104416859Y-168138467D01*
X104152975Y-168139128D01*
X103857915Y-168139498D01*
X103529786Y-168139637D01*
X103166694Y-168139607D01*
X102766746Y-168139469D01*
X102328049Y-168139284D01*
X101901928Y-168139129D01*
X101435296Y-168138971D01*
X101009098Y-168138783D01*
X100621436Y-168138546D01*
X100270411Y-168138239D01*
X99954123Y-168137843D01*
X99670676Y-168137338D01*
X99418168Y-168136706D01*
X99194703Y-168135925D01*
X98998380Y-168134977D01*
X98827302Y-168133841D01*
X98679568Y-168132499D01*
X98553282Y-168130931D01*
X98446543Y-168129117D01*
X98357452Y-168127037D01*
X98284112Y-168124672D01*
X98224623Y-168122002D01*
X98177087Y-168119008D01*
X98139604Y-168115670D01*
X98110276Y-168111969D01*
X98087205Y-168107884D01*
X98068490Y-168103396D01*
X98055051Y-168099398D01*
X97871814Y-168019998D01*
X97715237Y-167908991D01*
X97588032Y-167769485D01*
X97492910Y-167604588D01*
X97432581Y-167417405D01*
X97424853Y-167377122D01*
X97421617Y-167342826D01*
X97418701Y-167279041D01*
X97416102Y-167184825D01*
X97413813Y-167059233D01*
X97411833Y-166901324D01*
X97410155Y-166710152D01*
X97408776Y-166484776D01*
X97407692Y-166224251D01*
X97406898Y-165927635D01*
X97406391Y-165593983D01*
X97406165Y-165222353D01*
X97406217Y-164811801D01*
X97406543Y-164361384D01*
X97407138Y-163870159D01*
X97407636Y-163547100D01*
X97413750Y-159853517D01*
X97465548Y-159721359D01*
X97556884Y-159544340D01*
X97680871Y-159391381D01*
X97832942Y-159267135D01*
X97995834Y-159181324D01*
X98112250Y-159133850D01*
X101837584Y-159127570D01*
X102344282Y-159126799D01*
X102809871Y-159126267D01*
X103235571Y-159125981D01*
X103622605Y-159125946D01*
X103972195Y-159126167D01*
G04 #@! TA.AperFunction,EtchedComponent*
G36*
X103972195Y-159126167D02*
G01*
X104285563Y-159126651D01*
X104563931Y-159127404D01*
X104808522Y-159128430D01*
X105020558Y-159129735D01*
X105201260Y-159131326D01*
X105351852Y-159133208D01*
X105473555Y-159135386D01*
X105567591Y-159137866D01*
X105635183Y-159140655D01*
X105677552Y-159143757D01*
X105689917Y-159145475D01*
X105876241Y-159201742D01*
X106043027Y-159294275D01*
X106186154Y-159419915D01*
X106301503Y-159575502D01*
X106337209Y-159641850D01*
X106409584Y-159790017D01*
X106409584Y-167473517D01*
X106343748Y-167611100D01*
X106241531Y-167780971D01*
X106113038Y-167920297D01*
X105993914Y-168007079D01*
X105967460Y-168023434D01*
X105943908Y-168038397D01*
X105921365Y-168052030D01*
X105897937Y-168064395D01*
X105871731Y-168075551D01*
X105840854Y-168085561D01*
X105803413Y-168094485D01*
X105757515Y-168102384D01*
X105701266Y-168109320D01*
X105632773Y-168115354D01*
X105550142Y-168120546D01*
X105451482Y-168124958D01*
X105334898Y-168128651D01*
X105198496Y-168131686D01*
X105040385Y-168134124D01*
X104858671Y-168136026D01*
X104651460Y-168137453D01*
X104416859Y-168138467D01*
X104152975Y-168139128D01*
X103857915Y-168139498D01*
X103529786Y-168139637D01*
X103166694Y-168139607D01*
X102766746Y-168139469D01*
X102328049Y-168139284D01*
X101901928Y-168139129D01*
X101435296Y-168138971D01*
X101009098Y-168138783D01*
X100621436Y-168138546D01*
X100270411Y-168138239D01*
X99954123Y-168137843D01*
X99670676Y-168137338D01*
X99418168Y-168136706D01*
X99194703Y-168135925D01*
X98998380Y-168134977D01*
X98827302Y-168133841D01*
X98679568Y-168132499D01*
X98553282Y-168130931D01*
X98446543Y-168129117D01*
X98357452Y-168127037D01*
X98284112Y-168124672D01*
X98224623Y-168122002D01*
X98177087Y-168119008D01*
X98139604Y-168115670D01*
X98110276Y-168111969D01*
X98087205Y-168107884D01*
X98068490Y-168103396D01*
X98055051Y-168099398D01*
X97871814Y-168019998D01*
X97715237Y-167908991D01*
X97588032Y-167769485D01*
X97492910Y-167604588D01*
X97432581Y-167417405D01*
X97424853Y-167377122D01*
X97421617Y-167342826D01*
X97418701Y-167279041D01*
X97416102Y-167184825D01*
X97413813Y-167059233D01*
X97411833Y-166901324D01*
X97410155Y-166710152D01*
X97408776Y-166484776D01*
X97407692Y-166224251D01*
X97406898Y-165927635D01*
X97406391Y-165593983D01*
X97406165Y-165222353D01*
X97406217Y-164811801D01*
X97406543Y-164361384D01*
X97407138Y-163870159D01*
X97407636Y-163547100D01*
X97413750Y-159853517D01*
X97465548Y-159721359D01*
X97556884Y-159544340D01*
X97680871Y-159391381D01*
X97832942Y-159267135D01*
X97995834Y-159181324D01*
X98112250Y-159133850D01*
X101837584Y-159127570D01*
X102344282Y-159126799D01*
X102809871Y-159126267D01*
X103235571Y-159125981D01*
X103622605Y-159125946D01*
X103972195Y-159126167D01*
G37*
G04 #@! TD.AperFunction*
X93422363Y-174379566D02*
X93649390Y-174426130D01*
X93848226Y-174502794D01*
X94018086Y-174609029D01*
X94158188Y-174744303D01*
X94267746Y-174908085D01*
X94345978Y-175099846D01*
X94366188Y-175175055D01*
X94379210Y-175224300D01*
X94390598Y-175265009D01*
X94396882Y-175297988D01*
X94394593Y-175324038D01*
X94380261Y-175343964D01*
X94350415Y-175358570D01*
X94301586Y-175368657D01*
X94230304Y-175375031D01*
X94133099Y-175378493D01*
X94006501Y-175379848D01*
X93847040Y-175379899D01*
X93651247Y-175379450D01*
X93484192Y-175379267D01*
X92570885Y-175379267D01*
X92583723Y-175670309D01*
X92590816Y-175788261D01*
X92600964Y-175901318D01*
X92612881Y-175997503D01*
X92625277Y-176064842D01*
X92626799Y-176070646D01*
X92689682Y-176242426D01*
X92773318Y-176379826D01*
X92876630Y-176481394D01*
X92971823Y-176535498D01*
X93055654Y-176556483D01*
X93161943Y-176563923D01*
X93273185Y-176558233D01*
X93371872Y-176539831D01*
X93413250Y-176524997D01*
X93507683Y-176463864D01*
X93599109Y-176372746D01*
X93677146Y-176263346D01*
X93718986Y-176180381D01*
X93768205Y-176061631D01*
X94019353Y-176145645D01*
X94114650Y-176178793D01*
X94193339Y-176208581D01*
X94247771Y-176231936D01*
X94270297Y-176245787D01*
X94270500Y-176246536D01*
X94254845Y-176272766D01*
X94213213Y-176317311D01*
X94153609Y-176373237D01*
X94084035Y-176433607D01*
X94012494Y-176491487D01*
X93946989Y-176539943D01*
X93895523Y-176572039D01*
X93893934Y-176572851D01*
X93721439Y-176646840D01*
X93543182Y-176694795D01*
X93345767Y-176719892D01*
X93254500Y-176724362D01*
X93144736Y-176725674D01*
X93039017Y-176723494D01*
X92951255Y-176718286D01*
X92905661Y-176712688D01*
X92722051Y-176664157D01*
X92542803Y-176588067D01*
X92378349Y-176490235D01*
X92239122Y-176376475D01*
X92173161Y-176304398D01*
X92068328Y-176146990D01*
X91984941Y-175966965D01*
X91927795Y-175777615D01*
X91901685Y-175592235D01*
X91900569Y-175548600D01*
X91918358Y-175362153D01*
X91952943Y-175231100D01*
X92582085Y-175231100D01*
X93734515Y-175231100D01*
X93714500Y-175098860D01*
X93673144Y-174918092D01*
X93609185Y-174769443D01*
X93523673Y-174654633D01*
X93417660Y-174575380D01*
X93385226Y-174560121D01*
X93323883Y-174543573D01*
X93240301Y-174532242D01*
X93168026Y-174528865D01*
X93017854Y-174544359D01*
X92891891Y-174591763D01*
X92788746Y-174672460D01*
X92707028Y-174787833D01*
X92645345Y-174939265D01*
X92610265Y-175083206D01*
X92582085Y-175231100D01*
X91952943Y-175231100D01*
X91968606Y-175171749D01*
X92046628Y-174988422D01*
X92147741Y-174823206D01*
X92265478Y-174688795D01*
X92423123Y-174561675D01*
X92590177Y-174468027D01*
X92773243Y-174405471D01*
X92978921Y-174371629D01*
X93167928Y-174363634D01*
X93422363Y-174379566D01*
G04 #@! TA.AperFunction,EtchedComponent*
G36*
X93422363Y-174379566D02*
G01*
X93649390Y-174426130D01*
X93848226Y-174502794D01*
X94018086Y-174609029D01*
X94158188Y-174744303D01*
X94267746Y-174908085D01*
X94345978Y-175099846D01*
X94366188Y-175175055D01*
X94379210Y-175224300D01*
X94390598Y-175265009D01*
X94396882Y-175297988D01*
X94394593Y-175324038D01*
X94380261Y-175343964D01*
X94350415Y-175358570D01*
X94301586Y-175368657D01*
X94230304Y-175375031D01*
X94133099Y-175378493D01*
X94006501Y-175379848D01*
X93847040Y-175379899D01*
X93651247Y-175379450D01*
X93484192Y-175379267D01*
X92570885Y-175379267D01*
X92583723Y-175670309D01*
X92590816Y-175788261D01*
X92600964Y-175901318D01*
X92612881Y-175997503D01*
X92625277Y-176064842D01*
X92626799Y-176070646D01*
X92689682Y-176242426D01*
X92773318Y-176379826D01*
X92876630Y-176481394D01*
X92971823Y-176535498D01*
X93055654Y-176556483D01*
X93161943Y-176563923D01*
X93273185Y-176558233D01*
X93371872Y-176539831D01*
X93413250Y-176524997D01*
X93507683Y-176463864D01*
X93599109Y-176372746D01*
X93677146Y-176263346D01*
X93718986Y-176180381D01*
X93768205Y-176061631D01*
X94019353Y-176145645D01*
X94114650Y-176178793D01*
X94193339Y-176208581D01*
X94247771Y-176231936D01*
X94270297Y-176245787D01*
X94270500Y-176246536D01*
X94254845Y-176272766D01*
X94213213Y-176317311D01*
X94153609Y-176373237D01*
X94084035Y-176433607D01*
X94012494Y-176491487D01*
X93946989Y-176539943D01*
X93895523Y-176572039D01*
X93893934Y-176572851D01*
X93721439Y-176646840D01*
X93543182Y-176694795D01*
X93345767Y-176719892D01*
X93254500Y-176724362D01*
X93144736Y-176725674D01*
X93039017Y-176723494D01*
X92951255Y-176718286D01*
X92905661Y-176712688D01*
X92722051Y-176664157D01*
X92542803Y-176588067D01*
X92378349Y-176490235D01*
X92239122Y-176376475D01*
X92173161Y-176304398D01*
X92068328Y-176146990D01*
X91984941Y-175966965D01*
X91927795Y-175777615D01*
X91901685Y-175592235D01*
X91900569Y-175548600D01*
X91918358Y-175362153D01*
X91952943Y-175231100D01*
X92582085Y-175231100D01*
X93734515Y-175231100D01*
X93714500Y-175098860D01*
X93673144Y-174918092D01*
X93609185Y-174769443D01*
X93523673Y-174654633D01*
X93417660Y-174575380D01*
X93385226Y-174560121D01*
X93323883Y-174543573D01*
X93240301Y-174532242D01*
X93168026Y-174528865D01*
X93017854Y-174544359D01*
X92891891Y-174591763D01*
X92788746Y-174672460D01*
X92707028Y-174787833D01*
X92645345Y-174939265D01*
X92610265Y-175083206D01*
X92582085Y-175231100D01*
X91952943Y-175231100D01*
X91968606Y-175171749D01*
X92046628Y-174988422D01*
X92147741Y-174823206D01*
X92265478Y-174688795D01*
X92423123Y-174561675D01*
X92590177Y-174468027D01*
X92773243Y-174405471D01*
X92978921Y-174371629D01*
X93167928Y-174363634D01*
X93422363Y-174379566D01*
G37*
G04 #@! TD.AperFunction*
X96166635Y-174376874D02*
X96387589Y-174418270D01*
X96581246Y-174488321D01*
X96750291Y-174587892D01*
X96839505Y-174660775D01*
X96961916Y-174795100D01*
X97053352Y-174948286D01*
X97116997Y-175126651D01*
X97146860Y-175270766D01*
X97163941Y-175378822D01*
X95339417Y-175389850D01*
X95345998Y-175633267D01*
X95360096Y-175857571D01*
X95389946Y-176045776D01*
X95436638Y-176201498D01*
X95501258Y-176328350D01*
X95584894Y-176429947D01*
X95586235Y-176431236D01*
X95685691Y-176505942D01*
X95799320Y-176549159D01*
X95936967Y-176564466D01*
X95953274Y-176564600D01*
X96097968Y-176549084D01*
X96221675Y-176500945D01*
X96327737Y-176417793D01*
X96419497Y-176297241D01*
X96476316Y-176190797D01*
X96537540Y-176060411D01*
X96773282Y-176139334D01*
X96866590Y-176172533D01*
X96944080Y-176203807D01*
X96997417Y-176229540D01*
X97018131Y-176245577D01*
X97008349Y-176276135D01*
X96970577Y-176323634D01*
X96912117Y-176381638D01*
X96840270Y-176443708D01*
X96762340Y-176503409D01*
X96685628Y-176554301D01*
X96638373Y-176580353D01*
X96545947Y-176621541D01*
X96445558Y-176659780D01*
X96375853Y-176681879D01*
X96259074Y-176704781D01*
X96115648Y-176719506D01*
X95960493Y-176725691D01*
X95808530Y-176722973D01*
X95674678Y-176710990D01*
X95614584Y-176700406D01*
X95402073Y-176633929D01*
X95209043Y-176534594D01*
X95040104Y-176405915D01*
X94899866Y-176251405D01*
X94792940Y-176074576D01*
X94792825Y-176074333D01*
X94725698Y-175909317D01*
X94687330Y-175750787D01*
X94673269Y-175578981D01*
X94672980Y-175542267D01*
X94692779Y-175324294D01*
X94724386Y-175208820D01*
X95350000Y-175208820D01*
X95369690Y-175216467D01*
X95429151Y-175222487D01*
X95528968Y-175226903D01*
X95669726Y-175229739D01*
X95852011Y-175231017D01*
X95921500Y-175231100D01*
X96092180Y-175230934D01*
X96225179Y-175230236D01*
X96325152Y-175228703D01*
X96396750Y-175226033D01*
X96444627Y-175221926D01*
X96473434Y-175216078D01*
X96487826Y-175208189D01*
X96492454Y-175197957D01*
X96492633Y-175194059D01*
X96488204Y-175155073D01*
X96476992Y-175089437D01*
X96462458Y-175016386D01*
X96413427Y-174849615D01*
X96343878Y-174719268D01*
X96252191Y-174623889D01*
X96136748Y-174562024D01*
X95995929Y-174532215D01*
X95920271Y-174528865D01*
X95771468Y-174548070D01*
X95641215Y-174604161D01*
X95533311Y-174694854D01*
X95456592Y-174807767D01*
X95435873Y-174859496D01*
X95411440Y-174936416D01*
X95387000Y-175024573D01*
X95366263Y-175110012D01*
X95352937Y-175178780D01*
X95350000Y-175208820D01*
X94724386Y-175208820D01*
X94749338Y-175117665D01*
X94839761Y-174927339D01*
X94961154Y-174758279D01*
X95110623Y-174615446D01*
X95275981Y-174508569D01*
X95443935Y-174434673D01*
X95615569Y-174388200D01*
X95804227Y-174366117D01*
X95915699Y-174363267D01*
X96166635Y-174376874D01*
G04 #@! TA.AperFunction,EtchedComponent*
G36*
X96166635Y-174376874D02*
G01*
X96387589Y-174418270D01*
X96581246Y-174488321D01*
X96750291Y-174587892D01*
X96839505Y-174660775D01*
X96961916Y-174795100D01*
X97053352Y-174948286D01*
X97116997Y-175126651D01*
X97146860Y-175270766D01*
X97163941Y-175378822D01*
X95339417Y-175389850D01*
X95345998Y-175633267D01*
X95360096Y-175857571D01*
X95389946Y-176045776D01*
X95436638Y-176201498D01*
X95501258Y-176328350D01*
X95584894Y-176429947D01*
X95586235Y-176431236D01*
X95685691Y-176505942D01*
X95799320Y-176549159D01*
X95936967Y-176564466D01*
X95953274Y-176564600D01*
X96097968Y-176549084D01*
X96221675Y-176500945D01*
X96327737Y-176417793D01*
X96419497Y-176297241D01*
X96476316Y-176190797D01*
X96537540Y-176060411D01*
X96773282Y-176139334D01*
X96866590Y-176172533D01*
X96944080Y-176203807D01*
X96997417Y-176229540D01*
X97018131Y-176245577D01*
X97008349Y-176276135D01*
X96970577Y-176323634D01*
X96912117Y-176381638D01*
X96840270Y-176443708D01*
X96762340Y-176503409D01*
X96685628Y-176554301D01*
X96638373Y-176580353D01*
X96545947Y-176621541D01*
X96445558Y-176659780D01*
X96375853Y-176681879D01*
X96259074Y-176704781D01*
X96115648Y-176719506D01*
X95960493Y-176725691D01*
X95808530Y-176722973D01*
X95674678Y-176710990D01*
X95614584Y-176700406D01*
X95402073Y-176633929D01*
X95209043Y-176534594D01*
X95040104Y-176405915D01*
X94899866Y-176251405D01*
X94792940Y-176074576D01*
X94792825Y-176074333D01*
X94725698Y-175909317D01*
X94687330Y-175750787D01*
X94673269Y-175578981D01*
X94672980Y-175542267D01*
X94692779Y-175324294D01*
X94724386Y-175208820D01*
X95350000Y-175208820D01*
X95369690Y-175216467D01*
X95429151Y-175222487D01*
X95528968Y-175226903D01*
X95669726Y-175229739D01*
X95852011Y-175231017D01*
X95921500Y-175231100D01*
X96092180Y-175230934D01*
X96225179Y-175230236D01*
X96325152Y-175228703D01*
X96396750Y-175226033D01*
X96444627Y-175221926D01*
X96473434Y-175216078D01*
X96487826Y-175208189D01*
X96492454Y-175197957D01*
X96492633Y-175194059D01*
X96488204Y-175155073D01*
X96476992Y-175089437D01*
X96462458Y-175016386D01*
X96413427Y-174849615D01*
X96343878Y-174719268D01*
X96252191Y-174623889D01*
X96136748Y-174562024D01*
X95995929Y-174532215D01*
X95920271Y-174528865D01*
X95771468Y-174548070D01*
X95641215Y-174604161D01*
X95533311Y-174694854D01*
X95456592Y-174807767D01*
X95435873Y-174859496D01*
X95411440Y-174936416D01*
X95387000Y-175024573D01*
X95366263Y-175110012D01*
X95352937Y-175178780D01*
X95350000Y-175208820D01*
X94724386Y-175208820D01*
X94749338Y-175117665D01*
X94839761Y-174927339D01*
X94961154Y-174758279D01*
X95110623Y-174615446D01*
X95275981Y-174508569D01*
X95443935Y-174434673D01*
X95615569Y-174388200D01*
X95804227Y-174366117D01*
X95915699Y-174363267D01*
X96166635Y-174376874D01*
G37*
G04 #@! TD.AperFunction*
X101875745Y-174405995D02*
X102155084Y-174432162D01*
X102155084Y-174694054D01*
X102153029Y-174819568D01*
X102146029Y-174904298D01*
X102132826Y-174949635D01*
X102112164Y-174956967D01*
X102082786Y-174927683D01*
X102043436Y-174863173D01*
X102028084Y-174834460D01*
X101966652Y-174739373D01*
X101891555Y-174668668D01*
X101796799Y-174619693D01*
X101676389Y-174589800D01*
X101524333Y-174576338D01*
X101441058Y-174574934D01*
X101295390Y-174585035D01*
X101181148Y-174617102D01*
X101092090Y-174673783D01*
X101026562Y-174750653D01*
X100989575Y-174818725D01*
X100973072Y-174888857D01*
X100970416Y-174955283D01*
X100981784Y-175057279D01*
X101016958Y-175139650D01*
X101079437Y-175204887D01*
X101172722Y-175255484D01*
X101300313Y-175293931D01*
X101465710Y-175322721D01*
X101491151Y-175326006D01*
X101652775Y-175347962D01*
X101781390Y-175370125D01*
X101886268Y-175394788D01*
X101976684Y-175424240D01*
X102061909Y-175460773D01*
X102087744Y-175473403D01*
X102218977Y-175559593D01*
X102314519Y-175667944D01*
X102373301Y-175796531D01*
X102394255Y-175943430D01*
X102390658Y-176018967D01*
X102356153Y-176176687D01*
X102287108Y-176312908D01*
X102182790Y-176428275D01*
X102042460Y-176523434D01*
X101865385Y-176599029D01*
X101668250Y-176652094D01*
X101586992Y-176665303D01*
X101477324Y-176677554D01*
X101348497Y-176688378D01*
X101209763Y-176697310D01*
X101070372Y-176703883D01*
X100939575Y-176707631D01*
X100826624Y-176708088D01*
X100740770Y-176704787D01*
X100705167Y-176700642D01*
X100654453Y-176691214D01*
X100582004Y-176677371D01*
X100534390Y-176668133D01*
X100416530Y-176645115D01*
X100417973Y-176451399D01*
X100416864Y-176357763D01*
X100412665Y-176274083D01*
X100406171Y-176213864D01*
X100403139Y-176199475D01*
X100395779Y-176157986D01*
X100411955Y-176142952D01*
X100438754Y-176141267D01*
X100487106Y-176156988D01*
X100503561Y-176181954D01*
X100526215Y-176219121D01*
X100569729Y-176268923D01*
X100599477Y-176297629D01*
X100730519Y-176393551D01*
X100881223Y-176466538D01*
X101042712Y-176514922D01*
X101206108Y-176537033D01*
X101362532Y-176531201D01*
X101503108Y-176495759D01*
X101547319Y-176475845D01*
X101650064Y-176402431D01*
X101725792Y-176306283D01*
X101771036Y-176195851D01*
X101782327Y-176079585D01*
X101756433Y-175966501D01*
X101722974Y-175906439D01*
X101674663Y-175857850D01*
X101606180Y-175818480D01*
X101512205Y-175786074D01*
X101387419Y-175758380D01*
X101226502Y-175733143D01*
X101195949Y-175729038D01*
X101026290Y-175704552D01*
X100891011Y-175679469D01*
X100782201Y-175651376D01*
X100691945Y-175617859D01*
X100612331Y-175576504D01*
X100541700Y-175529473D01*
X100447055Y-175436604D01*
X100384603Y-175323809D01*
X100353630Y-175197795D01*
X100353425Y-175065270D01*
X100383276Y-174932943D01*
X100442472Y-174807522D01*
X100530299Y-174695715D01*
X100639469Y-174608305D01*
X100804546Y-174525262D01*
X101001731Y-174461480D01*
X101224944Y-174417954D01*
X101468103Y-174395680D01*
X101725126Y-174395653D01*
X101875745Y-174405995D01*
G04 #@! TA.AperFunction,EtchedComponent*
G36*
X101875745Y-174405995D02*
G01*
X102155084Y-174432162D01*
X102155084Y-174694054D01*
X102153029Y-174819568D01*
X102146029Y-174904298D01*
X102132826Y-174949635D01*
X102112164Y-174956967D01*
X102082786Y-174927683D01*
X102043436Y-174863173D01*
X102028084Y-174834460D01*
X101966652Y-174739373D01*
X101891555Y-174668668D01*
X101796799Y-174619693D01*
X101676389Y-174589800D01*
X101524333Y-174576338D01*
X101441058Y-174574934D01*
X101295390Y-174585035D01*
X101181148Y-174617102D01*
X101092090Y-174673783D01*
X101026562Y-174750653D01*
X100989575Y-174818725D01*
X100973072Y-174888857D01*
X100970416Y-174955283D01*
X100981784Y-175057279D01*
X101016958Y-175139650D01*
X101079437Y-175204887D01*
X101172722Y-175255484D01*
X101300313Y-175293931D01*
X101465710Y-175322721D01*
X101491151Y-175326006D01*
X101652775Y-175347962D01*
X101781390Y-175370125D01*
X101886268Y-175394788D01*
X101976684Y-175424240D01*
X102061909Y-175460773D01*
X102087744Y-175473403D01*
X102218977Y-175559593D01*
X102314519Y-175667944D01*
X102373301Y-175796531D01*
X102394255Y-175943430D01*
X102390658Y-176018967D01*
X102356153Y-176176687D01*
X102287108Y-176312908D01*
X102182790Y-176428275D01*
X102042460Y-176523434D01*
X101865385Y-176599029D01*
X101668250Y-176652094D01*
X101586992Y-176665303D01*
X101477324Y-176677554D01*
X101348497Y-176688378D01*
X101209763Y-176697310D01*
X101070372Y-176703883D01*
X100939575Y-176707631D01*
X100826624Y-176708088D01*
X100740770Y-176704787D01*
X100705167Y-176700642D01*
X100654453Y-176691214D01*
X100582004Y-176677371D01*
X100534390Y-176668133D01*
X100416530Y-176645115D01*
X100417973Y-176451399D01*
X100416864Y-176357763D01*
X100412665Y-176274083D01*
X100406171Y-176213864D01*
X100403139Y-176199475D01*
X100395779Y-176157986D01*
X100411955Y-176142952D01*
X100438754Y-176141267D01*
X100487106Y-176156988D01*
X100503561Y-176181954D01*
X100526215Y-176219121D01*
X100569729Y-176268923D01*
X100599477Y-176297629D01*
X100730519Y-176393551D01*
X100881223Y-176466538D01*
X101042712Y-176514922D01*
X101206108Y-176537033D01*
X101362532Y-176531201D01*
X101503108Y-176495759D01*
X101547319Y-176475845D01*
X101650064Y-176402431D01*
X101725792Y-176306283D01*
X101771036Y-176195851D01*
X101782327Y-176079585D01*
X101756433Y-175966501D01*
X101722974Y-175906439D01*
X101674663Y-175857850D01*
X101606180Y-175818480D01*
X101512205Y-175786074D01*
X101387419Y-175758380D01*
X101226502Y-175733143D01*
X101195949Y-175729038D01*
X101026290Y-175704552D01*
X100891011Y-175679469D01*
X100782201Y-175651376D01*
X100691945Y-175617859D01*
X100612331Y-175576504D01*
X100541700Y-175529473D01*
X100447055Y-175436604D01*
X100384603Y-175323809D01*
X100353630Y-175197795D01*
X100353425Y-175065270D01*
X100383276Y-174932943D01*
X100442472Y-174807522D01*
X100530299Y-174695715D01*
X100639469Y-174608305D01*
X100804546Y-174525262D01*
X101001731Y-174461480D01*
X101224944Y-174417954D01*
X101468103Y-174395680D01*
X101725126Y-174395653D01*
X101875745Y-174405995D01*
G37*
G04 #@! TD.AperFunction*
X86358507Y-53262932D02*
X86679665Y-53331738D01*
X86987979Y-53437835D01*
X87002317Y-53443847D01*
X87268324Y-53578229D01*
X87508061Y-53743364D01*
X87720326Y-53935888D01*
X87903915Y-54152440D01*
X88057625Y-54389658D01*
X88180251Y-54644178D01*
X88270592Y-54912639D01*
X88327443Y-55191677D01*
X88349601Y-55477932D01*
X88335863Y-55768040D01*
X88285025Y-56058638D01*
X88195884Y-56346366D01*
X88111144Y-56542023D01*
X87954071Y-56817857D01*
X87765738Y-57065974D01*
X87548230Y-57284736D01*
X87303632Y-57472504D01*
X87034029Y-57627643D01*
X86741505Y-57748514D01*
X86481167Y-57822011D01*
X86364207Y-57842229D01*
X86217845Y-57858034D01*
X86054834Y-57868901D01*
X85887927Y-57874307D01*
X85729877Y-57873726D01*
X85593435Y-57866635D01*
X85539250Y-57860749D01*
X85276527Y-57808020D01*
X85013588Y-57722835D01*
X84758675Y-57609366D01*
X84520031Y-57471781D01*
X84305898Y-57314253D01*
X84131064Y-57148161D01*
X83947300Y-56921056D01*
X83786853Y-56670091D01*
X83655419Y-56405551D01*
X83558693Y-56137723D01*
X83545703Y-56091071D01*
X83523794Y-56003471D01*
X83508420Y-55925734D01*
X83498432Y-55846682D01*
X83492678Y-55755138D01*
X83490006Y-55639925D01*
X83489368Y-55544184D01*
X84567868Y-55544184D01*
X84580394Y-55899716D01*
X84618586Y-56223216D01*
X84682825Y-56516602D01*
X84773489Y-56781792D01*
X84841968Y-56930600D01*
X84966360Y-57134157D01*
X85113076Y-57303571D01*
X85279506Y-57437651D01*
X85463039Y-57535206D01*
X85661065Y-57595044D01*
X85870976Y-57615972D01*
X86090159Y-57596800D01*
X86229708Y-57564211D01*
X86413724Y-57489299D01*
X86584294Y-57375980D01*
X86739929Y-57226459D01*
X86879139Y-57042938D01*
X87000434Y-56827621D01*
X87102324Y-56582711D01*
X87183321Y-56310413D01*
X87230432Y-56083934D01*
X87267637Y-55788292D01*
X87279046Y-55490247D01*
X87265698Y-55195377D01*
X87228631Y-54909262D01*
X87168885Y-54637480D01*
X87087497Y-54385610D01*
X86985508Y-54159230D01*
X86863956Y-53963920D01*
X86826689Y-53915723D01*
X86674458Y-53759755D01*
X86501420Y-53640620D01*
X86308055Y-53558559D01*
X86094842Y-53513810D01*
X86010519Y-53506732D01*
X85772934Y-53511639D01*
X85557018Y-53552591D01*
X85362143Y-53629975D01*
X85187683Y-53744181D01*
X85033013Y-53895599D01*
X84897506Y-54084619D01*
X84805959Y-54255760D01*
X84715879Y-54477307D01*
X84648063Y-54715607D01*
X84601491Y-54976186D01*
X84575140Y-55264571D01*
X84567868Y-55544184D01*
X83489368Y-55544184D01*
X83489683Y-55409010D01*
X83492308Y-55305241D01*
X83498337Y-55221962D01*
X83508866Y-55148262D01*
X83524990Y-55073228D01*
X83543957Y-55000077D01*
X83645200Y-54703938D01*
X83782122Y-54426581D01*
X83951897Y-54171042D01*
X84151695Y-53940358D01*
X84378686Y-53737563D01*
X84630042Y-53565695D01*
X84902935Y-53427788D01*
X85067044Y-53365539D01*
X85378775Y-53282721D01*
X85701982Y-53238177D01*
X86030586Y-53231663D01*
X86358507Y-53262932D01*
G04 #@! TA.AperFunction,EtchedComponent*
G36*
X86358507Y-53262932D02*
G01*
X86679665Y-53331738D01*
X86987979Y-53437835D01*
X87002317Y-53443847D01*
X87268324Y-53578229D01*
X87508061Y-53743364D01*
X87720326Y-53935888D01*
X87903915Y-54152440D01*
X88057625Y-54389658D01*
X88180251Y-54644178D01*
X88270592Y-54912639D01*
X88327443Y-55191677D01*
X88349601Y-55477932D01*
X88335863Y-55768040D01*
X88285025Y-56058638D01*
X88195884Y-56346366D01*
X88111144Y-56542023D01*
X87954071Y-56817857D01*
X87765738Y-57065974D01*
X87548230Y-57284736D01*
X87303632Y-57472504D01*
X87034029Y-57627643D01*
X86741505Y-57748514D01*
X86481167Y-57822011D01*
X86364207Y-57842229D01*
X86217845Y-57858034D01*
X86054834Y-57868901D01*
X85887927Y-57874307D01*
X85729877Y-57873726D01*
X85593435Y-57866635D01*
X85539250Y-57860749D01*
X85276527Y-57808020D01*
X85013588Y-57722835D01*
X84758675Y-57609366D01*
X84520031Y-57471781D01*
X84305898Y-57314253D01*
X84131064Y-57148161D01*
X83947300Y-56921056D01*
X83786853Y-56670091D01*
X83655419Y-56405551D01*
X83558693Y-56137723D01*
X83545703Y-56091071D01*
X83523794Y-56003471D01*
X83508420Y-55925734D01*
X83498432Y-55846682D01*
X83492678Y-55755138D01*
X83490006Y-55639925D01*
X83489368Y-55544184D01*
X84567868Y-55544184D01*
X84580394Y-55899716D01*
X84618586Y-56223216D01*
X84682825Y-56516602D01*
X84773489Y-56781792D01*
X84841968Y-56930600D01*
X84966360Y-57134157D01*
X85113076Y-57303571D01*
X85279506Y-57437651D01*
X85463039Y-57535206D01*
X85661065Y-57595044D01*
X85870976Y-57615972D01*
X86090159Y-57596800D01*
X86229708Y-57564211D01*
X86413724Y-57489299D01*
X86584294Y-57375980D01*
X86739929Y-57226459D01*
X86879139Y-57042938D01*
X87000434Y-56827621D01*
X87102324Y-56582711D01*
X87183321Y-56310413D01*
X87230432Y-56083934D01*
X87267637Y-55788292D01*
X87279046Y-55490247D01*
X87265698Y-55195377D01*
X87228631Y-54909262D01*
X87168885Y-54637480D01*
X87087497Y-54385610D01*
X86985508Y-54159230D01*
X86863956Y-53963920D01*
X86826689Y-53915723D01*
X86674458Y-53759755D01*
X86501420Y-53640620D01*
X86308055Y-53558559D01*
X86094842Y-53513810D01*
X86010519Y-53506732D01*
X85772934Y-53511639D01*
X85557018Y-53552591D01*
X85362143Y-53629975D01*
X85187683Y-53744181D01*
X85033013Y-53895599D01*
X84897506Y-54084619D01*
X84805959Y-54255760D01*
X84715879Y-54477307D01*
X84648063Y-54715607D01*
X84601491Y-54976186D01*
X84575140Y-55264571D01*
X84567868Y-55544184D01*
X83489368Y-55544184D01*
X83489683Y-55409010D01*
X83492308Y-55305241D01*
X83498337Y-55221962D01*
X83508866Y-55148262D01*
X83524990Y-55073228D01*
X83543957Y-55000077D01*
X83645200Y-54703938D01*
X83782122Y-54426581D01*
X83951897Y-54171042D01*
X84151695Y-53940358D01*
X84378686Y-53737563D01*
X84630042Y-53565695D01*
X84902935Y-53427788D01*
X85067044Y-53365539D01*
X85378775Y-53282721D01*
X85701982Y-53238177D01*
X86030586Y-53231663D01*
X86358507Y-53262932D01*
G37*
G04 #@! TD.AperFunction*
X104843954Y-94638371D02*
X105082004Y-94891205D01*
X105607904Y-94397805D01*
X105874621Y-94650703D01*
X106141338Y-94903600D01*
X107187281Y-94903600D01*
X107456508Y-94650376D01*
X107725736Y-94397153D01*
X107991822Y-94650376D01*
X108257908Y-94903600D01*
X109023667Y-94903600D01*
X109023667Y-95157600D01*
X108229226Y-95157600D01*
X107986500Y-95401017D01*
X107903686Y-95482962D01*
X107830658Y-95553144D01*
X107772834Y-95606520D01*
X107735634Y-95638046D01*
X107724995Y-95644434D01*
X107704209Y-95630432D01*
X107658648Y-95591689D01*
X107593765Y-95533100D01*
X107515014Y-95459560D01*
X107453740Y-95401017D01*
X107201264Y-95157600D01*
X106112560Y-95157600D01*
X105869834Y-95401017D01*
X105786655Y-95483045D01*
X105712798Y-95553280D01*
X105653797Y-95606661D01*
X105615186Y-95638128D01*
X105603584Y-95644434D01*
X105573374Y-95630047D01*
X105539739Y-95599699D01*
X105509118Y-95568584D01*
X105454686Y-95515999D01*
X105383881Y-95449033D01*
X105304137Y-95374779D01*
X105296178Y-95367429D01*
X105092940Y-95179894D01*
X104848325Y-95412164D01*
X104764446Y-95490991D01*
X104691117Y-95558356D01*
X104633849Y-95609322D01*
X104598149Y-95638948D01*
X104589250Y-95644434D01*
X104569751Y-95630581D01*
X104525260Y-95592320D01*
X104461292Y-95534593D01*
X104383360Y-95462343D01*
X104330580Y-95412548D01*
X104086368Y-95180662D01*
X103844446Y-95407256D01*
X103760140Y-95485481D01*
X103685898Y-95552979D01*
X103627512Y-95604591D01*
X103590775Y-95635160D01*
X103581765Y-95641183D01*
X103560303Y-95629667D01*
X103514382Y-95593117D01*
X103449563Y-95536345D01*
X103371409Y-95464161D01*
X103316727Y-95411873D01*
X103072449Y-95175231D01*
X102832364Y-95409832D01*
X102749047Y-95489808D01*
X102675125Y-95558072D01*
X102616302Y-95609564D01*
X102578285Y-95639223D01*
X102567834Y-95644434D01*
X102545085Y-95630309D01*
X102498067Y-95591290D01*
X102432449Y-95532412D01*
X102353901Y-95458708D01*
X102300838Y-95407424D01*
X102058289Y-95170414D01*
X101818036Y-95409985D01*
X101735332Y-95490610D01*
X101661963Y-95558673D01*
X101603487Y-95609287D01*
X101565463Y-95637568D01*
X101554465Y-95641703D01*
X101531871Y-95625153D01*
X101484349Y-95584427D01*
X101417583Y-95524591D01*
X101337256Y-95450711D01*
X101278518Y-95395725D01*
X101025890Y-95157600D01*
X99953060Y-95157600D01*
X99710334Y-95401017D01*
X99627311Y-95483007D01*
X99553806Y-95553212D01*
X99495305Y-95606580D01*
X99457292Y-95638060D01*
X99446095Y-95644391D01*
X99424269Y-95630498D01*
X99377487Y-95592067D01*
X99311285Y-95533928D01*
X99231199Y-95460912D01*
X99167132Y-95400975D01*
X98909681Y-95157600D01*
X98376834Y-95157600D01*
X98376834Y-94903600D01*
X98915972Y-94903600D01*
X99175570Y-94644626D01*
X99435167Y-94385652D01*
X99954361Y-94903600D01*
X101032639Y-94903600D01*
X101292230Y-94644633D01*
X101551820Y-94385665D01*
X102059834Y-94892355D01*
X102567834Y-94385679D01*
X103075834Y-94892355D01*
X103583834Y-94385679D01*
X103834175Y-94635367D01*
X104084516Y-94885056D01*
X104605904Y-94385538D01*
X104843954Y-94638371D01*
G04 #@! TA.AperFunction,EtchedComponent*
G36*
X104843954Y-94638371D02*
G01*
X105082004Y-94891205D01*
X105607904Y-94397805D01*
X105874621Y-94650703D01*
X106141338Y-94903600D01*
X107187281Y-94903600D01*
X107456508Y-94650376D01*
X107725736Y-94397153D01*
X107991822Y-94650376D01*
X108257908Y-94903600D01*
X109023667Y-94903600D01*
X109023667Y-95157600D01*
X108229226Y-95157600D01*
X107986500Y-95401017D01*
X107903686Y-95482962D01*
X107830658Y-95553144D01*
X107772834Y-95606520D01*
X107735634Y-95638046D01*
X107724995Y-95644434D01*
X107704209Y-95630432D01*
X107658648Y-95591689D01*
X107593765Y-95533100D01*
X107515014Y-95459560D01*
X107453740Y-95401017D01*
X107201264Y-95157600D01*
X106112560Y-95157600D01*
X105869834Y-95401017D01*
X105786655Y-95483045D01*
X105712798Y-95553280D01*
X105653797Y-95606661D01*
X105615186Y-95638128D01*
X105603584Y-95644434D01*
X105573374Y-95630047D01*
X105539739Y-95599699D01*
X105509118Y-95568584D01*
X105454686Y-95515999D01*
X105383881Y-95449033D01*
X105304137Y-95374779D01*
X105296178Y-95367429D01*
X105092940Y-95179894D01*
X104848325Y-95412164D01*
X104764446Y-95490991D01*
X104691117Y-95558356D01*
X104633849Y-95609322D01*
X104598149Y-95638948D01*
X104589250Y-95644434D01*
X104569751Y-95630581D01*
X104525260Y-95592320D01*
X104461292Y-95534593D01*
X104383360Y-95462343D01*
X104330580Y-95412548D01*
X104086368Y-95180662D01*
X103844446Y-95407256D01*
X103760140Y-95485481D01*
X103685898Y-95552979D01*
X103627512Y-95604591D01*
X103590775Y-95635160D01*
X103581765Y-95641183D01*
X103560303Y-95629667D01*
X103514382Y-95593117D01*
X103449563Y-95536345D01*
X103371409Y-95464161D01*
X103316727Y-95411873D01*
X103072449Y-95175231D01*
X102832364Y-95409832D01*
X102749047Y-95489808D01*
X102675125Y-95558072D01*
X102616302Y-95609564D01*
X102578285Y-95639223D01*
X102567834Y-95644434D01*
X102545085Y-95630309D01*
X102498067Y-95591290D01*
X102432449Y-95532412D01*
X102353901Y-95458708D01*
X102300838Y-95407424D01*
X102058289Y-95170414D01*
X101818036Y-95409985D01*
X101735332Y-95490610D01*
X101661963Y-95558673D01*
X101603487Y-95609287D01*
X101565463Y-95637568D01*
X101554465Y-95641703D01*
X101531871Y-95625153D01*
X101484349Y-95584427D01*
X101417583Y-95524591D01*
X101337256Y-95450711D01*
X101278518Y-95395725D01*
X101025890Y-95157600D01*
X99953060Y-95157600D01*
X99710334Y-95401017D01*
X99627311Y-95483007D01*
X99553806Y-95553212D01*
X99495305Y-95606580D01*
X99457292Y-95638060D01*
X99446095Y-95644391D01*
X99424269Y-95630498D01*
X99377487Y-95592067D01*
X99311285Y-95533928D01*
X99231199Y-95460912D01*
X99167132Y-95400975D01*
X98909681Y-95157600D01*
X98376834Y-95157600D01*
X98376834Y-94903600D01*
X98915972Y-94903600D01*
X99175570Y-94644626D01*
X99435167Y-94385652D01*
X99954361Y-94903600D01*
X101032639Y-94903600D01*
X101292230Y-94644633D01*
X101551820Y-94385665D01*
X102059834Y-94892355D01*
X102567834Y-94385679D01*
X103075834Y-94892355D01*
X103583834Y-94385679D01*
X103834175Y-94635367D01*
X104084516Y-94885056D01*
X104605904Y-94385538D01*
X104843954Y-94638371D01*
G37*
G04 #@! TD.AperFunction*
X87897550Y-159126105D02*
X88345056Y-159126522D01*
X88833129Y-159127182D01*
X89074084Y-159127570D01*
X92799417Y-159133850D01*
X92923108Y-159183738D01*
X93088110Y-159272323D01*
X93234433Y-159394687D01*
X93355530Y-159544052D01*
X93444852Y-159713638D01*
X93451531Y-159730775D01*
X93497917Y-159853517D01*
X93503554Y-163574062D01*
X93504237Y-164044865D01*
X93504785Y-164475205D01*
X93505187Y-164866952D01*
X93505429Y-165221976D01*
X93505498Y-165542146D01*
X93505382Y-165829332D01*
X93505066Y-166085406D01*
X93504538Y-166312236D01*
X93503784Y-166511692D01*
X93502793Y-166685645D01*
X93501549Y-166835964D01*
X93500042Y-166964519D01*
X93498257Y-167073181D01*
X93496181Y-167163819D01*
X93493801Y-167238303D01*
X93491105Y-167298503D01*
X93488079Y-167346290D01*
X93484710Y-167383532D01*
X93480985Y-167412100D01*
X93476890Y-167433865D01*
X93476549Y-167435358D01*
X93413006Y-167619548D01*
X93314703Y-167782380D01*
X93185469Y-167919909D01*
X93029129Y-168028191D01*
X92849511Y-168103280D01*
X92820584Y-168111494D01*
X92784270Y-168115513D01*
X92708278Y-168119245D01*
X92595264Y-168122689D01*
X92447882Y-168125848D01*
X92268787Y-168128725D01*
X92060633Y-168131319D01*
X91826076Y-168133635D01*
X91567770Y-168135672D01*
X91288369Y-168137434D01*
X90990530Y-168138921D01*
X90676906Y-168140136D01*
X90350152Y-168141080D01*
X90012923Y-168141755D01*
X89667874Y-168142163D01*
X89317660Y-168142306D01*
X88964935Y-168142185D01*
X88612355Y-168141803D01*
X88262573Y-168141161D01*
X87918245Y-168140260D01*
X87582026Y-168139103D01*
X87256570Y-168137692D01*
X86944532Y-168136027D01*
X86648567Y-168134112D01*
X86371330Y-168131947D01*
X86115476Y-168129535D01*
X85883658Y-168126877D01*
X85678533Y-168123976D01*
X85502754Y-168120832D01*
X85358977Y-168117448D01*
X85249857Y-168113826D01*
X85178047Y-168109966D01*
X85147667Y-168106333D01*
X84971075Y-168037803D01*
X84815331Y-167933184D01*
X84682730Y-167794437D01*
X84575565Y-167623523D01*
X84570130Y-167612566D01*
X84502084Y-167473517D01*
X84496455Y-163684684D01*
X84495764Y-163214800D01*
X84495163Y-162785355D01*
X84494667Y-162394455D01*
X84494296Y-162040204D01*
X84494065Y-161720709D01*
X84493993Y-161434074D01*
X84494098Y-161178406D01*
X84494397Y-160951810D01*
X84494906Y-160752391D01*
X84495645Y-160578255D01*
X84496629Y-160427508D01*
X84497878Y-160298254D01*
X84499408Y-160188600D01*
X84501236Y-160096650D01*
X84503381Y-160020512D01*
X84505860Y-159958289D01*
X84508690Y-159908087D01*
X84511889Y-159868013D01*
X84515474Y-159836171D01*
X84519463Y-159810667D01*
X84523873Y-159789607D01*
X84528722Y-159771095D01*
X84532737Y-159757482D01*
X84606749Y-159583447D01*
X84714407Y-159431877D01*
X84851308Y-159306679D01*
X85013047Y-159211761D01*
X85195223Y-159151031D01*
X85222456Y-159145413D01*
X85252404Y-159142152D01*
X85307233Y-159139208D01*
X85388150Y-159136574D01*
X85496360Y-159134246D01*
X85633071Y-159132217D01*
X85799488Y-159130483D01*
X85996819Y-159129037D01*
X86226270Y-159127873D01*
X86489047Y-159126988D01*
X86786357Y-159126373D01*
X87119406Y-159126025D01*
X87489402Y-159125938D01*
X87897550Y-159126105D01*
G04 #@! TA.AperFunction,EtchedComponent*
G36*
X87897550Y-159126105D02*
G01*
X88345056Y-159126522D01*
X88833129Y-159127182D01*
X89074084Y-159127570D01*
X92799417Y-159133850D01*
X92923108Y-159183738D01*
X93088110Y-159272323D01*
X93234433Y-159394687D01*
X93355530Y-159544052D01*
X93444852Y-159713638D01*
X93451531Y-159730775D01*
X93497917Y-159853517D01*
X93503554Y-163574062D01*
X93504237Y-164044865D01*
X93504785Y-164475205D01*
X93505187Y-164866952D01*
X93505429Y-165221976D01*
X93505498Y-165542146D01*
X93505382Y-165829332D01*
X93505066Y-166085406D01*
X93504538Y-166312236D01*
X93503784Y-166511692D01*
X93502793Y-166685645D01*
X93501549Y-166835964D01*
X93500042Y-166964519D01*
X93498257Y-167073181D01*
X93496181Y-167163819D01*
X93493801Y-167238303D01*
X93491105Y-167298503D01*
X93488079Y-167346290D01*
X93484710Y-167383532D01*
X93480985Y-167412100D01*
X93476890Y-167433865D01*
X93476549Y-167435358D01*
X93413006Y-167619548D01*
X93314703Y-167782380D01*
X93185469Y-167919909D01*
X93029129Y-168028191D01*
X92849511Y-168103280D01*
X92820584Y-168111494D01*
X92784270Y-168115513D01*
X92708278Y-168119245D01*
X92595264Y-168122689D01*
X92447882Y-168125848D01*
X92268787Y-168128725D01*
X92060633Y-168131319D01*
X91826076Y-168133635D01*
X91567770Y-168135672D01*
X91288369Y-168137434D01*
X90990530Y-168138921D01*
X90676906Y-168140136D01*
X90350152Y-168141080D01*
X90012923Y-168141755D01*
X89667874Y-168142163D01*
X89317660Y-168142306D01*
X88964935Y-168142185D01*
X88612355Y-168141803D01*
X88262573Y-168141161D01*
X87918245Y-168140260D01*
X87582026Y-168139103D01*
X87256570Y-168137692D01*
X86944532Y-168136027D01*
X86648567Y-168134112D01*
X86371330Y-168131947D01*
X86115476Y-168129535D01*
X85883658Y-168126877D01*
X85678533Y-168123976D01*
X85502754Y-168120832D01*
X85358977Y-168117448D01*
X85249857Y-168113826D01*
X85178047Y-168109966D01*
X85147667Y-168106333D01*
X84971075Y-168037803D01*
X84815331Y-167933184D01*
X84682730Y-167794437D01*
X84575565Y-167623523D01*
X84570130Y-167612566D01*
X84502084Y-167473517D01*
X84496455Y-163684684D01*
X84495764Y-163214800D01*
X84495163Y-162785355D01*
X84494667Y-162394455D01*
X84494296Y-162040204D01*
X84494065Y-161720709D01*
X84493993Y-161434074D01*
X84494098Y-161178406D01*
X84494397Y-160951810D01*
X84494906Y-160752391D01*
X84495645Y-160578255D01*
X84496629Y-160427508D01*
X84497878Y-160298254D01*
X84499408Y-160188600D01*
X84501236Y-160096650D01*
X84503381Y-160020512D01*
X84505860Y-159958289D01*
X84508690Y-159908087D01*
X84511889Y-159868013D01*
X84515474Y-159836171D01*
X84519463Y-159810667D01*
X84523873Y-159789607D01*
X84528722Y-159771095D01*
X84532737Y-159757482D01*
X84606749Y-159583447D01*
X84714407Y-159431877D01*
X84851308Y-159306679D01*
X85013047Y-159211761D01*
X85195223Y-159151031D01*
X85222456Y-159145413D01*
X85252404Y-159142152D01*
X85307233Y-159139208D01*
X85388150Y-159136574D01*
X85496360Y-159134246D01*
X85633071Y-159132217D01*
X85799488Y-159130483D01*
X85996819Y-159129037D01*
X86226270Y-159127873D01*
X86489047Y-159126988D01*
X86786357Y-159126373D01*
X87119406Y-159126025D01*
X87489402Y-159125938D01*
X87897550Y-159126105D01*
G37*
G04 #@! TD.AperFunction*
X99211118Y-54273704D02*
X99463253Y-54312878D01*
X99707246Y-54384077D01*
X99934108Y-54483926D01*
X100134848Y-54609053D01*
X100163832Y-54631108D01*
X100228683Y-54680641D01*
X100270539Y-54707106D01*
X100299172Y-54714240D01*
X100324352Y-54705782D01*
X100337629Y-54697577D01*
X100527729Y-54589355D01*
X100732595Y-54501091D01*
X100839826Y-54465909D01*
X100967603Y-54432138D01*
X101061907Y-54415198D01*
X101128058Y-54414974D01*
X101171376Y-54431354D01*
X101194262Y-54458327D01*
X101207175Y-54495534D01*
X101190157Y-54522472D01*
X101168739Y-54537702D01*
X101029834Y-54648942D01*
X100919635Y-54785089D01*
X100834255Y-54951422D01*
X100804828Y-55031650D01*
X100794379Y-55065319D01*
X100785668Y-55100408D01*
X100778492Y-55141117D01*
X100772646Y-55191645D01*
X100767926Y-55256192D01*
X100764126Y-55338957D01*
X100761042Y-55444140D01*
X100758469Y-55575939D01*
X100756203Y-55738554D01*
X100754039Y-55936185D01*
X100752378Y-56108038D01*
X100750386Y-56369947D01*
X100749730Y-56591610D01*
X100750441Y-56775095D01*
X100752549Y-56922470D01*
X100756085Y-57035803D01*
X100761078Y-57117161D01*
X100767561Y-57168612D01*
X100768044Y-57171017D01*
X100824874Y-57348777D01*
X100915865Y-57510625D01*
X101035820Y-57648810D01*
X101146060Y-57735120D01*
X101181043Y-57768470D01*
X101183630Y-57812542D01*
X101180807Y-57825079D01*
X101172814Y-57854287D01*
X101161075Y-57871400D01*
X101137132Y-57877484D01*
X101092529Y-57873606D01*
X101018809Y-57860831D01*
X100969750Y-57851695D01*
X100708343Y-57784033D01*
X100472756Y-57683031D01*
X100262255Y-57548313D01*
X100110649Y-57415239D01*
X99950047Y-57254294D01*
X99892061Y-57345951D01*
X99784601Y-57479699D01*
X99643409Y-57599289D01*
X99476051Y-57699876D01*
X99290089Y-57776618D01*
X99166335Y-57810643D01*
X99021132Y-57832362D01*
X98851823Y-57840788D01*
X98672549Y-57836548D01*
X98497449Y-57820270D01*
X98340661Y-57792579D01*
X98260417Y-57770471D01*
X98025548Y-57671849D01*
X97814259Y-57539165D01*
X97628600Y-57374808D01*
X97470618Y-57181166D01*
X97342364Y-56960625D01*
X97245886Y-56715573D01*
X97198924Y-56533489D01*
X97182369Y-56413502D01*
X97174750Y-56267430D01*
X97175452Y-56147609D01*
X98107817Y-56147609D01*
X98132819Y-56400696D01*
X98184065Y-56643130D01*
X98261539Y-56867712D01*
X98365226Y-57067239D01*
X98381695Y-57092556D01*
X98492496Y-57235966D01*
X98613080Y-57344728D01*
X98753378Y-57426525D01*
X98874250Y-57473726D01*
X98965550Y-57491946D01*
X99077680Y-57497130D01*
X99195056Y-57490189D01*
X99302093Y-57472032D01*
X99382250Y-57444071D01*
X99508814Y-57355369D01*
X99620646Y-57231589D01*
X99714064Y-57078517D01*
X99785385Y-56901940D01*
X99823484Y-56750684D01*
X99836225Y-56658947D01*
X99847458Y-56526785D01*
X99857071Y-56356084D01*
X99864950Y-56148728D01*
X99869239Y-55988684D01*
X99873175Y-55780969D01*
X99874066Y-55609544D01*
X99871231Y-55468430D01*
X99863992Y-55351649D01*
X99851670Y-55253224D01*
X99833585Y-55167175D01*
X99809060Y-55087526D01*
X99777414Y-55008298D01*
X99751436Y-54951517D01*
X99679362Y-54820509D01*
X99599511Y-54721533D01*
X99502234Y-54644330D01*
X99418978Y-54597931D01*
X99339622Y-54561430D01*
X99274724Y-54540533D01*
X99205826Y-54531188D01*
X99114474Y-54529345D01*
X99106691Y-54529393D01*
X99008682Y-54532788D01*
X98933646Y-54544085D01*
X98862390Y-54567415D01*
X98799335Y-54595555D01*
X98648454Y-54682307D01*
X98520924Y-54790973D01*
X98406713Y-54930553D01*
X98377027Y-54974448D01*
X98270569Y-55172773D01*
X98190436Y-55396453D01*
X98136609Y-55638286D01*
X98109075Y-55891072D01*
X98107817Y-56147609D01*
X97175452Y-56147609D01*
X97175677Y-56109250D01*
X97184757Y-55952937D01*
X97201600Y-55812470D01*
X97221807Y-55715679D01*
X97318059Y-55436628D01*
X97446123Y-55181539D01*
X97604072Y-54952874D01*
X97789980Y-54753095D01*
X98001918Y-54584663D01*
X98196917Y-54470081D01*
X98386339Y-54390951D01*
X98600289Y-54329238D01*
X98824135Y-54287774D01*
X99043248Y-54269393D01*
X99211118Y-54273704D01*
G04 #@! TA.AperFunction,EtchedComponent*
G36*
X99211118Y-54273704D02*
G01*
X99463253Y-54312878D01*
X99707246Y-54384077D01*
X99934108Y-54483926D01*
X100134848Y-54609053D01*
X100163832Y-54631108D01*
X100228683Y-54680641D01*
X100270539Y-54707106D01*
X100299172Y-54714240D01*
X100324352Y-54705782D01*
X100337629Y-54697577D01*
X100527729Y-54589355D01*
X100732595Y-54501091D01*
X100839826Y-54465909D01*
X100967603Y-54432138D01*
X101061907Y-54415198D01*
X101128058Y-54414974D01*
X101171376Y-54431354D01*
X101194262Y-54458327D01*
X101207175Y-54495534D01*
X101190157Y-54522472D01*
X101168739Y-54537702D01*
X101029834Y-54648942D01*
X100919635Y-54785089D01*
X100834255Y-54951422D01*
X100804828Y-55031650D01*
X100794379Y-55065319D01*
X100785668Y-55100408D01*
X100778492Y-55141117D01*
X100772646Y-55191645D01*
X100767926Y-55256192D01*
X100764126Y-55338957D01*
X100761042Y-55444140D01*
X100758469Y-55575939D01*
X100756203Y-55738554D01*
X100754039Y-55936185D01*
X100752378Y-56108038D01*
X100750386Y-56369947D01*
X100749730Y-56591610D01*
X100750441Y-56775095D01*
X100752549Y-56922470D01*
X100756085Y-57035803D01*
X100761078Y-57117161D01*
X100767561Y-57168612D01*
X100768044Y-57171017D01*
X100824874Y-57348777D01*
X100915865Y-57510625D01*
X101035820Y-57648810D01*
X101146060Y-57735120D01*
X101181043Y-57768470D01*
X101183630Y-57812542D01*
X101180807Y-57825079D01*
X101172814Y-57854287D01*
X101161075Y-57871400D01*
X101137132Y-57877484D01*
X101092529Y-57873606D01*
X101018809Y-57860831D01*
X100969750Y-57851695D01*
X100708343Y-57784033D01*
X100472756Y-57683031D01*
X100262255Y-57548313D01*
X100110649Y-57415239D01*
X99950047Y-57254294D01*
X99892061Y-57345951D01*
X99784601Y-57479699D01*
X99643409Y-57599289D01*
X99476051Y-57699876D01*
X99290089Y-57776618D01*
X99166335Y-57810643D01*
X99021132Y-57832362D01*
X98851823Y-57840788D01*
X98672549Y-57836548D01*
X98497449Y-57820270D01*
X98340661Y-57792579D01*
X98260417Y-57770471D01*
X98025548Y-57671849D01*
X97814259Y-57539165D01*
X97628600Y-57374808D01*
X97470618Y-57181166D01*
X97342364Y-56960625D01*
X97245886Y-56715573D01*
X97198924Y-56533489D01*
X97182369Y-56413502D01*
X97174750Y-56267430D01*
X97175452Y-56147609D01*
X98107817Y-56147609D01*
X98132819Y-56400696D01*
X98184065Y-56643130D01*
X98261539Y-56867712D01*
X98365226Y-57067239D01*
X98381695Y-57092556D01*
X98492496Y-57235966D01*
X98613080Y-57344728D01*
X98753378Y-57426525D01*
X98874250Y-57473726D01*
X98965550Y-57491946D01*
X99077680Y-57497130D01*
X99195056Y-57490189D01*
X99302093Y-57472032D01*
X99382250Y-57444071D01*
X99508814Y-57355369D01*
X99620646Y-57231589D01*
X99714064Y-57078517D01*
X99785385Y-56901940D01*
X99823484Y-56750684D01*
X99836225Y-56658947D01*
X99847458Y-56526785D01*
X99857071Y-56356084D01*
X99864950Y-56148728D01*
X99869239Y-55988684D01*
X99873175Y-55780969D01*
X99874066Y-55609544D01*
X99871231Y-55468430D01*
X99863992Y-55351649D01*
X99851670Y-55253224D01*
X99833585Y-55167175D01*
X99809060Y-55087526D01*
X99777414Y-55008298D01*
X99751436Y-54951517D01*
X99679362Y-54820509D01*
X99599511Y-54721533D01*
X99502234Y-54644330D01*
X99418978Y-54597931D01*
X99339622Y-54561430D01*
X99274724Y-54540533D01*
X99205826Y-54531188D01*
X99114474Y-54529345D01*
X99106691Y-54529393D01*
X99008682Y-54532788D01*
X98933646Y-54544085D01*
X98862390Y-54567415D01*
X98799335Y-54595555D01*
X98648454Y-54682307D01*
X98520924Y-54790973D01*
X98406713Y-54930553D01*
X98377027Y-54974448D01*
X98270569Y-55172773D01*
X98190436Y-55396453D01*
X98136609Y-55638286D01*
X98109075Y-55891072D01*
X98107817Y-56147609D01*
X97175452Y-56147609D01*
X97175677Y-56109250D01*
X97184757Y-55952937D01*
X97201600Y-55812470D01*
X97221807Y-55715679D01*
X97318059Y-55436628D01*
X97446123Y-55181539D01*
X97604072Y-54952874D01*
X97789980Y-54753095D01*
X98001918Y-54584663D01*
X98196917Y-54470081D01*
X98386339Y-54390951D01*
X98600289Y-54329238D01*
X98824135Y-54287774D01*
X99043248Y-54269393D01*
X99211118Y-54273704D01*
G37*
G04 #@! TD.AperFunction*
X115326350Y-159123358D02*
X115795270Y-159123634D01*
X116223974Y-159124104D01*
X116613521Y-159124773D01*
X116964970Y-159125648D01*
X117279378Y-159126735D01*
X117557806Y-159128041D01*
X117801311Y-159129574D01*
X118010952Y-159131338D01*
X118187787Y-159133342D01*
X118332875Y-159135592D01*
X118447276Y-159138093D01*
X118532047Y-159140854D01*
X118588246Y-159143881D01*
X118616417Y-159147066D01*
X118799450Y-159206513D01*
X118962868Y-159300879D01*
X119102029Y-159425969D01*
X119212293Y-159577588D01*
X119289022Y-159751539D01*
X119290649Y-159756712D01*
X119295788Y-159774093D01*
X119300481Y-159793003D01*
X119304749Y-159815346D01*
X119308610Y-159843026D01*
X119312087Y-159877947D01*
X119315198Y-159922012D01*
X119317964Y-159977125D01*
X119320406Y-160045191D01*
X119322543Y-160128113D01*
X119324396Y-160227794D01*
X119325985Y-160346139D01*
X119327331Y-160485052D01*
X119328453Y-160646436D01*
X119329371Y-160832195D01*
X119330107Y-161044232D01*
X119330680Y-161284453D01*
X119331110Y-161554760D01*
X119331418Y-161857057D01*
X119331624Y-162193248D01*
X119331748Y-162565238D01*
X119331811Y-162974929D01*
X119331832Y-163424226D01*
X119331834Y-163631423D01*
X119331825Y-164098340D01*
X119331787Y-164524829D01*
X119331697Y-164912796D01*
X119331536Y-165264147D01*
X119331283Y-165580786D01*
X119330917Y-165864621D01*
X119330419Y-166117556D01*
X119329766Y-166341496D01*
X119328939Y-166538349D01*
X119327918Y-166710018D01*
X119326680Y-166858411D01*
X119325207Y-166985432D01*
X119323478Y-167092986D01*
X119321471Y-167182981D01*
X119319166Y-167257321D01*
X119316543Y-167317912D01*
X119313582Y-167366659D01*
X119310260Y-167405468D01*
X119306559Y-167436245D01*
X119302458Y-167460896D01*
X119297935Y-167481325D01*
X119292970Y-167499440D01*
X119289977Y-167509323D01*
X119214716Y-167683141D01*
X119104609Y-167837311D01*
X118964692Y-167966387D01*
X118800000Y-168064922D01*
X118760334Y-168082209D01*
X118643917Y-168129684D01*
X114865667Y-168133229D01*
X114375903Y-168133631D01*
X113926883Y-168133874D01*
X113517019Y-168133948D01*
X113144723Y-168133844D01*
X112808406Y-168133551D01*
X112506479Y-168133062D01*
X112237355Y-168132365D01*
X111999443Y-168131452D01*
X111791157Y-168130313D01*
X111610907Y-168128939D01*
X111457105Y-168127320D01*
X111328162Y-168125446D01*
X111222490Y-168123309D01*
X111138500Y-168120899D01*
X111074604Y-168118206D01*
X111029214Y-168115221D01*
X111000740Y-168111934D01*
X110992167Y-168110124D01*
X110831130Y-168046482D01*
X110680020Y-167951784D01*
X110548943Y-167833866D01*
X110448004Y-167700566D01*
X110435300Y-167678287D01*
X110420511Y-167651731D01*
X110406989Y-167627533D01*
X110394677Y-167603780D01*
X110383520Y-167578564D01*
X110373459Y-167549972D01*
X110364438Y-167516094D01*
X110356400Y-167475019D01*
X110349289Y-167424837D01*
X110343047Y-167363636D01*
X110337618Y-167289506D01*
X110332945Y-167200536D01*
X110328972Y-167094815D01*
X110325641Y-166970433D01*
X110322896Y-166825478D01*
X110320679Y-166658040D01*
X110318935Y-166466208D01*
X110317606Y-166248072D01*
X110316635Y-166001719D01*
X110315966Y-165725241D01*
X110315542Y-165416725D01*
X110315306Y-165074261D01*
X110315201Y-164695939D01*
X110315171Y-164279847D01*
X110315159Y-163824074D01*
X110315146Y-163635945D01*
X110315074Y-163161821D01*
X110314985Y-162728131D01*
X110314949Y-162332978D01*
X110315032Y-161974464D01*
X110315302Y-161650690D01*
X110315827Y-161359758D01*
X110316674Y-161099770D01*
X110317912Y-160868828D01*
X110319608Y-160665033D01*
X110321830Y-160486488D01*
X110324644Y-160331293D01*
X110328120Y-160197551D01*
X110332324Y-160083364D01*
X110337325Y-159986833D01*
X110343190Y-159906060D01*
X110349986Y-159839147D01*
X110357782Y-159784196D01*
X110366644Y-159739308D01*
X110376642Y-159702585D01*
X110387842Y-159672129D01*
X110400312Y-159646042D01*
X110414119Y-159622425D01*
X110429332Y-159599381D01*
X110446018Y-159575011D01*
X110460719Y-159552905D01*
X110585786Y-159395575D01*
X110734363Y-159273318D01*
X110905890Y-159186545D01*
X111001906Y-159156118D01*
X111021395Y-159151946D01*
X111047636Y-159148137D01*
X111082499Y-159144676D01*
X111127856Y-159141544D01*
X111185578Y-159138728D01*
X111257535Y-159136210D01*
X111345598Y-159133974D01*
X111451639Y-159132004D01*
X111577528Y-159130285D01*
X111725137Y-159128799D01*
X111896335Y-159127531D01*
X112092995Y-159126465D01*
X112316987Y-159125585D01*
X112570182Y-159124874D01*
X112854451Y-159124317D01*
X113171665Y-159123897D01*
X113523695Y-159123598D01*
X113912412Y-159123404D01*
X114339687Y-159123299D01*
X114807390Y-159123267D01*
X114816155Y-159123267D01*
X115326350Y-159123358D01*
G04 #@! TA.AperFunction,EtchedComponent*
G36*
X115326350Y-159123358D02*
G01*
X115795270Y-159123634D01*
X116223974Y-159124104D01*
X116613521Y-159124773D01*
X116964970Y-159125648D01*
X117279378Y-159126735D01*
X117557806Y-159128041D01*
X117801311Y-159129574D01*
X118010952Y-159131338D01*
X118187787Y-159133342D01*
X118332875Y-159135592D01*
X118447276Y-159138093D01*
X118532047Y-159140854D01*
X118588246Y-159143881D01*
X118616417Y-159147066D01*
X118799450Y-159206513D01*
X118962868Y-159300879D01*
X119102029Y-159425969D01*
X119212293Y-159577588D01*
X119289022Y-159751539D01*
X119290649Y-159756712D01*
X119295788Y-159774093D01*
X119300481Y-159793003D01*
X119304749Y-159815346D01*
X119308610Y-159843026D01*
X119312087Y-159877947D01*
X119315198Y-159922012D01*
X119317964Y-159977125D01*
X119320406Y-160045191D01*
X119322543Y-160128113D01*
X119324396Y-160227794D01*
X119325985Y-160346139D01*
X119327331Y-160485052D01*
X119328453Y-160646436D01*
X119329371Y-160832195D01*
X119330107Y-161044232D01*
X119330680Y-161284453D01*
X119331110Y-161554760D01*
X119331418Y-161857057D01*
X119331624Y-162193248D01*
X119331748Y-162565238D01*
X119331811Y-162974929D01*
X119331832Y-163424226D01*
X119331834Y-163631423D01*
X119331825Y-164098340D01*
X119331787Y-164524829D01*
X119331697Y-164912796D01*
X119331536Y-165264147D01*
X119331283Y-165580786D01*
X119330917Y-165864621D01*
X119330419Y-166117556D01*
X119329766Y-166341496D01*
X119328939Y-166538349D01*
X119327918Y-166710018D01*
X119326680Y-166858411D01*
X119325207Y-166985432D01*
X119323478Y-167092986D01*
X119321471Y-167182981D01*
X119319166Y-167257321D01*
X119316543Y-167317912D01*
X119313582Y-167366659D01*
X119310260Y-167405468D01*
X119306559Y-167436245D01*
X119302458Y-167460896D01*
X119297935Y-167481325D01*
X119292970Y-167499440D01*
X119289977Y-167509323D01*
X119214716Y-167683141D01*
X119104609Y-167837311D01*
X118964692Y-167966387D01*
X118800000Y-168064922D01*
X118760334Y-168082209D01*
X118643917Y-168129684D01*
X114865667Y-168133229D01*
X114375903Y-168133631D01*
X113926883Y-168133874D01*
X113517019Y-168133948D01*
X113144723Y-168133844D01*
X112808406Y-168133551D01*
X112506479Y-168133062D01*
X112237355Y-168132365D01*
X111999443Y-168131452D01*
X111791157Y-168130313D01*
X111610907Y-168128939D01*
X111457105Y-168127320D01*
X111328162Y-168125446D01*
X111222490Y-168123309D01*
X111138500Y-168120899D01*
X111074604Y-168118206D01*
X111029214Y-168115221D01*
X111000740Y-168111934D01*
X110992167Y-168110124D01*
X110831130Y-168046482D01*
X110680020Y-167951784D01*
X110548943Y-167833866D01*
X110448004Y-167700566D01*
X110435300Y-167678287D01*
X110420511Y-167651731D01*
X110406989Y-167627533D01*
X110394677Y-167603780D01*
X110383520Y-167578564D01*
X110373459Y-167549972D01*
X110364438Y-167516094D01*
X110356400Y-167475019D01*
X110349289Y-167424837D01*
X110343047Y-167363636D01*
X110337618Y-167289506D01*
X110332945Y-167200536D01*
X110328972Y-167094815D01*
X110325641Y-166970433D01*
X110322896Y-166825478D01*
X110320679Y-166658040D01*
X110318935Y-166466208D01*
X110317606Y-166248072D01*
X110316635Y-166001719D01*
X110315966Y-165725241D01*
X110315542Y-165416725D01*
X110315306Y-165074261D01*
X110315201Y-164695939D01*
X110315171Y-164279847D01*
X110315159Y-163824074D01*
X110315146Y-163635945D01*
X110315074Y-163161821D01*
X110314985Y-162728131D01*
X110314949Y-162332978D01*
X110315032Y-161974464D01*
X110315302Y-161650690D01*
X110315827Y-161359758D01*
X110316674Y-161099770D01*
X110317912Y-160868828D01*
X110319608Y-160665033D01*
X110321830Y-160486488D01*
X110324644Y-160331293D01*
X110328120Y-160197551D01*
X110332324Y-160083364D01*
X110337325Y-159986833D01*
X110343190Y-159906060D01*
X110349986Y-159839147D01*
X110357782Y-159784196D01*
X110366644Y-159739308D01*
X110376642Y-159702585D01*
X110387842Y-159672129D01*
X110400312Y-159646042D01*
X110414119Y-159622425D01*
X110429332Y-159599381D01*
X110446018Y-159575011D01*
X110460719Y-159552905D01*
X110585786Y-159395575D01*
X110734363Y-159273318D01*
X110905890Y-159186545D01*
X111001906Y-159156118D01*
X111021395Y-159151946D01*
X111047636Y-159148137D01*
X111082499Y-159144676D01*
X111127856Y-159141544D01*
X111185578Y-159138728D01*
X111257535Y-159136210D01*
X111345598Y-159133974D01*
X111451639Y-159132004D01*
X111577528Y-159130285D01*
X111725137Y-159128799D01*
X111896335Y-159127531D01*
X112092995Y-159126465D01*
X112316987Y-159125585D01*
X112570182Y-159124874D01*
X112854451Y-159124317D01*
X113171665Y-159123897D01*
X113523695Y-159123598D01*
X113912412Y-159123404D01*
X114339687Y-159123299D01*
X114807390Y-159123267D01*
X114816155Y-159123267D01*
X115326350Y-159123358D01*
G37*
G04 #@! TD.AperFunction*
X94080671Y-54183936D02*
X94081341Y-54909184D01*
X94126425Y-54845684D01*
X94254109Y-54697348D01*
X94413051Y-54562899D01*
X94592707Y-54449528D01*
X94782534Y-54364429D01*
X94873750Y-54335847D01*
X94983854Y-54313702D01*
X95116105Y-54298128D01*
X95256218Y-54289801D01*
X95389908Y-54289402D01*
X95502890Y-54297610D01*
X95542114Y-54304071D01*
X95735506Y-54365184D01*
X95909914Y-54462782D01*
X96061460Y-54593803D01*
X96186269Y-54755187D01*
X96242920Y-54857441D01*
X96275242Y-54924595D01*
X96302615Y-54984909D01*
X96325495Y-55042519D01*
X96344337Y-55101563D01*
X96359596Y-55166178D01*
X96371727Y-55240500D01*
X96381186Y-55328666D01*
X96388427Y-55434814D01*
X96393904Y-55563081D01*
X96398075Y-55717603D01*
X96401392Y-55902517D01*
X96404312Y-56121960D01*
X96406932Y-56348517D01*
X96409657Y-56556982D01*
X96412922Y-56753086D01*
X96416608Y-56932660D01*
X96420597Y-57091534D01*
X96424771Y-57225539D01*
X96429011Y-57330505D01*
X96433197Y-57402264D01*
X96437213Y-57436647D01*
X96437941Y-57438600D01*
X96490494Y-57509424D01*
X96555202Y-57559259D01*
X96642306Y-57593941D01*
X96752292Y-57617694D01*
X96804663Y-57630387D01*
X96827035Y-57652288D01*
X96831667Y-57693559D01*
X96831667Y-57756100D01*
X95074834Y-57756100D01*
X95074834Y-57693897D01*
X95078302Y-57655843D01*
X95096067Y-57634939D01*
X95139167Y-57622748D01*
X95175375Y-57617032D01*
X95255230Y-57599417D01*
X95331854Y-57573341D01*
X95350688Y-57564737D01*
X95380077Y-57549949D01*
X95404930Y-57535273D01*
X95425627Y-57517252D01*
X95442547Y-57492427D01*
X95456071Y-57457340D01*
X95466579Y-57408534D01*
X95474450Y-57342551D01*
X95480064Y-57255932D01*
X95483802Y-57145220D01*
X95486043Y-57006956D01*
X95487168Y-56837683D01*
X95487556Y-56633942D01*
X95487587Y-56392276D01*
X95487584Y-56318809D01*
X95487463Y-56071886D01*
X95487027Y-55863551D01*
X95486164Y-55690059D01*
X95484760Y-55547666D01*
X95482705Y-55432627D01*
X95479885Y-55341197D01*
X95476190Y-55269631D01*
X95471506Y-55214185D01*
X95465721Y-55171114D01*
X95458724Y-55136672D01*
X95451393Y-55110267D01*
X95392512Y-54966912D01*
X95313708Y-54844118D01*
X95221452Y-54751494D01*
X95199219Y-54735608D01*
X95146225Y-54704145D01*
X95096276Y-54686275D01*
X95034032Y-54678391D01*
X94949379Y-54676865D01*
X94851780Y-54680504D01*
X94775917Y-54693596D01*
X94701502Y-54720513D01*
X94662084Y-54738783D01*
X94533525Y-54819140D01*
X94410083Y-54929179D01*
X94303629Y-55056790D01*
X94231539Y-55177954D01*
X94199928Y-55245333D01*
X94173552Y-55305627D01*
X94151899Y-55363398D01*
X94134459Y-55423207D01*
X94120719Y-55489617D01*
X94110167Y-55567188D01*
X94102293Y-55660483D01*
X94096583Y-55774063D01*
X94092527Y-55912489D01*
X94089613Y-56080325D01*
X94087329Y-56282130D01*
X94085538Y-56479492D01*
X94083728Y-56703390D01*
X94082639Y-56888882D01*
X94082373Y-57039888D01*
X94083035Y-57160331D01*
X94084728Y-57254132D01*
X94087557Y-57325214D01*
X94091623Y-57377499D01*
X94097033Y-57414909D01*
X94103888Y-57441364D01*
X94111442Y-57459171D01*
X94162483Y-57518436D01*
X94245001Y-57569687D01*
X94348192Y-57607019D01*
X94402792Y-57618404D01*
X94455150Y-57630576D01*
X94477515Y-57652134D01*
X94482167Y-57693559D01*
X94482167Y-57756100D01*
X93596695Y-57756100D01*
X93407062Y-57755773D01*
X93230669Y-57754840D01*
X93071989Y-57753369D01*
X92935497Y-57751433D01*
X92825669Y-57749100D01*
X92746979Y-57746441D01*
X92703902Y-57743526D01*
X92697111Y-57741989D01*
X92685864Y-57711608D01*
X92683000Y-57679786D01*
X92688868Y-57649555D01*
X92713564Y-57631956D01*
X92767726Y-57620483D01*
X92783542Y-57618282D01*
X92894705Y-57597108D01*
X92975711Y-57565058D01*
X93038311Y-57517253D01*
X93046034Y-57509282D01*
X93095750Y-57456367D01*
X93101160Y-55632442D01*
X93102081Y-55312330D01*
X93102789Y-55031825D01*
X93103234Y-54788200D01*
X93103366Y-54578728D01*
X93103136Y-54400684D01*
X93102493Y-54251340D01*
X93101387Y-54127971D01*
X93099769Y-54027850D01*
X93097589Y-53948250D01*
X93094798Y-53886445D01*
X93091344Y-53839709D01*
X93087179Y-53805315D01*
X93082252Y-53780537D01*
X93076514Y-53762648D01*
X93069915Y-53748922D01*
X93066618Y-53743323D01*
X93000072Y-53673561D01*
X92899949Y-53622365D01*
X92778879Y-53593654D01*
X92719414Y-53583343D01*
X92691798Y-53568865D01*
X92685698Y-53542486D01*
X92687178Y-53525029D01*
X92693584Y-53469850D01*
X94080000Y-53458688D01*
X94080671Y-54183936D01*
G04 #@! TA.AperFunction,EtchedComponent*
G36*
X94080671Y-54183936D02*
G01*
X94081341Y-54909184D01*
X94126425Y-54845684D01*
X94254109Y-54697348D01*
X94413051Y-54562899D01*
X94592707Y-54449528D01*
X94782534Y-54364429D01*
X94873750Y-54335847D01*
X94983854Y-54313702D01*
X95116105Y-54298128D01*
X95256218Y-54289801D01*
X95389908Y-54289402D01*
X95502890Y-54297610D01*
X95542114Y-54304071D01*
X95735506Y-54365184D01*
X95909914Y-54462782D01*
X96061460Y-54593803D01*
X96186269Y-54755187D01*
X96242920Y-54857441D01*
X96275242Y-54924595D01*
X96302615Y-54984909D01*
X96325495Y-55042519D01*
X96344337Y-55101563D01*
X96359596Y-55166178D01*
X96371727Y-55240500D01*
X96381186Y-55328666D01*
X96388427Y-55434814D01*
X96393904Y-55563081D01*
X96398075Y-55717603D01*
X96401392Y-55902517D01*
X96404312Y-56121960D01*
X96406932Y-56348517D01*
X96409657Y-56556982D01*
X96412922Y-56753086D01*
X96416608Y-56932660D01*
X96420597Y-57091534D01*
X96424771Y-57225539D01*
X96429011Y-57330505D01*
X96433197Y-57402264D01*
X96437213Y-57436647D01*
X96437941Y-57438600D01*
X96490494Y-57509424D01*
X96555202Y-57559259D01*
X96642306Y-57593941D01*
X96752292Y-57617694D01*
X96804663Y-57630387D01*
X96827035Y-57652288D01*
X96831667Y-57693559D01*
X96831667Y-57756100D01*
X95074834Y-57756100D01*
X95074834Y-57693897D01*
X95078302Y-57655843D01*
X95096067Y-57634939D01*
X95139167Y-57622748D01*
X95175375Y-57617032D01*
X95255230Y-57599417D01*
X95331854Y-57573341D01*
X95350688Y-57564737D01*
X95380077Y-57549949D01*
X95404930Y-57535273D01*
X95425627Y-57517252D01*
X95442547Y-57492427D01*
X95456071Y-57457340D01*
X95466579Y-57408534D01*
X95474450Y-57342551D01*
X95480064Y-57255932D01*
X95483802Y-57145220D01*
X95486043Y-57006956D01*
X95487168Y-56837683D01*
X95487556Y-56633942D01*
X95487587Y-56392276D01*
X95487584Y-56318809D01*
X95487463Y-56071886D01*
X95487027Y-55863551D01*
X95486164Y-55690059D01*
X95484760Y-55547666D01*
X95482705Y-55432627D01*
X95479885Y-55341197D01*
X95476190Y-55269631D01*
X95471506Y-55214185D01*
X95465721Y-55171114D01*
X95458724Y-55136672D01*
X95451393Y-55110267D01*
X95392512Y-54966912D01*
X95313708Y-54844118D01*
X95221452Y-54751494D01*
X95199219Y-54735608D01*
X95146225Y-54704145D01*
X95096276Y-54686275D01*
X95034032Y-54678391D01*
X94949379Y-54676865D01*
X94851780Y-54680504D01*
X94775917Y-54693596D01*
X94701502Y-54720513D01*
X94662084Y-54738783D01*
X94533525Y-54819140D01*
X94410083Y-54929179D01*
X94303629Y-55056790D01*
X94231539Y-55177954D01*
X94199928Y-55245333D01*
X94173552Y-55305627D01*
X94151899Y-55363398D01*
X94134459Y-55423207D01*
X94120719Y-55489617D01*
X94110167Y-55567188D01*
X94102293Y-55660483D01*
X94096583Y-55774063D01*
X94092527Y-55912489D01*
X94089613Y-56080325D01*
X94087329Y-56282130D01*
X94085538Y-56479492D01*
X94083728Y-56703390D01*
X94082639Y-56888882D01*
X94082373Y-57039888D01*
X94083035Y-57160331D01*
X94084728Y-57254132D01*
X94087557Y-57325214D01*
X94091623Y-57377499D01*
X94097033Y-57414909D01*
X94103888Y-57441364D01*
X94111442Y-57459171D01*
X94162483Y-57518436D01*
X94245001Y-57569687D01*
X94348192Y-57607019D01*
X94402792Y-57618404D01*
X94455150Y-57630576D01*
X94477515Y-57652134D01*
X94482167Y-57693559D01*
X94482167Y-57756100D01*
X93596695Y-57756100D01*
X93407062Y-57755773D01*
X93230669Y-57754840D01*
X93071989Y-57753369D01*
X92935497Y-57751433D01*
X92825669Y-57749100D01*
X92746979Y-57746441D01*
X92703902Y-57743526D01*
X92697111Y-57741989D01*
X92685864Y-57711608D01*
X92683000Y-57679786D01*
X92688868Y-57649555D01*
X92713564Y-57631956D01*
X92767726Y-57620483D01*
X92783542Y-57618282D01*
X92894705Y-57597108D01*
X92975711Y-57565058D01*
X93038311Y-57517253D01*
X93046034Y-57509282D01*
X93095750Y-57456367D01*
X93101160Y-55632442D01*
X93102081Y-55312330D01*
X93102789Y-55031825D01*
X93103234Y-54788200D01*
X93103366Y-54578728D01*
X93103136Y-54400684D01*
X93102493Y-54251340D01*
X93101387Y-54127971D01*
X93099769Y-54027850D01*
X93097589Y-53948250D01*
X93094798Y-53886445D01*
X93091344Y-53839709D01*
X93087179Y-53805315D01*
X93082252Y-53780537D01*
X93076514Y-53762648D01*
X93069915Y-53748922D01*
X93066618Y-53743323D01*
X93000072Y-53673561D01*
X92899949Y-53622365D01*
X92778879Y-53593654D01*
X92719414Y-53583343D01*
X92691798Y-53568865D01*
X92685698Y-53542486D01*
X92687178Y-53525029D01*
X92693584Y-53469850D01*
X94080000Y-53458688D01*
X94080671Y-54183936D01*
G37*
G04 #@! TD.AperFunction*
X88974101Y-53811676D02*
X88987099Y-53852799D01*
X88990699Y-53871407D01*
X89024424Y-53967198D01*
X89085606Y-54067524D01*
X89164096Y-54157481D01*
X89214026Y-54199376D01*
X89314733Y-54256427D01*
X89447354Y-54307732D01*
X89601554Y-54350207D01*
X89766997Y-54380771D01*
X89857250Y-54391226D01*
X89918944Y-54394880D01*
X90018174Y-54398331D01*
X90150145Y-54401511D01*
X90310061Y-54404349D01*
X90493125Y-54406779D01*
X90694542Y-54408730D01*
X90909515Y-54410133D01*
X91133248Y-54410919D01*
X91235748Y-54411054D01*
X92402579Y-54411767D01*
X92350058Y-54554642D01*
X92322739Y-54641412D01*
X92303666Y-54735358D01*
X92290689Y-54849370D01*
X92283893Y-54951517D01*
X92270250Y-55205517D01*
X92212780Y-55212143D01*
X92169081Y-55209673D01*
X92147168Y-55180880D01*
X92140985Y-55159227D01*
X92088889Y-55028573D01*
X92001725Y-54909292D01*
X91886580Y-54808889D01*
X91750544Y-54734871D01*
X91734332Y-54728559D01*
X91636174Y-54694460D01*
X91541613Y-54668262D01*
X91443227Y-54649138D01*
X91333591Y-54636258D01*
X91205281Y-54628795D01*
X91050872Y-54625922D01*
X90862942Y-54626810D01*
X90826169Y-54627289D01*
X90671168Y-54629570D01*
X90552076Y-54631996D01*
X90462473Y-54635271D01*
X90395940Y-54640098D01*
X90346057Y-54647180D01*
X90306404Y-54657223D01*
X90270560Y-54670930D01*
X90232105Y-54689005D01*
X90223139Y-54693401D01*
X90083650Y-54784244D01*
X89974102Y-54903430D01*
X89896534Y-55047465D01*
X89852988Y-55212853D01*
X89843847Y-55343069D01*
X89857194Y-55514330D01*
X89898448Y-55663641D01*
X89971265Y-55803750D01*
X89979666Y-55816607D01*
X90051064Y-55914697D01*
X90133666Y-56008830D01*
X90231634Y-56102280D01*
X90349130Y-56198322D01*
X90490317Y-56300230D01*
X90659358Y-56411279D01*
X90860414Y-56534743D01*
X90989680Y-56611193D01*
X91199244Y-56734839D01*
X91375901Y-56841609D01*
X91524096Y-56934547D01*
X91648276Y-57016699D01*
X91752885Y-57091109D01*
X91842370Y-57160822D01*
X91921177Y-57228882D01*
X91993751Y-57298335D01*
X91995323Y-57299913D01*
X92141191Y-57466969D01*
X92245717Y-57634353D01*
X92309842Y-57804495D01*
X92334504Y-57979826D01*
X92323116Y-58148002D01*
X92274340Y-58334730D01*
X92191039Y-58498622D01*
X92072715Y-58640144D01*
X91918872Y-58759763D01*
X91729012Y-58857944D01*
X91502639Y-58935154D01*
X91476500Y-58942124D01*
X91401705Y-58959796D01*
X91326905Y-58972885D01*
X91243190Y-58982201D01*
X91141647Y-58988553D01*
X91013364Y-58992750D01*
X90894417Y-58994967D01*
X90763782Y-58996382D01*
X90643908Y-58996667D01*
X90542735Y-58995882D01*
X90468201Y-58994087D01*
X90428750Y-58991422D01*
X90170516Y-58936456D01*
X89919072Y-58852223D01*
X89683240Y-58742662D01*
X89471843Y-58611712D01*
X89336896Y-58503868D01*
X89276001Y-58442997D01*
X89209668Y-58366597D01*
X89142573Y-58281424D01*
X89079394Y-58194232D01*
X89024810Y-58111778D01*
X88983497Y-58040816D01*
X88960135Y-57988103D01*
X88959400Y-57960394D01*
X88960109Y-57959730D01*
X88983070Y-57945596D01*
X89036180Y-57914921D01*
X89112503Y-57871573D01*
X89205100Y-57819423D01*
X89307035Y-57762341D01*
X89411370Y-57704195D01*
X89511168Y-57648857D01*
X89599491Y-57600195D01*
X89669401Y-57562079D01*
X89713961Y-57538380D01*
X89725772Y-57532640D01*
X89747340Y-57533472D01*
X89761788Y-57561425D01*
X89772888Y-57622138D01*
X89822970Y-57888334D01*
X89895628Y-58121308D01*
X89990426Y-58320190D01*
X90106930Y-58484106D01*
X90244704Y-58612184D01*
X90278711Y-58636054D01*
X90418979Y-58712998D01*
X90564699Y-58757738D01*
X90729684Y-58774275D01*
X90756834Y-58774571D01*
X90927683Y-58759355D01*
X91075923Y-58715051D01*
X91198316Y-58644261D01*
X91291627Y-58549587D01*
X91352617Y-58433631D01*
X91378050Y-58298996D01*
X91378604Y-58274684D01*
X91372255Y-58188918D01*
X91351457Y-58106800D01*
X91313585Y-58025725D01*
X91256015Y-57943087D01*
X91176121Y-57856282D01*
X91071278Y-57762703D01*
X90938862Y-57659747D01*
X90776247Y-57544807D01*
X90580809Y-57415278D01*
X90390438Y-57293976D01*
X90125463Y-57123907D01*
X89895911Y-56968616D01*
X89698714Y-56825267D01*
X89530799Y-56691025D01*
X89389095Y-56563055D01*
X89270532Y-56438520D01*
X89172038Y-56314587D01*
X89090543Y-56188420D01*
X89022976Y-56057183D01*
X89003847Y-56013777D01*
X88980492Y-55954929D01*
X88964703Y-55901436D01*
X88955000Y-55842607D01*
X88949905Y-55767749D01*
X88947938Y-55666167D01*
X88947676Y-55607684D01*
X88947896Y-55493675D01*
X88950269Y-55411416D01*
X88956502Y-55350324D01*
X88968300Y-55299818D01*
X88987371Y-55249317D01*
X89015274Y-55188549D01*
X89106316Y-55039628D01*
X89232567Y-54897828D01*
X89386907Y-54770508D01*
X89476250Y-54712257D01*
X89624417Y-54623665D01*
X89172361Y-54623549D01*
X89023053Y-54623308D01*
X88911029Y-54622385D01*
X88831242Y-54620351D01*
X88778643Y-54616776D01*
X88748184Y-54611231D01*
X88734816Y-54603286D01*
X88733493Y-54592512D01*
X88735577Y-54586392D01*
X88781939Y-54465256D01*
X88813007Y-54358406D01*
X88832414Y-54248890D01*
X88843798Y-54119755D01*
X88846435Y-54069483D01*
X88851906Y-53963490D01*
X88857698Y-53892350D01*
X88865427Y-53848604D01*
X88876707Y-53824792D01*
X88893154Y-53813454D01*
X88902496Y-53810480D01*
X88950323Y-53800625D01*
X88974101Y-53811676D01*
G04 #@! TA.AperFunction,EtchedComponent*
G36*
X88974101Y-53811676D02*
G01*
X88987099Y-53852799D01*
X88990699Y-53871407D01*
X89024424Y-53967198D01*
X89085606Y-54067524D01*
X89164096Y-54157481D01*
X89214026Y-54199376D01*
X89314733Y-54256427D01*
X89447354Y-54307732D01*
X89601554Y-54350207D01*
X89766997Y-54380771D01*
X89857250Y-54391226D01*
X89918944Y-54394880D01*
X90018174Y-54398331D01*
X90150145Y-54401511D01*
X90310061Y-54404349D01*
X90493125Y-54406779D01*
X90694542Y-54408730D01*
X90909515Y-54410133D01*
X91133248Y-54410919D01*
X91235748Y-54411054D01*
X92402579Y-54411767D01*
X92350058Y-54554642D01*
X92322739Y-54641412D01*
X92303666Y-54735358D01*
X92290689Y-54849370D01*
X92283893Y-54951517D01*
X92270250Y-55205517D01*
X92212780Y-55212143D01*
X92169081Y-55209673D01*
X92147168Y-55180880D01*
X92140985Y-55159227D01*
X92088889Y-55028573D01*
X92001725Y-54909292D01*
X91886580Y-54808889D01*
X91750544Y-54734871D01*
X91734332Y-54728559D01*
X91636174Y-54694460D01*
X91541613Y-54668262D01*
X91443227Y-54649138D01*
X91333591Y-54636258D01*
X91205281Y-54628795D01*
X91050872Y-54625922D01*
X90862942Y-54626810D01*
X90826169Y-54627289D01*
X90671168Y-54629570D01*
X90552076Y-54631996D01*
X90462473Y-54635271D01*
X90395940Y-54640098D01*
X90346057Y-54647180D01*
X90306404Y-54657223D01*
X90270560Y-54670930D01*
X90232105Y-54689005D01*
X90223139Y-54693401D01*
X90083650Y-54784244D01*
X89974102Y-54903430D01*
X89896534Y-55047465D01*
X89852988Y-55212853D01*
X89843847Y-55343069D01*
X89857194Y-55514330D01*
X89898448Y-55663641D01*
X89971265Y-55803750D01*
X89979666Y-55816607D01*
X90051064Y-55914697D01*
X90133666Y-56008830D01*
X90231634Y-56102280D01*
X90349130Y-56198322D01*
X90490317Y-56300230D01*
X90659358Y-56411279D01*
X90860414Y-56534743D01*
X90989680Y-56611193D01*
X91199244Y-56734839D01*
X91375901Y-56841609D01*
X91524096Y-56934547D01*
X91648276Y-57016699D01*
X91752885Y-57091109D01*
X91842370Y-57160822D01*
X91921177Y-57228882D01*
X91993751Y-57298335D01*
X91995323Y-57299913D01*
X92141191Y-57466969D01*
X92245717Y-57634353D01*
X92309842Y-57804495D01*
X92334504Y-57979826D01*
X92323116Y-58148002D01*
X92274340Y-58334730D01*
X92191039Y-58498622D01*
X92072715Y-58640144D01*
X91918872Y-58759763D01*
X91729012Y-58857944D01*
X91502639Y-58935154D01*
X91476500Y-58942124D01*
X91401705Y-58959796D01*
X91326905Y-58972885D01*
X91243190Y-58982201D01*
X91141647Y-58988553D01*
X91013364Y-58992750D01*
X90894417Y-58994967D01*
X90763782Y-58996382D01*
X90643908Y-58996667D01*
X90542735Y-58995882D01*
X90468201Y-58994087D01*
X90428750Y-58991422D01*
X90170516Y-58936456D01*
X89919072Y-58852223D01*
X89683240Y-58742662D01*
X89471843Y-58611712D01*
X89336896Y-58503868D01*
X89276001Y-58442997D01*
X89209668Y-58366597D01*
X89142573Y-58281424D01*
X89079394Y-58194232D01*
X89024810Y-58111778D01*
X88983497Y-58040816D01*
X88960135Y-57988103D01*
X88959400Y-57960394D01*
X88960109Y-57959730D01*
X88983070Y-57945596D01*
X89036180Y-57914921D01*
X89112503Y-57871573D01*
X89205100Y-57819423D01*
X89307035Y-57762341D01*
X89411370Y-57704195D01*
X89511168Y-57648857D01*
X89599491Y-57600195D01*
X89669401Y-57562079D01*
X89713961Y-57538380D01*
X89725772Y-57532640D01*
X89747340Y-57533472D01*
X89761788Y-57561425D01*
X89772888Y-57622138D01*
X89822970Y-57888334D01*
X89895628Y-58121308D01*
X89990426Y-58320190D01*
X90106930Y-58484106D01*
X90244704Y-58612184D01*
X90278711Y-58636054D01*
X90418979Y-58712998D01*
X90564699Y-58757738D01*
X90729684Y-58774275D01*
X90756834Y-58774571D01*
X90927683Y-58759355D01*
X91075923Y-58715051D01*
X91198316Y-58644261D01*
X91291627Y-58549587D01*
X91352617Y-58433631D01*
X91378050Y-58298996D01*
X91378604Y-58274684D01*
X91372255Y-58188918D01*
X91351457Y-58106800D01*
X91313585Y-58025725D01*
X91256015Y-57943087D01*
X91176121Y-57856282D01*
X91071278Y-57762703D01*
X90938862Y-57659747D01*
X90776247Y-57544807D01*
X90580809Y-57415278D01*
X90390438Y-57293976D01*
X90125463Y-57123907D01*
X89895911Y-56968616D01*
X89698714Y-56825267D01*
X89530799Y-56691025D01*
X89389095Y-56563055D01*
X89270532Y-56438520D01*
X89172038Y-56314587D01*
X89090543Y-56188420D01*
X89022976Y-56057183D01*
X89003847Y-56013777D01*
X88980492Y-55954929D01*
X88964703Y-55901436D01*
X88955000Y-55842607D01*
X88949905Y-55767749D01*
X88947938Y-55666167D01*
X88947676Y-55607684D01*
X88947896Y-55493675D01*
X88950269Y-55411416D01*
X88956502Y-55350324D01*
X88968300Y-55299818D01*
X88987371Y-55249317D01*
X89015274Y-55188549D01*
X89106316Y-55039628D01*
X89232567Y-54897828D01*
X89386907Y-54770508D01*
X89476250Y-54712257D01*
X89624417Y-54623665D01*
X89172361Y-54623549D01*
X89023053Y-54623308D01*
X88911029Y-54622385D01*
X88831242Y-54620351D01*
X88778643Y-54616776D01*
X88748184Y-54611231D01*
X88734816Y-54603286D01*
X88733493Y-54592512D01*
X88735577Y-54586392D01*
X88781939Y-54465256D01*
X88813007Y-54358406D01*
X88832414Y-54248890D01*
X88843798Y-54119755D01*
X88846435Y-54069483D01*
X88851906Y-53963490D01*
X88857698Y-53892350D01*
X88865427Y-53848604D01*
X88876707Y-53824792D01*
X88893154Y-53813454D01*
X88902496Y-53810480D01*
X88950323Y-53800625D01*
X88974101Y-53811676D01*
G37*
G04 #@! TD.AperFunction*
X106006666Y-54310751D02*
X106202691Y-54350304D01*
X106387598Y-54424923D01*
X106557216Y-54532882D01*
X106707374Y-54672457D01*
X106833902Y-54841922D01*
X106932630Y-55039551D01*
X106940349Y-55059562D01*
X106966692Y-55131557D01*
X106988678Y-55198370D01*
X107006699Y-55264604D01*
X107021147Y-55334860D01*
X107032414Y-55413741D01*
X107040891Y-55505847D01*
X107046971Y-55615781D01*
X107051045Y-55748145D01*
X107053504Y-55907540D01*
X107054741Y-56098569D01*
X107055148Y-56325832D01*
X107055167Y-56408249D01*
X107055646Y-56620551D01*
X107057029Y-56815409D01*
X107059232Y-56988841D01*
X107062172Y-57136870D01*
X107065765Y-57255517D01*
X107069928Y-57340801D01*
X107074578Y-57388745D01*
X107075828Y-57394504D01*
X107111650Y-57477215D01*
X107168864Y-57538282D01*
X107253826Y-57582093D01*
X107372891Y-57613036D01*
X107399125Y-57617694D01*
X107451497Y-57630387D01*
X107473868Y-57652288D01*
X107478500Y-57693559D01*
X107478500Y-57756100D01*
X105700500Y-57756100D01*
X105700500Y-57694865D01*
X105710464Y-57645177D01*
X105745168Y-57617898D01*
X105811833Y-57608192D01*
X105830282Y-57607934D01*
X105924459Y-57588603D01*
X106012720Y-57535894D01*
X106058465Y-57489085D01*
X106068336Y-57475630D01*
X106076616Y-57460107D01*
X106083442Y-57438917D01*
X106088953Y-57408461D01*
X106093288Y-57365139D01*
X106096586Y-57305353D01*
X106098986Y-57225502D01*
X106100626Y-57121988D01*
X106101646Y-56991212D01*
X106102183Y-56829574D01*
X106102377Y-56633475D01*
X106102367Y-56399316D01*
X106102354Y-56350954D01*
X106102077Y-56097257D01*
X106101342Y-55882288D01*
X106100055Y-55702442D01*
X106098122Y-55554115D01*
X106095449Y-55433702D01*
X106091942Y-55337599D01*
X106087508Y-55262202D01*
X106082052Y-55203907D01*
X106075481Y-55159109D01*
X106070694Y-55136059D01*
X106018269Y-54970924D01*
X105947648Y-54843817D01*
X105858483Y-54754379D01*
X105750426Y-54702250D01*
X105634942Y-54686934D01*
X105506623Y-54707385D01*
X105388282Y-54767537D01*
X105281557Y-54865587D01*
X105188090Y-54999731D01*
X105109517Y-55168166D01*
X105060526Y-55318896D01*
X105049714Y-55360649D01*
X105040723Y-55402936D01*
X105033336Y-55450169D01*
X105027334Y-55506761D01*
X105022500Y-55577123D01*
X105018616Y-55665668D01*
X105015463Y-55776809D01*
X105012825Y-55914958D01*
X105010484Y-56084527D01*
X105008221Y-56289929D01*
X105007115Y-56400859D01*
X105005074Y-56659234D01*
X105004421Y-56876756D01*
X105005177Y-57054887D01*
X105007364Y-57195085D01*
X105011002Y-57298811D01*
X105016114Y-57367524D01*
X105021612Y-57399425D01*
X105070227Y-57491119D01*
X105153898Y-57559387D01*
X105272217Y-57603919D01*
X105298801Y-57609714D01*
X105368730Y-57624885D01*
X105406637Y-57639701D01*
X105422259Y-57660750D01*
X105425333Y-57694624D01*
X105425334Y-57695354D01*
X105425334Y-57756100D01*
X103626167Y-57756100D01*
X103626167Y-57693559D01*
X103631035Y-57651548D01*
X103653831Y-57630367D01*
X103705542Y-57618619D01*
X103824346Y-57595226D01*
X103909571Y-57566113D01*
X103969905Y-57527971D01*
X103987268Y-57511324D01*
X104038917Y-57456337D01*
X104038917Y-56330927D01*
X104038875Y-56083711D01*
X104038657Y-55875022D01*
X104038121Y-55701054D01*
X104037129Y-55558000D01*
X104035540Y-55442054D01*
X104033214Y-55349409D01*
X104030010Y-55276260D01*
X104025790Y-55218798D01*
X104020412Y-55173220D01*
X104013736Y-55135717D01*
X104005624Y-55102483D01*
X103995933Y-55069713D01*
X103992049Y-55057350D01*
X103930168Y-54908550D01*
X103850617Y-54798068D01*
X103753054Y-54725596D01*
X103637136Y-54690827D01*
X103579222Y-54687398D01*
X103446155Y-54708258D01*
X103325941Y-54768840D01*
X103219358Y-54868289D01*
X103127186Y-55005754D01*
X103050205Y-55180379D01*
X103009242Y-55311350D01*
X102998191Y-55353996D01*
X102988988Y-55396247D01*
X102981415Y-55442472D01*
X102975255Y-55497041D01*
X102970292Y-55564325D01*
X102966308Y-55648694D01*
X102963088Y-55754516D01*
X102960413Y-55886163D01*
X102958068Y-56048005D01*
X102955835Y-56244410D01*
X102954037Y-56423838D01*
X102951787Y-56663192D01*
X102950378Y-56863900D01*
X102950251Y-57029647D01*
X102951846Y-57164119D01*
X102955605Y-57271001D01*
X102961969Y-57353978D01*
X102971377Y-57416736D01*
X102984271Y-57462960D01*
X103001092Y-57496335D01*
X103022280Y-57520548D01*
X103048276Y-57539283D01*
X103079521Y-57556225D01*
X103090107Y-57561572D01*
X103164148Y-57590707D01*
X103248979Y-57613097D01*
X103271625Y-57617032D01*
X103332317Y-57628029D01*
X103361917Y-57643336D01*
X103371463Y-57671393D01*
X103372167Y-57693897D01*
X103372167Y-57756100D01*
X101573000Y-57756100D01*
X101573000Y-57693897D01*
X101576469Y-57655843D01*
X101594233Y-57634939D01*
X101637333Y-57622748D01*
X101673542Y-57617032D01*
X101753397Y-57599417D01*
X101830021Y-57573341D01*
X101848855Y-57564737D01*
X101875867Y-57551429D01*
X101899075Y-57538625D01*
X101918767Y-57523204D01*
X101935231Y-57502045D01*
X101948756Y-57472026D01*
X101959630Y-57430026D01*
X101968141Y-57372923D01*
X101974577Y-57297596D01*
X101979227Y-57200923D01*
X101982379Y-57079782D01*
X101984322Y-56931053D01*
X101985342Y-56751613D01*
X101985730Y-56538342D01*
X101985772Y-56288117D01*
X101985750Y-56082281D01*
X101985722Y-55812293D01*
X101985570Y-55581413D01*
X101985193Y-55386414D01*
X101984490Y-55224071D01*
X101983360Y-55091158D01*
X101981700Y-54984450D01*
X101979411Y-54900719D01*
X101976391Y-54836742D01*
X101972539Y-54789291D01*
X101967752Y-54755142D01*
X101961931Y-54731067D01*
X101954974Y-54713842D01*
X101946780Y-54700241D01*
X101942178Y-54693777D01*
X101880956Y-54634698D01*
X101796329Y-54583156D01*
X101706093Y-54548360D01*
X101642599Y-54538767D01*
X101594819Y-54534613D01*
X101576015Y-54514162D01*
X101573000Y-54475267D01*
X101573000Y-54411767D01*
X102948834Y-54411767D01*
X102948834Y-54721079D01*
X103061895Y-54611571D01*
X103223270Y-54483335D01*
X103402556Y-54390181D01*
X103594083Y-54332032D01*
X103792184Y-54308816D01*
X103991189Y-54320456D01*
X104185432Y-54366879D01*
X104369244Y-54448010D01*
X104536957Y-54563774D01*
X104610417Y-54631968D01*
X104677586Y-54706107D01*
X104739307Y-54783808D01*
X104783865Y-54850148D01*
X104789039Y-54859505D01*
X104840661Y-54957356D01*
X104940632Y-54815002D01*
X105074116Y-54650736D01*
X105220769Y-54522018D01*
X105387901Y-54422471D01*
X105393584Y-54419737D01*
X105597941Y-54343742D01*
X105803692Y-54307989D01*
X106006666Y-54310751D01*
G04 #@! TA.AperFunction,EtchedComponent*
G36*
X106006666Y-54310751D02*
G01*
X106202691Y-54350304D01*
X106387598Y-54424923D01*
X106557216Y-54532882D01*
X106707374Y-54672457D01*
X106833902Y-54841922D01*
X106932630Y-55039551D01*
X106940349Y-55059562D01*
X106966692Y-55131557D01*
X106988678Y-55198370D01*
X107006699Y-55264604D01*
X107021147Y-55334860D01*
X107032414Y-55413741D01*
X107040891Y-55505847D01*
X107046971Y-55615781D01*
X107051045Y-55748145D01*
X107053504Y-55907540D01*
X107054741Y-56098569D01*
X107055148Y-56325832D01*
X107055167Y-56408249D01*
X107055646Y-56620551D01*
X107057029Y-56815409D01*
X107059232Y-56988841D01*
X107062172Y-57136870D01*
X107065765Y-57255517D01*
X107069928Y-57340801D01*
X107074578Y-57388745D01*
X107075828Y-57394504D01*
X107111650Y-57477215D01*
X107168864Y-57538282D01*
X107253826Y-57582093D01*
X107372891Y-57613036D01*
X107399125Y-57617694D01*
X107451497Y-57630387D01*
X107473868Y-57652288D01*
X107478500Y-57693559D01*
X107478500Y-57756100D01*
X105700500Y-57756100D01*
X105700500Y-57694865D01*
X105710464Y-57645177D01*
X105745168Y-57617898D01*
X105811833Y-57608192D01*
X105830282Y-57607934D01*
X105924459Y-57588603D01*
X106012720Y-57535894D01*
X106058465Y-57489085D01*
X106068336Y-57475630D01*
X106076616Y-57460107D01*
X106083442Y-57438917D01*
X106088953Y-57408461D01*
X106093288Y-57365139D01*
X106096586Y-57305353D01*
X106098986Y-57225502D01*
X106100626Y-57121988D01*
X106101646Y-56991212D01*
X106102183Y-56829574D01*
X106102377Y-56633475D01*
X106102367Y-56399316D01*
X106102354Y-56350954D01*
X106102077Y-56097257D01*
X106101342Y-55882288D01*
X106100055Y-55702442D01*
X106098122Y-55554115D01*
X106095449Y-55433702D01*
X106091942Y-55337599D01*
X106087508Y-55262202D01*
X106082052Y-55203907D01*
X106075481Y-55159109D01*
X106070694Y-55136059D01*
X106018269Y-54970924D01*
X105947648Y-54843817D01*
X105858483Y-54754379D01*
X105750426Y-54702250D01*
X105634942Y-54686934D01*
X105506623Y-54707385D01*
X105388282Y-54767537D01*
X105281557Y-54865587D01*
X105188090Y-54999731D01*
X105109517Y-55168166D01*
X105060526Y-55318896D01*
X105049714Y-55360649D01*
X105040723Y-55402936D01*
X105033336Y-55450169D01*
X105027334Y-55506761D01*
X105022500Y-55577123D01*
X105018616Y-55665668D01*
X105015463Y-55776809D01*
X105012825Y-55914958D01*
X105010484Y-56084527D01*
X105008221Y-56289929D01*
X105007115Y-56400859D01*
X105005074Y-56659234D01*
X105004421Y-56876756D01*
X105005177Y-57054887D01*
X105007364Y-57195085D01*
X105011002Y-57298811D01*
X105016114Y-57367524D01*
X105021612Y-57399425D01*
X105070227Y-57491119D01*
X105153898Y-57559387D01*
X105272217Y-57603919D01*
X105298801Y-57609714D01*
X105368730Y-57624885D01*
X105406637Y-57639701D01*
X105422259Y-57660750D01*
X105425333Y-57694624D01*
X105425334Y-57695354D01*
X105425334Y-57756100D01*
X103626167Y-57756100D01*
X103626167Y-57693559D01*
X103631035Y-57651548D01*
X103653831Y-57630367D01*
X103705542Y-57618619D01*
X103824346Y-57595226D01*
X103909571Y-57566113D01*
X103969905Y-57527971D01*
X103987268Y-57511324D01*
X104038917Y-57456337D01*
X104038917Y-56330927D01*
X104038875Y-56083711D01*
X104038657Y-55875022D01*
X104038121Y-55701054D01*
X104037129Y-55558000D01*
X104035540Y-55442054D01*
X104033214Y-55349409D01*
X104030010Y-55276260D01*
X104025790Y-55218798D01*
X104020412Y-55173220D01*
X104013736Y-55135717D01*
X104005624Y-55102483D01*
X103995933Y-55069713D01*
X103992049Y-55057350D01*
X103930168Y-54908550D01*
X103850617Y-54798068D01*
X103753054Y-54725596D01*
X103637136Y-54690827D01*
X103579222Y-54687398D01*
X103446155Y-54708258D01*
X103325941Y-54768840D01*
X103219358Y-54868289D01*
X103127186Y-55005754D01*
X103050205Y-55180379D01*
X103009242Y-55311350D01*
X102998191Y-55353996D01*
X102988988Y-55396247D01*
X102981415Y-55442472D01*
X102975255Y-55497041D01*
X102970292Y-55564325D01*
X102966308Y-55648694D01*
X102963088Y-55754516D01*
X102960413Y-55886163D01*
X102958068Y-56048005D01*
X102955835Y-56244410D01*
X102954037Y-56423838D01*
X102951787Y-56663192D01*
X102950378Y-56863900D01*
X102950251Y-57029647D01*
X102951846Y-57164119D01*
X102955605Y-57271001D01*
X102961969Y-57353978D01*
X102971377Y-57416736D01*
X102984271Y-57462960D01*
X103001092Y-57496335D01*
X103022280Y-57520548D01*
X103048276Y-57539283D01*
X103079521Y-57556225D01*
X103090107Y-57561572D01*
X103164148Y-57590707D01*
X103248979Y-57613097D01*
X103271625Y-57617032D01*
X103332317Y-57628029D01*
X103361917Y-57643336D01*
X103371463Y-57671393D01*
X103372167Y-57693897D01*
X103372167Y-57756100D01*
X101573000Y-57756100D01*
X101573000Y-57693897D01*
X101576469Y-57655843D01*
X101594233Y-57634939D01*
X101637333Y-57622748D01*
X101673542Y-57617032D01*
X101753397Y-57599417D01*
X101830021Y-57573341D01*
X101848855Y-57564737D01*
X101875867Y-57551429D01*
X101899075Y-57538625D01*
X101918767Y-57523204D01*
X101935231Y-57502045D01*
X101948756Y-57472026D01*
X101959630Y-57430026D01*
X101968141Y-57372923D01*
X101974577Y-57297596D01*
X101979227Y-57200923D01*
X101982379Y-57079782D01*
X101984322Y-56931053D01*
X101985342Y-56751613D01*
X101985730Y-56538342D01*
X101985772Y-56288117D01*
X101985750Y-56082281D01*
X101985722Y-55812293D01*
X101985570Y-55581413D01*
X101985193Y-55386414D01*
X101984490Y-55224071D01*
X101983360Y-55091158D01*
X101981700Y-54984450D01*
X101979411Y-54900719D01*
X101976391Y-54836742D01*
X101972539Y-54789291D01*
X101967752Y-54755142D01*
X101961931Y-54731067D01*
X101954974Y-54713842D01*
X101946780Y-54700241D01*
X101942178Y-54693777D01*
X101880956Y-54634698D01*
X101796329Y-54583156D01*
X101706093Y-54548360D01*
X101642599Y-54538767D01*
X101594819Y-54534613D01*
X101576015Y-54514162D01*
X101573000Y-54475267D01*
X101573000Y-54411767D01*
X102948834Y-54411767D01*
X102948834Y-54721079D01*
X103061895Y-54611571D01*
X103223270Y-54483335D01*
X103402556Y-54390181D01*
X103594083Y-54332032D01*
X103792184Y-54308816D01*
X103991189Y-54320456D01*
X104185432Y-54366879D01*
X104369244Y-54448010D01*
X104536957Y-54563774D01*
X104610417Y-54631968D01*
X104677586Y-54706107D01*
X104739307Y-54783808D01*
X104783865Y-54850148D01*
X104789039Y-54859505D01*
X104840661Y-54957356D01*
X104940632Y-54815002D01*
X105074116Y-54650736D01*
X105220769Y-54522018D01*
X105387901Y-54422471D01*
X105393584Y-54419737D01*
X105597941Y-54343742D01*
X105803692Y-54307989D01*
X106006666Y-54310751D01*
G37*
G04 #@! TD.AperFunction*
X88936500Y-131881767D02*
X89465667Y-131881767D01*
X89465667Y-128918434D01*
X90037167Y-128918434D01*
X90037167Y-131881767D01*
X90566334Y-131881767D01*
X90566334Y-128918434D01*
X91159000Y-128918434D01*
X91159000Y-131881767D01*
X92626692Y-131881767D01*
X92914757Y-131596331D01*
X93202822Y-131310896D01*
X93748472Y-131857760D01*
X94035944Y-131584881D01*
X94323417Y-131312001D01*
X94598878Y-131586311D01*
X94874339Y-131860622D01*
X95148917Y-131585434D01*
X95423494Y-131310245D01*
X95985000Y-131870595D01*
X96265747Y-131590426D01*
X96546495Y-131310257D01*
X97116829Y-131881767D01*
X100631672Y-131881767D01*
X101202006Y-131310257D01*
X101477461Y-131584912D01*
X101752917Y-131859568D01*
X102038667Y-131586630D01*
X102324417Y-131313691D01*
X102599878Y-131587156D01*
X102875339Y-131860622D01*
X103149917Y-131585434D01*
X103424494Y-131310245D01*
X103986000Y-131870595D01*
X104266747Y-131590426D01*
X104547495Y-131310257D01*
X105117829Y-131881767D01*
X106304338Y-131881767D01*
X106874682Y-131310247D01*
X107447298Y-131881767D01*
X108917834Y-131881767D01*
X108917834Y-128918434D01*
X109489334Y-128918434D01*
X109489334Y-131881767D01*
X110018500Y-131881767D01*
X110018500Y-128918434D01*
X110611167Y-128918434D01*
X110611167Y-131881767D01*
X111140334Y-131881767D01*
X111140334Y-128918434D01*
X111733000Y-128918434D01*
X111733000Y-131881767D01*
X112786042Y-131881061D01*
X113839084Y-131880356D01*
X114688039Y-130404686D01*
X115536995Y-128929017D01*
X115828248Y-128923112D01*
X115944531Y-128921190D01*
X116024599Y-128921376D01*
X116074546Y-128924296D01*
X116100463Y-128930576D01*
X116108445Y-128940844D01*
X116106260Y-128951711D01*
X116093877Y-128974990D01*
X116061939Y-129032159D01*
X116012037Y-129120431D01*
X115945763Y-129237023D01*
X115864706Y-129379149D01*
X115770459Y-129544025D01*
X115664612Y-129728866D01*
X115548757Y-129930886D01*
X115424484Y-130147303D01*
X115293384Y-130375330D01*
X115221727Y-130499854D01*
X115059756Y-130781562D01*
X114918060Y-131028761D01*
X114795528Y-131243474D01*
X114691049Y-131427727D01*
X114603512Y-131583544D01*
X114531805Y-131712949D01*
X114474817Y-131817967D01*
X114431437Y-131900622D01*
X114400554Y-131962938D01*
X114381056Y-132006940D01*
X114371832Y-132034653D01*
X114371770Y-132048101D01*
X114371813Y-132048171D01*
X114385491Y-132071617D01*
X114418580Y-132128934D01*
X114469439Y-132217268D01*
X114536429Y-132333762D01*
X114617908Y-132475562D01*
X114712236Y-132639810D01*
X114817773Y-132823650D01*
X114932878Y-133024228D01*
X115055912Y-133238688D01*
X115185233Y-133464172D01*
X115224566Y-133532767D01*
X115356030Y-133761994D01*
X115482136Y-133981788D01*
X115601192Y-134189204D01*
X115711504Y-134381298D01*
X115811380Y-134555124D01*
X115899127Y-134707738D01*
X115973053Y-134836195D01*
X116031464Y-134937550D01*
X116072668Y-135008859D01*
X116094972Y-135047175D01*
X116097530Y-135051475D01*
X116139120Y-135120267D01*
X115547700Y-135120267D01*
X114693918Y-133638600D01*
X113840136Y-132156934D01*
X107453074Y-132156934D01*
X107166837Y-132432050D01*
X106880600Y-132707167D01*
X106589447Y-132432050D01*
X106298295Y-132156934D01*
X105116425Y-132156934D01*
X105032754Y-132243424D01*
X104984104Y-132291976D01*
X104913691Y-132360031D01*
X104830990Y-132438519D01*
X104746412Y-132517504D01*
X104543741Y-132705093D01*
X104263207Y-132438270D01*
X103982673Y-132171448D01*
X103435859Y-132717048D01*
X103271721Y-132558553D01*
X103187235Y-132477176D01*
X103098197Y-132391750D01*
X103018630Y-132315715D01*
X102987184Y-132285803D01*
X102866785Y-132171548D01*
X102592339Y-132441018D01*
X102317894Y-132710488D01*
X102038738Y-132444342D01*
X101759582Y-132178195D01*
X101483126Y-132442085D01*
X101206671Y-132705974D01*
X100625629Y-132156934D01*
X99160000Y-132156934D01*
X99160000Y-135120267D01*
X98588500Y-135120267D01*
X98588500Y-132156934D01*
X97121995Y-132156934D01*
X96831228Y-132431766D01*
X96540460Y-132706599D01*
X95981940Y-132171181D01*
X95709723Y-132442794D01*
X95437506Y-132714406D01*
X95149117Y-132442484D01*
X94860727Y-132170562D01*
X94315619Y-132714460D01*
X94036976Y-132446014D01*
X93758332Y-132177567D01*
X93479132Y-132440826D01*
X93199932Y-132704084D01*
X92623316Y-132156934D01*
X86873318Y-132156934D01*
X86315086Y-132714016D01*
X85753000Y-132177480D01*
X85646125Y-132278137D01*
X85584309Y-132336779D01*
X85504424Y-132413152D01*
X85418763Y-132495484D01*
X85367978Y-132544519D01*
X85196706Y-132710245D01*
X84917167Y-132440935D01*
X84637628Y-132171626D01*
X84363903Y-132442464D01*
X84090179Y-132713303D01*
X83802587Y-132442132D01*
X83514994Y-132170961D01*
X83242868Y-132442483D01*
X82970741Y-132714006D01*
X82689646Y-132445687D01*
X82408550Y-132177369D01*
X82280567Y-132299340D01*
X82203429Y-132373006D01*
X82112511Y-132460055D01*
X82024515Y-132544493D01*
X82003813Y-132564394D01*
X81855043Y-132707477D01*
X81566450Y-132432205D01*
X81277857Y-132156934D01*
X79813667Y-132156934D01*
X79813667Y-135120267D01*
X79221000Y-135120267D01*
X79221000Y-132156934D01*
X77114867Y-132156934D01*
X75413243Y-135109684D01*
X75126372Y-135115572D01*
X75015836Y-135116478D01*
X74926893Y-135114511D01*
X74866101Y-135109983D01*
X74840015Y-135103204D01*
X74839500Y-135101958D01*
X74849808Y-135081038D01*
X74879699Y-135026169D01*
X74927621Y-134940086D01*
X74992025Y-134825521D01*
X75071360Y-134685208D01*
X75164075Y-134521880D01*
X75268620Y-134338271D01*
X75383445Y-134137113D01*
X75506999Y-133921140D01*
X75637731Y-133693085D01*
X75719108Y-133551351D01*
X75878870Y-133273018D01*
X76018567Y-133029051D01*
X76139416Y-132817224D01*
X76242631Y-132635307D01*
X76329430Y-132481072D01*
X76401027Y-132352291D01*
X76458639Y-132246735D01*
X76503481Y-132162175D01*
X76536770Y-132096384D01*
X76559720Y-132047132D01*
X76573548Y-132012191D01*
X76579469Y-131989333D01*
X76578700Y-131976330D01*
X76578568Y-131976028D01*
X76565064Y-131951143D01*
X76532040Y-131892433D01*
X76481126Y-131802747D01*
X76413950Y-131684930D01*
X76332144Y-131541831D01*
X76237338Y-131376295D01*
X76131159Y-131191171D01*
X76015240Y-130989306D01*
X75891208Y-130773546D01*
X75760695Y-130546739D01*
X75708744Y-130456519D01*
X75576377Y-130226561D01*
X75450030Y-130006807D01*
X75331313Y-129800075D01*
X75221836Y-129609180D01*
X75123210Y-129436939D01*
X75037046Y-129286167D01*
X74964953Y-129159681D01*
X74908543Y-129060297D01*
X74869425Y-128990831D01*
X74849211Y-128954100D01*
X74846784Y-128949218D01*
X74846651Y-128936459D01*
X74861769Y-128927901D01*
X74898096Y-128922988D01*
X74961589Y-128921163D01*
X75058203Y-128921870D01*
X75126346Y-128923112D01*
X75418191Y-128929017D01*
X77114917Y-131880137D01*
X81278653Y-131881767D01*
X81568361Y-131596622D01*
X81858069Y-131311478D01*
X82130485Y-131584500D01*
X82402902Y-131857522D01*
X82978084Y-131307574D01*
X83516790Y-131871184D01*
X83797962Y-131590817D01*
X84079134Y-131310451D01*
X84635222Y-131866539D01*
X84919091Y-131589288D01*
X85202960Y-131312036D01*
X85475147Y-131584829D01*
X85747334Y-131857621D01*
X86033940Y-131583284D01*
X86320546Y-131308946D01*
X86607505Y-131595356D01*
X86894465Y-131881767D01*
X88343834Y-131881767D01*
X88343834Y-128918434D01*
X88936500Y-128918434D01*
X88936500Y-131881767D01*
G04 #@! TA.AperFunction,EtchedComponent*
G36*
X88936500Y-131881767D02*
G01*
X89465667Y-131881767D01*
X89465667Y-128918434D01*
X90037167Y-128918434D01*
X90037167Y-131881767D01*
X90566334Y-131881767D01*
X90566334Y-128918434D01*
X91159000Y-128918434D01*
X91159000Y-131881767D01*
X92626692Y-131881767D01*
X92914757Y-131596331D01*
X93202822Y-131310896D01*
X93748472Y-131857760D01*
X94035944Y-131584881D01*
X94323417Y-131312001D01*
X94598878Y-131586311D01*
X94874339Y-131860622D01*
X95148917Y-131585434D01*
X95423494Y-131310245D01*
X95985000Y-131870595D01*
X96265747Y-131590426D01*
X96546495Y-131310257D01*
X97116829Y-131881767D01*
X100631672Y-131881767D01*
X101202006Y-131310257D01*
X101477461Y-131584912D01*
X101752917Y-131859568D01*
X102038667Y-131586630D01*
X102324417Y-131313691D01*
X102599878Y-131587156D01*
X102875339Y-131860622D01*
X103149917Y-131585434D01*
X103424494Y-131310245D01*
X103986000Y-131870595D01*
X104266747Y-131590426D01*
X104547495Y-131310257D01*
X105117829Y-131881767D01*
X106304338Y-131881767D01*
X106874682Y-131310247D01*
X107447298Y-131881767D01*
X108917834Y-131881767D01*
X108917834Y-128918434D01*
X109489334Y-128918434D01*
X109489334Y-131881767D01*
X110018500Y-131881767D01*
X110018500Y-128918434D01*
X110611167Y-128918434D01*
X110611167Y-131881767D01*
X111140334Y-131881767D01*
X111140334Y-128918434D01*
X111733000Y-128918434D01*
X111733000Y-131881767D01*
X112786042Y-131881061D01*
X113839084Y-131880356D01*
X114688039Y-130404686D01*
X115536995Y-128929017D01*
X115828248Y-128923112D01*
X115944531Y-128921190D01*
X116024599Y-128921376D01*
X116074546Y-128924296D01*
X116100463Y-128930576D01*
X116108445Y-128940844D01*
X116106260Y-128951711D01*
X116093877Y-128974990D01*
X116061939Y-129032159D01*
X116012037Y-129120431D01*
X115945763Y-129237023D01*
X115864706Y-129379149D01*
X115770459Y-129544025D01*
X115664612Y-129728866D01*
X115548757Y-129930886D01*
X115424484Y-130147303D01*
X115293384Y-130375330D01*
X115221727Y-130499854D01*
X115059756Y-130781562D01*
X114918060Y-131028761D01*
X114795528Y-131243474D01*
X114691049Y-131427727D01*
X114603512Y-131583544D01*
X114531805Y-131712949D01*
X114474817Y-131817967D01*
X114431437Y-131900622D01*
X114400554Y-131962938D01*
X114381056Y-132006940D01*
X114371832Y-132034653D01*
X114371770Y-132048101D01*
X114371813Y-132048171D01*
X114385491Y-132071617D01*
X114418580Y-132128934D01*
X114469439Y-132217268D01*
X114536429Y-132333762D01*
X114617908Y-132475562D01*
X114712236Y-132639810D01*
X114817773Y-132823650D01*
X114932878Y-133024228D01*
X115055912Y-133238688D01*
X115185233Y-133464172D01*
X115224566Y-133532767D01*
X115356030Y-133761994D01*
X115482136Y-133981788D01*
X115601192Y-134189204D01*
X115711504Y-134381298D01*
X115811380Y-134555124D01*
X115899127Y-134707738D01*
X115973053Y-134836195D01*
X116031464Y-134937550D01*
X116072668Y-135008859D01*
X116094972Y-135047175D01*
X116097530Y-135051475D01*
X116139120Y-135120267D01*
X115547700Y-135120267D01*
X114693918Y-133638600D01*
X113840136Y-132156934D01*
X107453074Y-132156934D01*
X107166837Y-132432050D01*
X106880600Y-132707167D01*
X106589447Y-132432050D01*
X106298295Y-132156934D01*
X105116425Y-132156934D01*
X105032754Y-132243424D01*
X104984104Y-132291976D01*
X104913691Y-132360031D01*
X104830990Y-132438519D01*
X104746412Y-132517504D01*
X104543741Y-132705093D01*
X104263207Y-132438270D01*
X103982673Y-132171448D01*
X103435859Y-132717048D01*
X103271721Y-132558553D01*
X103187235Y-132477176D01*
X103098197Y-132391750D01*
X103018630Y-132315715D01*
X102987184Y-132285803D01*
X102866785Y-132171548D01*
X102592339Y-132441018D01*
X102317894Y-132710488D01*
X102038738Y-132444342D01*
X101759582Y-132178195D01*
X101483126Y-132442085D01*
X101206671Y-132705974D01*
X100625629Y-132156934D01*
X99160000Y-132156934D01*
X99160000Y-135120267D01*
X98588500Y-135120267D01*
X98588500Y-132156934D01*
X97121995Y-132156934D01*
X96831228Y-132431766D01*
X96540460Y-132706599D01*
X95981940Y-132171181D01*
X95709723Y-132442794D01*
X95437506Y-132714406D01*
X95149117Y-132442484D01*
X94860727Y-132170562D01*
X94315619Y-132714460D01*
X94036976Y-132446014D01*
X93758332Y-132177567D01*
X93479132Y-132440826D01*
X93199932Y-132704084D01*
X92623316Y-132156934D01*
X86873318Y-132156934D01*
X86315086Y-132714016D01*
X85753000Y-132177480D01*
X85646125Y-132278137D01*
X85584309Y-132336779D01*
X85504424Y-132413152D01*
X85418763Y-132495484D01*
X85367978Y-132544519D01*
X85196706Y-132710245D01*
X84917167Y-132440935D01*
X84637628Y-132171626D01*
X84363903Y-132442464D01*
X84090179Y-132713303D01*
X83802587Y-132442132D01*
X83514994Y-132170961D01*
X83242868Y-132442483D01*
X82970741Y-132714006D01*
X82689646Y-132445687D01*
X82408550Y-132177369D01*
X82280567Y-132299340D01*
X82203429Y-132373006D01*
X82112511Y-132460055D01*
X82024515Y-132544493D01*
X82003813Y-132564394D01*
X81855043Y-132707477D01*
X81566450Y-132432205D01*
X81277857Y-132156934D01*
X79813667Y-132156934D01*
X79813667Y-135120267D01*
X79221000Y-135120267D01*
X79221000Y-132156934D01*
X77114867Y-132156934D01*
X75413243Y-135109684D01*
X75126372Y-135115572D01*
X75015836Y-135116478D01*
X74926893Y-135114511D01*
X74866101Y-135109983D01*
X74840015Y-135103204D01*
X74839500Y-135101958D01*
X74849808Y-135081038D01*
X74879699Y-135026169D01*
X74927621Y-134940086D01*
X74992025Y-134825521D01*
X75071360Y-134685208D01*
X75164075Y-134521880D01*
X75268620Y-134338271D01*
X75383445Y-134137113D01*
X75506999Y-133921140D01*
X75637731Y-133693085D01*
X75719108Y-133551351D01*
X75878870Y-133273018D01*
X76018567Y-133029051D01*
X76139416Y-132817224D01*
X76242631Y-132635307D01*
X76329430Y-132481072D01*
X76401027Y-132352291D01*
X76458639Y-132246735D01*
X76503481Y-132162175D01*
X76536770Y-132096384D01*
X76559720Y-132047132D01*
X76573548Y-132012191D01*
X76579469Y-131989333D01*
X76578700Y-131976330D01*
X76578568Y-131976028D01*
X76565064Y-131951143D01*
X76532040Y-131892433D01*
X76481126Y-131802747D01*
X76413950Y-131684930D01*
X76332144Y-131541831D01*
X76237338Y-131376295D01*
X76131159Y-131191171D01*
X76015240Y-130989306D01*
X75891208Y-130773546D01*
X75760695Y-130546739D01*
X75708744Y-130456519D01*
X75576377Y-130226561D01*
X75450030Y-130006807D01*
X75331313Y-129800075D01*
X75221836Y-129609180D01*
X75123210Y-129436939D01*
X75037046Y-129286167D01*
X74964953Y-129159681D01*
X74908543Y-129060297D01*
X74869425Y-128990831D01*
X74849211Y-128954100D01*
X74846784Y-128949218D01*
X74846651Y-128936459D01*
X74861769Y-128927901D01*
X74898096Y-128922988D01*
X74961589Y-128921163D01*
X75058203Y-128921870D01*
X75126346Y-128923112D01*
X75418191Y-128929017D01*
X77114917Y-131880137D01*
X81278653Y-131881767D01*
X81568361Y-131596622D01*
X81858069Y-131311478D01*
X82130485Y-131584500D01*
X82402902Y-131857522D01*
X82978084Y-131307574D01*
X83516790Y-131871184D01*
X83797962Y-131590817D01*
X84079134Y-131310451D01*
X84635222Y-131866539D01*
X84919091Y-131589288D01*
X85202960Y-131312036D01*
X85475147Y-131584829D01*
X85747334Y-131857621D01*
X86033940Y-131583284D01*
X86320546Y-131308946D01*
X86607505Y-131595356D01*
X86894465Y-131881767D01*
X88343834Y-131881767D01*
X88343834Y-128918434D01*
X88936500Y-128918434D01*
X88936500Y-131881767D01*
G37*
G04 #@! TD.AperFunction*
X73984089Y-61110695D02*
X74037812Y-61140267D01*
X74121808Y-61187329D01*
X74232872Y-61250063D01*
X74367799Y-61326649D01*
X74523384Y-61415268D01*
X74696421Y-61514100D01*
X74883706Y-61621326D01*
X75082034Y-61735127D01*
X75088708Y-61738961D01*
X75287660Y-61853033D01*
X75475966Y-61960579D01*
X75650384Y-62059775D01*
X75807674Y-62148797D01*
X75944592Y-62225823D01*
X76057898Y-62289027D01*
X76144349Y-62336588D01*
X76200703Y-62366681D01*
X76223718Y-62377482D01*
X76223843Y-62377489D01*
X76245958Y-62367191D01*
X76301453Y-62337520D01*
X76387070Y-62290316D01*
X76499552Y-62227413D01*
X76635641Y-62150651D01*
X76792080Y-62061866D01*
X76965611Y-61962896D01*
X77152976Y-61855577D01*
X77346571Y-61744253D01*
X77544208Y-61630437D01*
X77731030Y-61522946D01*
X77903795Y-61423639D01*
X78059263Y-61334373D01*
X78194195Y-61257005D01*
X78305349Y-61193395D01*
X78389487Y-61145399D01*
X78443366Y-61114876D01*
X78463688Y-61103707D01*
X78470573Y-61120227D01*
X78475044Y-61170611D01*
X78476624Y-61246435D01*
X78475638Y-61314485D01*
X78469584Y-61532572D01*
X76331750Y-62765140D01*
X76326189Y-63521799D01*
X76324826Y-63720775D01*
X76324075Y-63881419D01*
X76324107Y-64007727D01*
X76325092Y-64103699D01*
X76327201Y-64173332D01*
X76330603Y-64220624D01*
X76335469Y-64249574D01*
X76341970Y-64264179D01*
X76350275Y-64268438D01*
X76357939Y-64267202D01*
X76392765Y-64257768D01*
X76462444Y-64239790D01*
X76562225Y-64214448D01*
X76687355Y-64182919D01*
X76833083Y-64146383D01*
X76994657Y-64106017D01*
X77167325Y-64063000D01*
X77346334Y-64018511D01*
X77526934Y-63973727D01*
X77704371Y-63929828D01*
X77873895Y-63887991D01*
X78030753Y-63849395D01*
X78170192Y-63815218D01*
X78287463Y-63786638D01*
X78377811Y-63764835D01*
X78436486Y-63750986D01*
X78458666Y-63746267D01*
X78468910Y-63766487D01*
X78476150Y-63823501D01*
X78479823Y-63911840D01*
X78480167Y-63954826D01*
X78480167Y-64163385D01*
X77400781Y-64436367D01*
X76321396Y-64709350D01*
X76321281Y-65248721D01*
X76321167Y-65788093D01*
X76525708Y-65993405D01*
X76730250Y-66198716D01*
X76601684Y-66343033D01*
X76533353Y-66418319D01*
X76465251Y-66491001D01*
X76409413Y-66548296D01*
X76397142Y-66560294D01*
X76321167Y-66633238D01*
X76321167Y-67683267D01*
X78481648Y-67683267D01*
X78475616Y-67900225D01*
X78469584Y-68117184D01*
X77395375Y-68122669D01*
X76321167Y-68128155D01*
X76321167Y-68743221D01*
X76321305Y-68920743D01*
X76321899Y-69060341D01*
X76323219Y-69166424D01*
X76325537Y-69243401D01*
X76329122Y-69295681D01*
X76334245Y-69327674D01*
X76341176Y-69343787D01*
X76350186Y-69348430D01*
X76358209Y-69347117D01*
X76393026Y-69337686D01*
X76462698Y-69319713D01*
X76562470Y-69294375D01*
X76687592Y-69262851D01*
X76833311Y-69226319D01*
X76994875Y-69185958D01*
X77167531Y-69142946D01*
X77346528Y-69098462D01*
X77527114Y-69053683D01*
X77704536Y-69009789D01*
X77874043Y-68967957D01*
X78030882Y-68929366D01*
X78170301Y-68895195D01*
X78287548Y-68866621D01*
X78377871Y-68844823D01*
X78436518Y-68830980D01*
X78458666Y-68826267D01*
X78468879Y-68846500D01*
X78476108Y-68903605D01*
X78479802Y-68992191D01*
X78480167Y-69036939D01*
X78480167Y-69247610D01*
X78411375Y-69266271D01*
X78377517Y-69275012D01*
X78306863Y-69292907D01*
X78203697Y-69318882D01*
X78072303Y-69351863D01*
X77916964Y-69390776D01*
X77741965Y-69434547D01*
X77551589Y-69482102D01*
X77350120Y-69532366D01*
X77331875Y-69536915D01*
X76321167Y-69788899D01*
X76321167Y-69974333D01*
X76322318Y-70056999D01*
X76325395Y-70120686D01*
X76329835Y-70155820D01*
X76332071Y-70159767D01*
X76354115Y-70154779D01*
X76413339Y-70140458D01*
X76505860Y-70117763D01*
X76627796Y-70087657D01*
X76775265Y-70051101D01*
X76944384Y-70009056D01*
X77131270Y-69962484D01*
X77332041Y-69912345D01*
X77400667Y-69895184D01*
X77605196Y-69844075D01*
X77797145Y-69796216D01*
X77972628Y-69752569D01*
X78127759Y-69714094D01*
X78258651Y-69681754D01*
X78361420Y-69656509D01*
X78432178Y-69639322D01*
X78467040Y-69631153D01*
X78470003Y-69630600D01*
X78474297Y-69650272D01*
X78476671Y-69703378D01*
X78476893Y-69781051D01*
X78475616Y-69846321D01*
X78469584Y-70062042D01*
X77400667Y-70329133D01*
X76331750Y-70596225D01*
X76326112Y-71134777D01*
X76320473Y-71673329D01*
X76521903Y-71873922D01*
X76596114Y-71949322D01*
X76658004Y-72015059D01*
X76701998Y-72064993D01*
X76722520Y-72092985D01*
X76723334Y-72095701D01*
X76709155Y-72117842D01*
X76670372Y-72163351D01*
X76612615Y-72225964D01*
X76541512Y-72299418D01*
X76527960Y-72313077D01*
X76332586Y-72509267D01*
X76733102Y-72911455D01*
X76527134Y-73118198D01*
X76321167Y-73324941D01*
X76321553Y-73991312D01*
X76321939Y-74657684D01*
X78480167Y-75899628D01*
X78480167Y-76109447D01*
X78478935Y-76197878D01*
X78475616Y-76267902D01*
X78470773Y-76310522D01*
X78467025Y-76319267D01*
X78446826Y-76308992D01*
X78393159Y-76279382D01*
X78309225Y-76232257D01*
X78198225Y-76169436D01*
X78063359Y-76092741D01*
X77907828Y-76003991D01*
X77734833Y-75905007D01*
X77547573Y-75797609D01*
X77349250Y-75683617D01*
X77341184Y-75678975D01*
X77142552Y-75564843D01*
X76954885Y-75457336D01*
X76781379Y-75358263D01*
X76625226Y-75269434D01*
X76489624Y-75192657D01*
X76377767Y-75129741D01*
X76292849Y-75082494D01*
X76238066Y-75052726D01*
X76216613Y-75042245D01*
X76216489Y-75042254D01*
X76196484Y-75053160D01*
X76142993Y-75083347D01*
X76059226Y-75130984D01*
X75948387Y-75194234D01*
X75813685Y-75271266D01*
X75658324Y-75360244D01*
X75485514Y-75459335D01*
X75298459Y-75566706D01*
X75100366Y-75680522D01*
X75096846Y-75682546D01*
X74898394Y-75796444D01*
X74710711Y-75903815D01*
X74537028Y-76002832D01*
X74380576Y-76091670D01*
X74244588Y-76168502D01*
X74132295Y-76231504D01*
X74046928Y-76278849D01*
X73991720Y-76308711D01*
X73969901Y-76319265D01*
X73969849Y-76319267D01*
X73961473Y-76299650D01*
X73954923Y-76246976D01*
X73951106Y-76170512D01*
X73950500Y-76121464D01*
X73951899Y-76023715D01*
X73957053Y-75959337D01*
X73967401Y-75919431D01*
X73984382Y-75895096D01*
X73987542Y-75892280D01*
X74012349Y-75876155D01*
X74070470Y-75840987D01*
X74158485Y-75788776D01*
X74272973Y-75721520D01*
X74410513Y-75641218D01*
X74567686Y-75549868D01*
X74741070Y-75449469D01*
X74927246Y-75342018D01*
X75067042Y-75261554D01*
X76109500Y-74662209D01*
X76109500Y-73329717D01*
X75919000Y-73123100D01*
X75848482Y-73045332D01*
X75789762Y-72978129D01*
X75748197Y-72927805D01*
X75729141Y-72900674D01*
X75728500Y-72898502D01*
X75742630Y-72877404D01*
X75781152Y-72833026D01*
X75838267Y-72771764D01*
X75908177Y-72700011D01*
X75911855Y-72696313D01*
X76095209Y-72512105D01*
X75966916Y-72367811D01*
X75902326Y-72296341D01*
X75841567Y-72231135D01*
X75794837Y-72183074D01*
X75783561Y-72172202D01*
X75746714Y-72132079D01*
X75728823Y-72101240D01*
X75728500Y-72098517D01*
X75742681Y-72075837D01*
X75781422Y-72029952D01*
X75839018Y-71967259D01*
X75909765Y-71894152D01*
X75919380Y-71884469D01*
X76110259Y-71692792D01*
X76104588Y-71171344D01*
X76098917Y-70649897D01*
X75051167Y-70912131D01*
X74847047Y-70963106D01*
X74655036Y-71010838D01*
X74479111Y-71054355D01*
X74323251Y-71092683D01*
X74191432Y-71124848D01*
X74087630Y-71149877D01*
X74015825Y-71166797D01*
X73979992Y-71174632D01*
X73976959Y-71175066D01*
X73963966Y-71162698D01*
X73955649Y-71121525D01*
X73951394Y-71046673D01*
X73950500Y-70964916D01*
X73950500Y-70754065D01*
X74029875Y-70733275D01*
X74066003Y-70724127D01*
X74138865Y-70705945D01*
X74244088Y-70679811D01*
X74377298Y-70646808D01*
X74534123Y-70608018D01*
X74710191Y-70564523D01*
X74901127Y-70517407D01*
X75102559Y-70467750D01*
X75109375Y-70466071D01*
X76109500Y-70219657D01*
X76109500Y-70030962D01*
X76107854Y-69947610D01*
X76103447Y-69883255D01*
X76097077Y-69847339D01*
X76093625Y-69842968D01*
X76070589Y-69848102D01*
X76010421Y-69862577D01*
X75917045Y-69885423D01*
X75794387Y-69915668D01*
X75646371Y-69952341D01*
X75476925Y-69994471D01*
X75289971Y-70041087D01*
X75089437Y-70091219D01*
X75030000Y-70106101D01*
X74826349Y-70156719D01*
X74635115Y-70203498D01*
X74460220Y-70245529D01*
X74305590Y-70281905D01*
X74175149Y-70311719D01*
X74072821Y-70334064D01*
X74002531Y-70348032D01*
X73968203Y-70352717D01*
X73965536Y-70352211D01*
X73958870Y-70325148D01*
X73954847Y-70266085D01*
X73953973Y-70185296D01*
X73954953Y-70137442D01*
X73961084Y-69938996D01*
X75035292Y-69674697D01*
X76109500Y-69410399D01*
X76109500Y-66613468D01*
X75919000Y-66423850D01*
X75846929Y-66350464D01*
X75787357Y-66286668D01*
X75746030Y-66238845D01*
X75728696Y-66213380D01*
X75728500Y-66212184D01*
X75742738Y-66189669D01*
X75781623Y-66144070D01*
X75839407Y-66081770D01*
X75910345Y-66009154D01*
X75919000Y-66000517D01*
X76109500Y-65810899D01*
X76109500Y-65286583D01*
X76108888Y-65142700D01*
X76107167Y-65013977D01*
X76104510Y-64906094D01*
X76101088Y-64824731D01*
X76097074Y-64775568D01*
X76093625Y-64763229D01*
X76070584Y-64768392D01*
X76010399Y-64782855D01*
X75917000Y-64805649D01*
X75794311Y-64835805D01*
X75646261Y-64872356D01*
X75476776Y-64914333D01*
X75289783Y-64960769D01*
X75089209Y-65010695D01*
X75030000Y-65025454D01*
X74826318Y-65075871D01*
X74635057Y-65122493D01*
X74460142Y-65164414D01*
X74305500Y-65200726D01*
X74175058Y-65230524D01*
X74072740Y-65252900D01*
X74002473Y-65266947D01*
X73968184Y-65271759D01*
X73965536Y-65271303D01*
X73958879Y-65244665D01*
X73954855Y-65185952D01*
X73953969Y-65105369D01*
X73954953Y-65056996D01*
X73961084Y-64858103D01*
X75035292Y-64593659D01*
X76109500Y-64329214D01*
X76109151Y-63545615D01*
X76108803Y-62762017D01*
X75029651Y-62140945D01*
X73950500Y-61519873D01*
X73950500Y-61310153D01*
X73951751Y-61221746D01*
X73955123Y-61151746D01*
X73960043Y-61109156D01*
X73963844Y-61100434D01*
X73984089Y-61110695D01*
G04 #@! TA.AperFunction,EtchedComponent*
G36*
X73984089Y-61110695D02*
G01*
X74037812Y-61140267D01*
X74121808Y-61187329D01*
X74232872Y-61250063D01*
X74367799Y-61326649D01*
X74523384Y-61415268D01*
X74696421Y-61514100D01*
X74883706Y-61621326D01*
X75082034Y-61735127D01*
X75088708Y-61738961D01*
X75287660Y-61853033D01*
X75475966Y-61960579D01*
X75650384Y-62059775D01*
X75807674Y-62148797D01*
X75944592Y-62225823D01*
X76057898Y-62289027D01*
X76144349Y-62336588D01*
X76200703Y-62366681D01*
X76223718Y-62377482D01*
X76223843Y-62377489D01*
X76245958Y-62367191D01*
X76301453Y-62337520D01*
X76387070Y-62290316D01*
X76499552Y-62227413D01*
X76635641Y-62150651D01*
X76792080Y-62061866D01*
X76965611Y-61962896D01*
X77152976Y-61855577D01*
X77346571Y-61744253D01*
X77544208Y-61630437D01*
X77731030Y-61522946D01*
X77903795Y-61423639D01*
X78059263Y-61334373D01*
X78194195Y-61257005D01*
X78305349Y-61193395D01*
X78389487Y-61145399D01*
X78443366Y-61114876D01*
X78463688Y-61103707D01*
X78470573Y-61120227D01*
X78475044Y-61170611D01*
X78476624Y-61246435D01*
X78475638Y-61314485D01*
X78469584Y-61532572D01*
X76331750Y-62765140D01*
X76326189Y-63521799D01*
X76324826Y-63720775D01*
X76324075Y-63881419D01*
X76324107Y-64007727D01*
X76325092Y-64103699D01*
X76327201Y-64173332D01*
X76330603Y-64220624D01*
X76335469Y-64249574D01*
X76341970Y-64264179D01*
X76350275Y-64268438D01*
X76357939Y-64267202D01*
X76392765Y-64257768D01*
X76462444Y-64239790D01*
X76562225Y-64214448D01*
X76687355Y-64182919D01*
X76833083Y-64146383D01*
X76994657Y-64106017D01*
X77167325Y-64063000D01*
X77346334Y-64018511D01*
X77526934Y-63973727D01*
X77704371Y-63929828D01*
X77873895Y-63887991D01*
X78030753Y-63849395D01*
X78170192Y-63815218D01*
X78287463Y-63786638D01*
X78377811Y-63764835D01*
X78436486Y-63750986D01*
X78458666Y-63746267D01*
X78468910Y-63766487D01*
X78476150Y-63823501D01*
X78479823Y-63911840D01*
X78480167Y-63954826D01*
X78480167Y-64163385D01*
X77400781Y-64436367D01*
X76321396Y-64709350D01*
X76321281Y-65248721D01*
X76321167Y-65788093D01*
X76525708Y-65993405D01*
X76730250Y-66198716D01*
X76601684Y-66343033D01*
X76533353Y-66418319D01*
X76465251Y-66491001D01*
X76409413Y-66548296D01*
X76397142Y-66560294D01*
X76321167Y-66633238D01*
X76321167Y-67683267D01*
X78481648Y-67683267D01*
X78475616Y-67900225D01*
X78469584Y-68117184D01*
X77395375Y-68122669D01*
X76321167Y-68128155D01*
X76321167Y-68743221D01*
X76321305Y-68920743D01*
X76321899Y-69060341D01*
X76323219Y-69166424D01*
X76325537Y-69243401D01*
X76329122Y-69295681D01*
X76334245Y-69327674D01*
X76341176Y-69343787D01*
X76350186Y-69348430D01*
X76358209Y-69347117D01*
X76393026Y-69337686D01*
X76462698Y-69319713D01*
X76562470Y-69294375D01*
X76687592Y-69262851D01*
X76833311Y-69226319D01*
X76994875Y-69185958D01*
X77167531Y-69142946D01*
X77346528Y-69098462D01*
X77527114Y-69053683D01*
X77704536Y-69009789D01*
X77874043Y-68967957D01*
X78030882Y-68929366D01*
X78170301Y-68895195D01*
X78287548Y-68866621D01*
X78377871Y-68844823D01*
X78436518Y-68830980D01*
X78458666Y-68826267D01*
X78468879Y-68846500D01*
X78476108Y-68903605D01*
X78479802Y-68992191D01*
X78480167Y-69036939D01*
X78480167Y-69247610D01*
X78411375Y-69266271D01*
X78377517Y-69275012D01*
X78306863Y-69292907D01*
X78203697Y-69318882D01*
X78072303Y-69351863D01*
X77916964Y-69390776D01*
X77741965Y-69434547D01*
X77551589Y-69482102D01*
X77350120Y-69532366D01*
X77331875Y-69536915D01*
X76321167Y-69788899D01*
X76321167Y-69974333D01*
X76322318Y-70056999D01*
X76325395Y-70120686D01*
X76329835Y-70155820D01*
X76332071Y-70159767D01*
X76354115Y-70154779D01*
X76413339Y-70140458D01*
X76505860Y-70117763D01*
X76627796Y-70087657D01*
X76775265Y-70051101D01*
X76944384Y-70009056D01*
X77131270Y-69962484D01*
X77332041Y-69912345D01*
X77400667Y-69895184D01*
X77605196Y-69844075D01*
X77797145Y-69796216D01*
X77972628Y-69752569D01*
X78127759Y-69714094D01*
X78258651Y-69681754D01*
X78361420Y-69656509D01*
X78432178Y-69639322D01*
X78467040Y-69631153D01*
X78470003Y-69630600D01*
X78474297Y-69650272D01*
X78476671Y-69703378D01*
X78476893Y-69781051D01*
X78475616Y-69846321D01*
X78469584Y-70062042D01*
X77400667Y-70329133D01*
X76331750Y-70596225D01*
X76326112Y-71134777D01*
X76320473Y-71673329D01*
X76521903Y-71873922D01*
X76596114Y-71949322D01*
X76658004Y-72015059D01*
X76701998Y-72064993D01*
X76722520Y-72092985D01*
X76723334Y-72095701D01*
X76709155Y-72117842D01*
X76670372Y-72163351D01*
X76612615Y-72225964D01*
X76541512Y-72299418D01*
X76527960Y-72313077D01*
X76332586Y-72509267D01*
X76733102Y-72911455D01*
X76527134Y-73118198D01*
X76321167Y-73324941D01*
X76321553Y-73991312D01*
X76321939Y-74657684D01*
X78480167Y-75899628D01*
X78480167Y-76109447D01*
X78478935Y-76197878D01*
X78475616Y-76267902D01*
X78470773Y-76310522D01*
X78467025Y-76319267D01*
X78446826Y-76308992D01*
X78393159Y-76279382D01*
X78309225Y-76232257D01*
X78198225Y-76169436D01*
X78063359Y-76092741D01*
X77907828Y-76003991D01*
X77734833Y-75905007D01*
X77547573Y-75797609D01*
X77349250Y-75683617D01*
X77341184Y-75678975D01*
X77142552Y-75564843D01*
X76954885Y-75457336D01*
X76781379Y-75358263D01*
X76625226Y-75269434D01*
X76489624Y-75192657D01*
X76377767Y-75129741D01*
X76292849Y-75082494D01*
X76238066Y-75052726D01*
X76216613Y-75042245D01*
X76216489Y-75042254D01*
X76196484Y-75053160D01*
X76142993Y-75083347D01*
X76059226Y-75130984D01*
X75948387Y-75194234D01*
X75813685Y-75271266D01*
X75658324Y-75360244D01*
X75485514Y-75459335D01*
X75298459Y-75566706D01*
X75100366Y-75680522D01*
X75096846Y-75682546D01*
X74898394Y-75796444D01*
X74710711Y-75903815D01*
X74537028Y-76002832D01*
X74380576Y-76091670D01*
X74244588Y-76168502D01*
X74132295Y-76231504D01*
X74046928Y-76278849D01*
X73991720Y-76308711D01*
X73969901Y-76319265D01*
X73969849Y-76319267D01*
X73961473Y-76299650D01*
X73954923Y-76246976D01*
X73951106Y-76170512D01*
X73950500Y-76121464D01*
X73951899Y-76023715D01*
X73957053Y-75959337D01*
X73967401Y-75919431D01*
X73984382Y-75895096D01*
X73987542Y-75892280D01*
X74012349Y-75876155D01*
X74070470Y-75840987D01*
X74158485Y-75788776D01*
X74272973Y-75721520D01*
X74410513Y-75641218D01*
X74567686Y-75549868D01*
X74741070Y-75449469D01*
X74927246Y-75342018D01*
X75067042Y-75261554D01*
X76109500Y-74662209D01*
X76109500Y-73329717D01*
X75919000Y-73123100D01*
X75848482Y-73045332D01*
X75789762Y-72978129D01*
X75748197Y-72927805D01*
X75729141Y-72900674D01*
X75728500Y-72898502D01*
X75742630Y-72877404D01*
X75781152Y-72833026D01*
X75838267Y-72771764D01*
X75908177Y-72700011D01*
X75911855Y-72696313D01*
X76095209Y-72512105D01*
X75966916Y-72367811D01*
X75902326Y-72296341D01*
X75841567Y-72231135D01*
X75794837Y-72183074D01*
X75783561Y-72172202D01*
X75746714Y-72132079D01*
X75728823Y-72101240D01*
X75728500Y-72098517D01*
X75742681Y-72075837D01*
X75781422Y-72029952D01*
X75839018Y-71967259D01*
X75909765Y-71894152D01*
X75919380Y-71884469D01*
X76110259Y-71692792D01*
X76104588Y-71171344D01*
X76098917Y-70649897D01*
X75051167Y-70912131D01*
X74847047Y-70963106D01*
X74655036Y-71010838D01*
X74479111Y-71054355D01*
X74323251Y-71092683D01*
X74191432Y-71124848D01*
X74087630Y-71149877D01*
X74015825Y-71166797D01*
X73979992Y-71174632D01*
X73976959Y-71175066D01*
X73963966Y-71162698D01*
X73955649Y-71121525D01*
X73951394Y-71046673D01*
X73950500Y-70964916D01*
X73950500Y-70754065D01*
X74029875Y-70733275D01*
X74066003Y-70724127D01*
X74138865Y-70705945D01*
X74244088Y-70679811D01*
X74377298Y-70646808D01*
X74534123Y-70608018D01*
X74710191Y-70564523D01*
X74901127Y-70517407D01*
X75102559Y-70467750D01*
X75109375Y-70466071D01*
X76109500Y-70219657D01*
X76109500Y-70030962D01*
X76107854Y-69947610D01*
X76103447Y-69883255D01*
X76097077Y-69847339D01*
X76093625Y-69842968D01*
X76070589Y-69848102D01*
X76010421Y-69862577D01*
X75917045Y-69885423D01*
X75794387Y-69915668D01*
X75646371Y-69952341D01*
X75476925Y-69994471D01*
X75289971Y-70041087D01*
X75089437Y-70091219D01*
X75030000Y-70106101D01*
X74826349Y-70156719D01*
X74635115Y-70203498D01*
X74460220Y-70245529D01*
X74305590Y-70281905D01*
X74175149Y-70311719D01*
X74072821Y-70334064D01*
X74002531Y-70348032D01*
X73968203Y-70352717D01*
X73965536Y-70352211D01*
X73958870Y-70325148D01*
X73954847Y-70266085D01*
X73953973Y-70185296D01*
X73954953Y-70137442D01*
X73961084Y-69938996D01*
X75035292Y-69674697D01*
X76109500Y-69410399D01*
X76109500Y-66613468D01*
X75919000Y-66423850D01*
X75846929Y-66350464D01*
X75787357Y-66286668D01*
X75746030Y-66238845D01*
X75728696Y-66213380D01*
X75728500Y-66212184D01*
X75742738Y-66189669D01*
X75781623Y-66144070D01*
X75839407Y-66081770D01*
X75910345Y-66009154D01*
X75919000Y-66000517D01*
X76109500Y-65810899D01*
X76109500Y-65286583D01*
X76108888Y-65142700D01*
X76107167Y-65013977D01*
X76104510Y-64906094D01*
X76101088Y-64824731D01*
X76097074Y-64775568D01*
X76093625Y-64763229D01*
X76070584Y-64768392D01*
X76010399Y-64782855D01*
X75917000Y-64805649D01*
X75794311Y-64835805D01*
X75646261Y-64872356D01*
X75476776Y-64914333D01*
X75289783Y-64960769D01*
X75089209Y-65010695D01*
X75030000Y-65025454D01*
X74826318Y-65075871D01*
X74635057Y-65122493D01*
X74460142Y-65164414D01*
X74305500Y-65200726D01*
X74175058Y-65230524D01*
X74072740Y-65252900D01*
X74002473Y-65266947D01*
X73968184Y-65271759D01*
X73965536Y-65271303D01*
X73958879Y-65244665D01*
X73954855Y-65185952D01*
X73953969Y-65105369D01*
X73954953Y-65056996D01*
X73961084Y-64858103D01*
X75035292Y-64593659D01*
X76109500Y-64329214D01*
X76109151Y-63545615D01*
X76108803Y-62762017D01*
X75029651Y-62140945D01*
X73950500Y-61519873D01*
X73950500Y-61310153D01*
X73951751Y-61221746D01*
X73955123Y-61151746D01*
X73960043Y-61109156D01*
X73963844Y-61100434D01*
X73984089Y-61110695D01*
G37*
G04 #@! TD.AperFunction*
G04 #@! TD*
M02*
